<?xml version="1.0" standalone="no"?>
<!DOCTYPE svg PUBLIC "-//W3C//DTD SVG 1.1//EN" "http://www.w3.org/Graphics/SVG/1.1/DTD/svg11.dtd" >
<svg xmlns="http://www.w3.org/2000/svg" xmlns:xlink="http://www.w3.org/1999/xlink" version="1.1">
<metadata>
Created by FontForge 20150318 at Wed Nov 18 06:20:41 2015
 By uniteet7
(c) 2007 Adobe Systems Incorporated. All Rights Reserved.
</metadata>
<defs>
<font id="ArnoProRegular" horiz-adv-x="522" >
  <font-face 
    font-family="ArnoProRegular"
    font-weight="400"
    font-stretch="normal"
    units-per-em="1000"
    panose-1="2 2 5 2 4 5 6 2 4 3"
    ascent="678"
    descent="-322"
    x-height="398"
    cap-height="619"
    bbox="-147 -375.143 1511 871"
    underline-thickness="50"
    underline-position="-50"
    unicode-range="U+0020-FB06"
  />
<missing-glyph horiz-adv-x="495" 
d="M0 0v693h495v-693h-495zM248 391l168 253h-337zM277 347l169 -253v505zM79 50h337l-168 252zM50 599v-505l168 253z" />
    <glyph glyph-name="f_f" unicode="ff" horiz-adv-x="509" 
d="M17 25q5 1 20.5 3.5t20.5 4.5q23 7 23 35q1 29 1.5 129.5t0.5 144.5q0 8 -6 8l-56 4q0 14 9 27q21 2 49 11q4 4 4 9q2 145 113 220q52 36 101 36q65 1 107 -43q24 26 61 45.5t67 18.5q54 0 72 -34q1 -2 1 -13q-2 -8 -13.5 -25.5t-17.5 -22.5q-2 -1 -6 -1t-6 1
q-43 43 -80 43q-14 0 -25.5 -4.5t-19 -15.5t-13 -20.5t-9 -28.5t-5 -29.5t-2.5 -34.5t-1 -32v-32v-26q0 -8 6 -8q37 0 105 4q-7 -30 -8 -49q-60 2 -98 2q-5 0 -5 -9q0 -237 2 -273q1 -29 29 -37q15 -3 50 -7q2 -4 0.5 -16.5t-4.5 -12.5q-8 0 -49.5 1.5t-66.5 1.5
q-21 0 -55.5 -1.5t-43.5 -1.5q-2 3 -2 14t2 15q28 3 39 7q21 6 21 33q1 24 1 69t0.5 107.5t0.5 100.5q0 7 -6 9h-161q-2 0 -4 -3.5t-2 -5.5q0 -30 0.5 -136t1.5 -137t29 -38q24 -5 39 -6q2 -3 1 -15t-4 -14q-2 0 -35.5 1.5t-68.5 1.5q-33 0 -68 -1.5t-36 -1.5q-3 3 -3 14.5
t3 13.5zM159 413v-11q0 -7 6 -7h161q5 2 5 8q0 84 29 150q-17 29 -44.5 44t-56.5 15q-37 0 -61 -28q-39 -44 -39 -171z" />
    <glyph glyph-name="f_f_i" unicode="ffi" horiz-adv-x="741" 
d="M16 25q5 1 14.5 3t16.5 3.5t11 2.5q23 7 23 35q1 29 1.5 129t0.5 144q0 8 -5 8l-57 4q0 11 8 27q23 2 50 12q4 2 4 8q2 146 111 220q56 37 105 37q68 2 109 -47q64 68 148 68q40 0 68.5 -17.5t36.5 -40.5q1 -3 1 -9.5t-1 -8.5q-8 -25 -32 -38q-14 -7 -22 -1q-10 9 -24 25
q-39 42 -78 42q-53 0 -73 -53.5t-20 -160.5v-15q0 -7 5 -7h151q65 0 98 10q-3 -48 -3 -180q0 -113 1 -158q0 -26 21 -33q12 -4 48 -8q3 -3 1 -15t-6 -14q-3 0 -39 1.5t-67 1.5q-24 0 -59 -1.5t-39 -1.5q-4 3 -3.5 14.5t3.5 14.5q30 3 42 8q17 5 18 37q2 25 2 138
q0 109 -1 128q-2 12 -13 14l-155 1q-2 0 -4 -3t-2 -5q0 -36 0.5 -98t0.5 -108t1 -69q1 -29 29 -36q26 -6 39 -7q2 -3 0.5 -15t-3.5 -14q-8 0 -41 1.5t-63 1.5q-24 0 -59.5 -1.5t-43.5 -1.5q-2 2 -2 14t2 15q25 3 41 8q21 7 21 32q1 29 1.5 131t0.5 146q0 7 -6 9h-165
q-2 0 -4 -3.5t-2 -5.5q0 -232 2 -273q1 -31 29 -38q22 -5 41 -6q2 -3 1 -15.5t-4 -13.5q-3 0 -38.5 1.5t-67.5 1.5q-26 0 -63 -1.5t-42 -1.5q-3 3 -3 14.5t3 13.5zM158 413l1 -11q0 -7 6 -7h166q5 2 5 8q0 81 27 146q-38 64 -106 64q-34 0 -58 -28q-41 -44 -41 -172z" />
    <glyph glyph-name="f_f_l" unicode="ffl" horiz-adv-x="744" 
d="M17 26q33 4 41 7q23 8 23 35q1 29 1.5 130t0.5 145q0 7 -5 7l-57 4q0 14 9 27q15 1 48 11q5 3 5 9q2 145 113 221q53 36 103 36q69 2 109 -45q25 26 62.5 46t72.5 20q40 0 69 -17q7 -4 17 0q6 2 17 9t16 9q2 0 5.5 -3.5t3.5 -5.5q-6 -30 -6 -83q-2 -102 -2 -259
q0 -202 2 -256q1 -18 5 -26.5t18 -12.5q8 -3 45 -8q3 -4 1.5 -15t-5.5 -14q-9 0 -44.5 1.5t-60.5 1.5q-30 0 -64 -1.5t-36 -1.5q-3 3 -3 14.5t3 13.5q29 4 43 9q17 8 17 27q3 44 3 267q0 222 -1 237q-1 21 -14 36q-28 31 -70 31q-30 0 -50 -19t-28 -53.5t-10.5 -66
t-2.5 -73.5v-18q0 -7 6 -7q55 0 109 3q-7 -26 -7 -49q-16 0 -54 0.5t-49 0.5q-6 0 -6 -7q0 -220 2 -273q1 -33 30 -38q26 -5 38 -6q2 -3 1 -15t-4 -14q-6 0 -39 1.5t-65 1.5q-21 0 -58 -1.5t-45 -1.5q-3 3 -3 14.5t3 14.5q26 3 41 8q21 7 21 32q0 11 3 278q0 6 -5 8h-166
q-6 0 -6 -9q3 -271 3 -273q1 -31 29 -38q13 -3 40 -6q2 -3 1 -14.5t-4 -14.5q-3 0 -38.5 1.5t-67.5 1.5q-26 0 -62.5 -1.5t-41.5 -1.5q-2 3 -2 14.5t2 14.5zM158 413v-11q4 -7 7 -7h165q5 2 5 8q2 86 28 149q-39 61 -106 61q-35 0 -58 -27q-41 -44 -41 -173z" />
    <glyph glyph-name="longs_t" unicode="&#x17f;t" horiz-adv-x="538" 
d="M15 25q40 8 43 9q23 7 23 34q1 29 1.5 128t0.5 143q0 7 -6 9l-57 3q0 11 9 29q23 2 50 15q4 4 4 8q2 79 22 132t67 94q54 46 109 46q53 0 82 -32.5t31 -81.5q1 -26 1 -160q0 -6 4 -6q86 0 126 5q-8 -40 -9 -55q-12 0 -55 0.5t-63 0.5q-5 0 -5 -6q-2 -89 0 -183
q0 -49 7 -72q6 -19 23 -29t38 -10q36 0 64 17q1 -3 -0.5 -16t-2.5 -16q-35 -43 -104 -43q-63 0 -87 48q-10 17 -12.5 39.5t-2.5 74.5q0 31 0.5 100t0.5 87q0 7 -6 9q-6 1 -16.5 1.5t-23 1.5t-16.5 1q0 14 10 34q33 4 48 10q5 5 5 7q6 68 4 140q0 44 -19 66q-22 25 -59 25
q-46 0 -66 -54t-20 -174q0 -280 2 -335q1 -30 30 -37q22 -5 44 -6q1 -4 0 -15.5t-3 -13.5q-3 0 -40.5 1.5t-69.5 1.5q-26 0 -63.5 -1.5t-42.5 -1.5q-2 3 -2 14t2 14z" />
    <glyph glyph-name="R_A" unicode="RA" horiz-adv-x="1213" 
d="M30 590q-3 3 -2 14.5t4 13.5q11 0 55 -1.5t60 -1.5q41 0 96 1t71 1q84 0 131 -45t47 -111q0 -109 -114 -159q-4 -4 -2 -7q28 -45 79.5 -113t86.5 -104q39 -41 83 -42q16 1 26 10.5t23 39.5q96 229 181 471q16 49 17 59h11q11 -1 21 -1q9 0 16.5 0.5t12 0.5h5.5
q3 -15 15 -53q130 -371 166 -456q22 -50 38.5 -62t69.5 -19q3 -2 1.5 -14.5t-3.5 -14.5q-75 3 -121 3q-69 0 -132 -3q-2 3 -2.5 14.5t2.5 14.5q32 3 54 11q18 8 12 25q-14 50 -60 172q-2 7 -9 7h-19.5h-36h-39.5h-82q-3 0 -6.5 -3.5t-3.5 -5.5q-53 -136 -54 -162
q-1 -10 0.5 -15.5t8.5 -11.5t22 -9q13 -3 48 -8q2 -3 1 -14.5t-3 -14.5q-3 0 -38 1.5t-77 1.5q-16 0 -67 -1.5t-65 -1.5q-38 0 -61 12.5t-53 44.5q-17 20 -42.5 55.5t-57.5 83t-42 61.5q-10 15 -24 15q-14 1 -71 1q-4 0 -4 -6q0 -148 2 -181q1 -25 8 -34.5t24 -13.5
q24 -5 56 -9q4 -3 3 -14.5t-5 -14.5q-5 0 -50 1.5t-83 1.5t-80.5 -1.5t-46.5 -1.5q-4 3 -4 14.5t4 14.5q40 5 51 8q18 4 25.5 15.5t8.5 39.5q2 46 2 214q0 202 -1 233q-1 21 -8 31.5t-25 14.5q-26 5 -54 8zM247 583q-22 0 -35 -5q-7 -5 -7 -15q-2 -34 -2 -248q0 -5 4 -5
q104 -3 129 8q66 29 66 117q0 148 -155 148zM878 510l-75 -214q0 -7 4 -8q10 -1 81 -1q56 0 66 1q6 0 4 8q-60 177 -75 215q-4 0 -5 -1z" />
    <glyph glyph-name="K_A" unicode="KA" horiz-adv-x="1223" 
d="M374 590q-2 4 -2 14.5t3 13.5q16 0 55.5 -1.5t57.5 -1.5l122 3q2 -2 2 -13.5t-3 -14.5q-46 -7 -69 -18.5t-53 -44.5q-43 -48 -180 -191q-1 -2 0 -5q31 -46 120 -141t135 -128q31 -24 67 -24q15 0 23 6.5t16 25.5q35 80 101.5 252.5t88.5 234.5q14 43 16 59q1 0 12 -0.5
t21 -0.5q12 0 23 1h11q9 -35 16 -53q130 -371 165 -456q22 -50 38.5 -62t69.5 -19q3 -2 2 -14.5t-4 -14.5q-75 3 -121 3q-69 0 -132 -3q-2 3 -2.5 14.5t2.5 14.5q33 3 54 11q18 8 12 25q-14 50 -60 172q-2 7 -9 7h-19.5h-36h-39.5h-82q-3 0 -6.5 -3.5t-3.5 -5.5
q-50 -130 -56 -163q-3 -15 2 -23.5t24 -12.5q40 -6 49 -7q2 -3 1 -14.5t-3 -14.5q-4 0 -47 1.5t-70 1.5q-7 0 -56.5 -1.5t-60.5 -1.5q-39 1 -64 10.5t-53 34.5q-33 29 -102.5 107t-114.5 134q-6 8 -19 16q-1 3 0 9t2 7q32 12 94.5 76t113.5 128q20 27 20 43q0 12 -19 17
q-17 6 -52 11zM29 26q47 6 55 8q19 5 25 17t8 42q3 68 1 229q0 184 -1 213q-2 24 -7.5 33t-24.5 14q-18 4 -50 8q-4 4 -4 14t4 14q8 0 49 -1.5t77 -1.5q29 0 70 1.5t51 1.5q2 -3 2 -13.5t-2 -14.5q-44 -7 -49 -9q-17 -5 -22 -15.5t-7 -37.5q-1 -44 -1 -204q0 -156 1 -226
q2 -34 8.5 -46t25.5 -17q27 -5 56 -9q3 -4 2 -15t-4 -14q-14 0 -63 1.5t-77 1.5q-27 0 -73 -1.5t-50 -1.5q-2 4 -2 14.5t2 14.5zM881 511l-75 -215q0 -7 4 -8q10 -1 81 -1q56 0 66 1q6 0 4 8q-62 184 -75 216q-4 0 -5 -1z" />
    <glyph glyph-name="T_T" unicode="TT" horiz-adv-x="1089" 
d="M158 26q53 5 71 10q23 4 30 19.5t8 53.5q4 104 4 455q0 10 -8 10q-13 1 -61 1t-68 -1q-22 -1 -40 -26q-14 -20 -40 -95q-3 -2 -16.5 1t-14.5 7q14 73 20 165q0 1 4.5 3t6.5 1q30 -15 81 -15h817q64 0 97 15q8 0 10 -6q-11 -39 -23 -168q-2 -4 -16 -4t-16 3q-8 68 -16 90
q-10 26 -37 27q-21 2 -72 2t-69 -1q-5 -2 -5 -9q0 -423 3 -474q2 -26 9.5 -37t24.5 -16q14 -5 67 -11q2 -4 1 -16t-4 -13q-11 0 -63.5 1.5t-86.5 1.5q-43 0 -93 -1.5t-57 -1.5q-4 4 -3.5 15t3.5 14q51 5 71 10q23 4 29.5 19.5t8.5 53.5q3 117 3 455q0 8 -7 10l-349 -1
q-5 -2 -5 -10q0 -422 3 -473q2 -26 9.5 -37t24.5 -16q16 -5 68 -11q2 -4 1 -16t-5 -13q-10 0 -62 1.5t-87 1.5q-43 0 -93.5 -1.5t-57.5 -1.5q-3 4 -2.5 15t2.5 14z" />
    <glyph glyph-name="T_h" unicode="Th" horiz-adv-x="1015" 
d="M172 26q31 3 66 10q23 4 29.5 19.5t8.5 53.5q3 117 3 454q0 10 -8 10q-26 3 -140 0q-23 0 -37 -22q-16 -24 -40 -92q-4 -2 -17 1t-14 7q14 86 19 160q3 6 12 3q28 -15 80 -15l456 1q5 0 5 5v39q0 7 5 7q22 1 69 15q6 -2 6 -6q0 -2 -0.5 -14.5t-1 -39.5t-0.5 -59v-213
q0 -3 4 -1q80 60 138 60q59 0 92 -42t33 -117q0 -144 1 -188q0 -16 13 -23q16 -8 51 -13q2 -3 0.5 -15t-4.5 -14q-2 0 -40.5 2t-65.5 1q-89 -3 -91 -3q-2 3 -2.5 14.5t2.5 14.5q30 4 40 7q11 4 14.5 13t4.5 39q3 152 -4 194q-5 28 -27.5 50t-66.5 22q-43 0 -80 -27
q-12 -9 -12 -24q0 -193 2 -221q2 -25 6.5 -33.5t19.5 -13.5q32 -5 38 -6q3 -3 2 -14.5t-3 -14.5q-3 0 -42.5 1.5t-61.5 1.5q-18 0 -55.5 -1.5t-45.5 -1.5q-3 3 -3 14.5t3 14.5q29 3 40 7q13 4 17 12.5t5 30.5q2 48 2 166q0 105 -0.5 176t-0.5 102.5v41.5q-2 10 -9 11
q-34 1 -117 0.5t-99 -1.5q-6 -2 -6 -9q0 -406 4 -474q1 -26 8 -36.5t24 -15.5t66 -11q2 -3 1 -15t-5 -14q-135 3 -146 3q-61 0 -145 -3q-4 4 -3.5 15t3.5 14z" />
    <glyph glyph-name="f_b" unicode="fb" horiz-adv-x="745" 
d="M18 26q25 3 41 8q21 7 21 32q0 11 3 271q0 7 -6 9l-57 3q0 14 9 29q25 2 49 14q5 2 5 8q1 86 27 144t87 99q49 33 96 33q33 0 59 -13q7 -4 17 0q8 3 32 17q3 0 7 -4t4 -6q-8 -40 -8 -87q0 -26 0.5 -119t0.5 -102q0 -4 5 -2q90 49 136 49q70 0 113 -52q44 -50 44 -128
q0 -119 -93 -187q-26 -21 -76 -37.5t-82 -16.5q-68 0 -132 27q3 13 5 52q2 70 2 183q0 290 -1 313q0 25 -12 35q-25 29 -67 29q-30 0 -52 -24q-37 -40 -37 -183q0 -13 1 -18q0 -7 5 -7q54 0 105 3q-5 -19 -7 -53q-30 1 -98 1q-2 0 -4 -3t-2 -5q0 -37 0.5 -97t0.5 -104t1 -67
q1 -32 30 -38q22 -4 46 -6q2 -3 1 -14.5t-4 -14.5q-6 0 -44 1.5t-71 1.5q-22 0 -57 -1.5t-43 -1.5q-3 3 -3 14.5t3 14.5zM487 352q-37 0 -69 -17q-10 -7 -11 -18q-5 -60 -1 -191q0 -50 16 -68q29 -24 79 -24q51 0 84 37q36 43 36 115q0 71 -32 117q-37 49 -102 49z" />
    <glyph glyph-name="f_f_b" unicode="ffb" horiz-adv-x="1004" 
d="M17 26q32 4 41 7q23 8 23 35q1 53 1 275q0 7 -5 7l-56 4q0 11 8 27q12 1 49 11q5 3 5 9q2 145 113 221q51 36 102 36q69 2 110 -45q25 26 62.5 46t71.5 20q39 0 69 -17q7 -4 18 0q2 1 32 18q2 0 6 -3.5t4 -5.5q-7 -35 -7 -83q-1 -51 -1 -227q0 -6 6 -3q92 51 135 51
q70 0 113 -52q44 -50 44 -128q0 -122 -89 -186q-31 -23 -74 -39t-74 -16q-38 0 -89 15q-17 5 -45 -3q-5 0 -8 6q4 69 4 317q0 233 -1 243q0 21 -13 34q-30 30 -70 30q-30 0 -50 -18.5t-28.5 -53t-11 -65t-2.5 -73.5v-18q0 -7 6 -7q58 0 109 3q-6 -32 -7 -49q-16 0 -53.5 0.5
t-49.5 0.5q-5 0 -5 -7q0 -238 2 -273q1 -33 30 -38q24 -5 37 -6q2 -3 1 -15t-4 -14q-6 0 -38.5 1.5t-65.5 1.5q-21 0 -57.5 -1.5t-45.5 -1.5q-3 3 -3 14.5t3 14.5q24 2 42 8q21 7 21 32q2 106 2 278q0 6 -5 8h-166q-5 0 -5 -9q0 -219 2 -273q1 -31 29 -38q12 -3 41 -6
q2 -3 1 -14.5t-5 -14.5q-3 0 -38 1.5t-67 1.5q-26 0 -62.5 -1.5t-41.5 -1.5q-3 3 -3 14.5t3 14.5zM158 413v-11q0 -7 6 -7h167q4 2 4 8q2 87 29 149q-42 61 -107 61q-35 0 -59 -28q-40 -45 -40 -172zM750 353q-43 0 -76 -22q-6 -5 -9 -16q-2 -15 -1.5 -91.5t2.5 -106.5
q1 -39 17 -55q34 -28 82 -28q47 0 78 35q36 43 36 118q0 73 -32 117q-38 49 -97 49z" />
    <glyph glyph-name="f_f_h" unicode="ffh" horiz-adv-x="1005" 
d="M158 413q0 -10 1 -11q0 -7 6 -7h166q5 2 5 8q0 86 28 150q-39 60 -106 60q-35 0 -59 -28q-41 -46 -41 -172zM18 26q34 5 41 7q22 8 22 35q1 29 1.5 130t0.5 145q0 7 -5 7l-57 4q0 14 9 27q12 1 49 11q4 4 4 9q2 145 113 221q53 36 103 36q69 2 110 -45q24 27 61.5 46.5
t72.5 19.5q38 0 69 -17q7 -4 17 0q4 2 33 18q2 0 5.5 -3.5t3.5 -5.5q-6 -30 -6 -83q-2 -102 -2 -238q0 -1 1.5 -1.5t2.5 0.5q79 60 137 60q59 0 91.5 -43t32.5 -117q0 -142 1 -186q0 -17 12 -24q14 -8 52 -13q2 -2 1 -15t-5 -14q-5 0 -41 1.5t-61 1.5q-56 0 -95 -3
q-4 3 -4 14.5t3 14.5q29 4 40 7q12 4 15.5 13.5t4.5 38.5q3 149 -4 195q-5 27 -27.5 49.5t-65.5 22.5q-41 0 -78 -27q-12 -9 -12 -24q0 -194 2 -222q2 -25 6.5 -33.5t19.5 -13.5q32 -5 38 -6q4 -3 3 -14.5t-4 -14.5q-1 0 -35.5 1.5t-69.5 1.5q-30 0 -61 -1.5t-35 -1.5
q-3 3 -3 14.5t3 14.5q23 3 36 7t17 13t5 30q2 48 2 209q0 268 -1 283q-1 21 -13 33q-30 30 -72 30q-30 0 -50 -18.5t-28.5 -53.5t-11 -65.5t-2.5 -73.5l1 -18q0 -7 5 -7q56 0 110 3q-7 -26 -7 -49q-16 0 -54 0.5t-49 0.5q-6 0 -6 -7q3 -269 3 -273q1 -33 29 -38q26 -5 38 -6
q2 -3 1 -15t-4 -14q-6 0 -39 1.5t-65 1.5q-21 0 -58 -1.5t-45 -1.5q-3 3 -3 14.5t3 14.5q26 3 41 8q21 6 21 32q0 11 3 278q0 6 -5 8h-166q-2 0 -4 -3.5t-2 -5.5q3 -271 3 -273q1 -31 29 -38q13 -3 40 -6q2 -3 1 -14.5t-4 -14.5q-3 0 -38.5 1.5t-67.5 1.5q-26 0 -62.5 -1.5
t-41.5 -1.5q-2 3 -2 14.5t3 14.5z" />
    <glyph glyph-name="f_f_j" unicode="ffj" horiz-adv-x="732" 
d="M16 25q5 1 14.5 3t16.5 3.5t11 2.5q22 6 22 35q0 11 3 273q0 8 -5 8l-57 4q0 11 8 27q25 3 49 12q5 2 5 8q2 146 111 220q55 37 105 37q70 2 109 -47q64 68 148 68q40 0 69 -17.5t37 -40.5q1 -3 0.5 -9t-1.5 -9q-8 -24 -34 -39q-12 -8 -21 -1q-14 12 -25 25
q-37 43 -76 43q-53 0 -73.5 -53.5t-20.5 -160.5l1 -15q0 -7 6 -7h143q63 0 102 11q-2 -152 -2 -323q0 -74 -8 -119q-11 -69 -55.5 -133t-86.5 -89q-14 1 -28 13q-2 5 0 9q52 35 75.5 94t23.5 157v37q0 241 -3 286q0 4 -4 8.5t-8 5.5h-149q-2 0 -4.5 -3.5t-2.5 -4.5
q0 -36 0.5 -98t0.5 -108t1 -69q1 -29 29 -36q21 -5 39 -7q2 -3 1 -15.5t-4 -13.5q-6 0 -39 1.5t-65 1.5q-25 0 -60 -1.5t-43 -1.5q-2 2 -2.5 14t2.5 15q25 3 41 8q20 6 21 32q1 29 1.5 131t0.5 146q0 7 -6 9h-165q-6 0 -6 -9q0 -232 2 -273q1 -31 29 -38q22 -5 41 -6
q2 -3 1 -15.5t-4 -13.5q-3 0 -38.5 1.5t-67.5 1.5q-26 0 -63.5 -1.5t-41.5 -1.5q-3 3 -3 14.5t3 13.5zM158 413v-11q4 -7 7 -7h166q5 2 5 8q0 80 28 147q-40 63 -107 63q-34 0 -58 -28q-41 -44 -41 -172z" />
    <glyph glyph-name="f_f_k" unicode="ffk" horiz-adv-x="958" 
d="M18 26q34 5 41 7q22 8 22 35q1 29 1.5 130t0.5 145q0 7 -5 7l-57 4q0 14 9 27q12 1 49 11q4 4 4 9q2 145 113 221q53 36 103 36q69 2 110 -45q25 26 62 46t71 20q40 0 70 -17q7 -4 17 0q1 0 32 18q2 0 5.5 -3.5t3.5 -5.5q-6 -30 -6 -83q0 -23 -0.5 -85t-1.5 -154t-1 -134
q21 2 47 24q29 24 56.5 58t31.5 48q2 11 -12 15q-30 6 -48 7q-2 4 -0.5 15t4.5 13q123 0 188 9q2 -3 2.5 -14.5t-2.5 -15.5q-58 -10 -84 -36q-15 -16 -48.5 -53t-47.5 -51q-1 -1 -1.5 -2.5t0.5 -2.5q22 -35 76 -97.5t83 -85.5q17 -13 30.5 -16t46.5 -4q2 -3 1 -15t-5 -14
q-12 -3 -106 -3q-20 0 -37 13q-15 11 -39 39.5t-56.5 70.5t-47.5 60q-11 17 -32 16q0 -84 2 -123q0 -18 5.5 -25.5t19.5 -11.5q26 -5 42 -7q2 -3 0.5 -14.5t-4.5 -14.5q-6 0 -40.5 1.5t-60.5 1.5q-32 0 -64 -1.5t-35 -1.5q-3 2 -3.5 14.5t3.5 14.5q30 5 37 7q21 6 22 33
q2 31 2 206q0 281 -1 296q-1 21 -13 33q-31 31 -71 31q-24 0 -42 -13.5t-27.5 -33.5t-14.5 -51t-6.5 -56t-1.5 -58q0 -13 1 -18q0 -7 5 -7q56 0 110 3q-7 -26 -7 -49q-16 0 -54 0.5t-49 0.5q-6 0 -6 -7q3 -269 3 -273q1 -33 29 -38q26 -5 38 -6q2 -3 1 -15t-4 -14
q-6 0 -39 1.5t-65 1.5q-21 0 -58 -1.5t-45 -1.5q-3 3 -3 14.5t3 14.5q26 3 41 8q21 6 21 32q0 11 3 278q0 6 -5 8h-166q-2 0 -4 -3.5t-2 -5.5q3 -271 3 -273q1 -31 29 -38q13 -3 40 -6q2 -3 1 -14.5t-4 -14.5q-3 0 -38.5 1.5t-67.5 1.5q-26 0 -62.5 -1.5t-41.5 -1.5
q-2 3 -2 14.5t3 14.5zM158 413l1 -11q0 -7 6 -7h166q5 2 5 8q0 86 28 150q-39 60 -106 60q-36 0 -59 -27q-41 -44 -41 -173z" />
    <glyph glyph-name="f_f_t" unicode="fft" horiz-adv-x="803" 
d="M15 25l43 8q22 8 22 35q0 9 3 275q0 7 -6 7l-56 4q0 14 9 27q25 2 48 12q5 2 5 7q2 153 105 225q46 32 88 32q52 0 67 -28v-12q-2 -9 -12.5 -25t-16.5 -22q-6 -2 -12 0q-38 40 -73 40q-23 0 -41 -22q-30 -35 -30 -164v-22q0 -7 6 -7h169q5 2 5 8q3 166 107 241
q50 35 92 35q55 0 73 -33q1 -2 1 -6t-1 -6q-2 -9 -13 -25t-17 -22q-1 -1 -5.5 -1.5t-6.5 0.5q-44 42 -78 42q-25 0 -44 -22q-32 -35 -32 -172v-32q0 -7 6 -7h158q5 3 5 7v84q48 25 65 46q3 1 9 1.5t8 -0.5q-5 -42 -5 -132q0 -6 5 -6q87 0 125 5q-9 -43 -9 -50q-11 0 -54 0.5
t-64 0.5q-4 0 -4 -5q-1 -47 -1 -190q1 -53 7 -71q13 -39 61 -39q36 0 64 17q1 -4 0 -15.5t-3 -14.5q-36 -45 -101 -45q-66 0 -90 48q-14 26 -14 114q0 30 0.5 102.5t0.5 91.5q0 6 -6 8h-158q-5 0 -5 -8q0 -220 3 -274q1 -17 6.5 -25t21.5 -12q14 -3 48 -7q2 -4 0.5 -16
t-4.5 -13q-6 0 -47 1.5t-72 1.5q-24 0 -55.5 -1.5t-39.5 -1.5q-3 3 -2.5 14t2.5 15q29 4 40 8q21 6 21 32q1 24 1 69t0.5 107.5t0.5 100.5q0 7 -6 9h-168q-6 0 -6 -9q0 -30 0.5 -136t1.5 -137t29 -38q23 -5 42 -6q2 -3 1 -14.5t-4 -14.5q-3 0 -39 1.5t-68 1.5
q-26 0 -63.5 -1.5t-42.5 -1.5q-3 3 -3 14.5t3 13.5z" />
    <glyph glyph-name="f_h" unicode="fh" horiz-adv-x="751" 
d="M17 26q26 3 42 8q21 7 21 34q0 11 3 269q0 9 -6 9l-57 3q0 14 10 29q33 6 48 15q5 2 5 8q1 86 26.5 143.5t87.5 98.5q47 33 96 33q37 0 65 -13q7 -4 17 0q12 4 32 17q2 0 6 -3.5t4 -5.5q-7 -55 -8 -94v-227q0 -1 1.5 -1.5t2.5 0.5q79 60 137 60q59 0 91 -43t32 -117
q0 -98 2 -186q0 -17 12 -24q15 -8 52 -13q2 -3 0 -15t-4 -14q-7 0 -41.5 1.5t-62.5 1.5q-54 0 -93 -3q-2 2 -2.5 14t1.5 15q29 4 40 7q12 4 15.5 13.5t4.5 38.5q3 149 -5 195q-4 26 -26 48.5t-66 22.5q-43 0 -78 -26q-12 -9 -12 -24q0 -194 2 -222q1 -24 5.5 -33t20.5 -14
q30 -5 38 -6q2 -2 2 -14t-3 -15q-3 0 -42.5 1.5t-62.5 1.5q-17 0 -52.5 -1.5t-43.5 -1.5q-2 2 -2.5 14t2.5 15q22 2 36 7q13 4 17 12.5t5 30.5q2 48 2 166q0 284 -1 317q0 25 -12 37q-28 32 -72 32q-32 0 -53 -24q-38 -38 -38 -185q0 -12 1 -17q0 -7 5 -7q56 0 107 3
q-7 -26 -9 -53q-30 1 -98 1q-2 0 -4 -3t-2 -5q0 -37 0.5 -96.5t0.5 -103.5t1 -68q1 -32 31 -38q25 -5 40 -6q2 -3 1.5 -15.5t-4.5 -13.5q-6 0 -41.5 1.5t-68.5 1.5q-17 0 -55 -1.5t-46 -1.5q-2 3 -2.5 14.5t2.5 14.5z" />
    <glyph glyph-name="f_i" unicode="fi" horiz-adv-x="484" 
d="M17 26q25 3 41 8q22 7 22 32q2 100 2 275q0 9 -5 9l-56 4q0 11 8 27q24 2 49 12q5 3 5 8q1 83 27 141.5t86 99.5q52 36 104 36q41 0 69 -17t36 -39q1 -2 0.5 -8t-1.5 -9q-2 -9 -14 -23t-23 -20q-13 -3 -19 2q-4 3 -24 26q-36 39 -77 39q-29 0 -51 -26q-38 -42 -38 -185
v-16q0 -7 6 -7h147q65 0 98 10q-3 -48 -3 -180q0 -113 1 -158q0 -26 21 -33q12 -4 46 -8q2 -3 0.5 -15t-5.5 -14q-4 0 -38.5 1.5t-65.5 1.5q-27 0 -59 -1.5t-36 -1.5q-3 3 -3 14.5t3 14.5q22 2 39 8t18 37q2 25 2 138q0 110 -2 129q0 4 -4 8.5t-8 5.5h-152q-5 0 -5 -10
q0 -220 2 -273q1 -30 28 -36q23 -5 39 -7q3 -3 1.5 -15t-4.5 -14q-6 0 -39 1.5t-64 1.5q-25 0 -60 -1.5t-43 -1.5q-3 2 -3.5 14t2.5 15z" />
    <glyph glyph-name="f_j" unicode="fj" horiz-adv-x="479" 
d="M18 26q23 2 40 8q22 6 22 32q0 8 3 275q0 9 -6 9l-56 4q0 14 9 27q23 2 48 12q5 2 5 8q1 83 27 141.5t86 99.5q52 36 104 36q40 0 68.5 -16.5t37.5 -39.5q1 -2 0.5 -8t-1.5 -9q-2 -9 -14.5 -23t-22.5 -19q-11 -5 -19 1q-5 4 -24 26q-36 40 -77 40q-28 0 -52 -28
q-38 -41 -38 -184l1 -16q0 -7 5 -7h143q63 0 102 11q-1 -76 -1 -323q-2 -77 -9 -119q-11 -69 -55.5 -133t-86.5 -89q-11 1 -28 13q-2 6 1 9q52 35 75.5 94t23.5 157v37q0 226 -4 286q0 4 -3.5 8.5t-7.5 5.5h-150q-1 0 -3.5 -4t-2.5 -6q0 -36 0.5 -97.5t0.5 -107t1 -68.5
q1 -30 28 -36q19 -4 48 -7q2 -3 1 -15t-4 -14q-6 0 -43 1.5t-69 1.5q-24 0 -59.5 -1.5t-43.5 -1.5q-2 2 -2.5 14t2.5 15z" />
    <glyph glyph-name="f_k" unicode="fk" horiz-adv-x="708" 
d="M16 25q24 4 43 8q21 7 21 35q0 12 3 269q0 7 -6 9l-57 3q0 17 10 29q26 4 48 15q5 2 5 7q1 87 27 144.5t87 98.5q49 33 95 33q38 0 66 -14q8 -3 16 0t34 18q2 0 6 -4t4 -5q-6 -30 -7 -88q-3 -120 -3 -365q26 4 47 21q30 26 57 59.5t31 46.5q2 11 -12 15q-17 5 -46 7
q-2 4 -1.5 15.5t4.5 13.5q128 0 188 9q3 -2 3 -14t-3 -15q-56 -12 -85 -41l-96 -99q-1 -1 -1 -5q24 -37 78 -100t83 -85q17 -13 31.5 -16t48.5 -4q2 -2 0 -14.5t-5 -14.5q-22 -6 -110 -3q-20 0 -35 13q-15 11 -39 38.5t-59.5 73t-46.5 59.5q-10 17 -32 14l2 -122
q1 -18 6 -25.5t19 -11.5l42 -8q2 -3 0.5 -14t-4.5 -14q-7 0 -42.5 1.5t-59.5 1.5q-26 0 -57.5 -1.5t-41.5 -1.5q-2 2 -2.5 14t1.5 14q28 4 38 8q13 4 17 10.5t5 22.5q3 46 3 193v302q0 21 -14 35q-26 32 -71 32q-32 0 -53 -23q-38 -39 -38 -185q0 -13 1 -18q0 -7 5 -7
q55 0 106 3q-9 -47 -9 -53q-30 1 -97 1q-6 0 -6 -8q0 -37 0.5 -97t0.5 -104t1 -67q1 -33 30 -38q27 -6 41 -7q2 -3 1 -14.5t-4 -13.5q-6 0 -41.5 1.5t-67.5 1.5q-21 0 -58.5 -1.5t-44.5 -1.5q-2 3 -2 14t2 14z" />
    <glyph glyph-name="f_l" unicode="fl" horiz-adv-x="485" 
d="M17 26q26 3 42 8q21 7 21 33q0 11 3 270q0 9 -6 9l-57 3q0 14 10 29q31 5 48 15q5 2 5 7q1 85 26.5 143.5t86.5 99.5q49 33 94 33q38 0 66 -13q7 -4 17 0q8 3 32 17q1 0 5 -4t4 -5q-6 -45 -6 -83q-1 -51 -1 -259q0 -229 2 -256q1 -19 4.5 -27t16.5 -12q12 -4 45 -8
q2 -4 0.5 -15t-4.5 -14q-8 0 -41 1.5t-63 1.5q-31 0 -63.5 -1.5t-34.5 -1.5q-2 4 -2 14.5t2 13.5q30 5 42 9q13 5 17 27q2 30 2 267q0 217 -1 232q0 22 -11 35q-26 33 -70 33q-31 0 -52 -24q-38 -39 -38 -184q0 -13 1 -18q0 -7 5 -7q54 0 105 3q-5 -30 -7 -53q-68 2 -98 1
q-6 0 -6 -8q0 -36 0.5 -96t0.5 -104.5t1 -67.5q1 -33 30 -38q25 -5 39 -6q1 -4 -0.5 -15.5t-2.5 -13.5q-6 0 -39 1.5t-66 1.5q-12 0 -52.5 -1.5t-51.5 -1.5q-5 20 0 29z" />
    <glyph glyph-name="f_t" unicode="ft" horiz-adv-x="542" 
d="M19 26l40 7q21 7 21 35q0 12 3 271q0 8 -6 8l-58 3q0 7 9 28q26 2 50 15q5 3 5 7q1 86 24.5 141.5t82.5 99.5q53 37 93 37q56 0 74 -30v-11q-3 -9 -15 -29t-18 -25q-6 -2 -12 0q-42 40 -79 40q-25 0 -41 -19q-32 -33 -34 -180q0 -4 0.5 -12t0.5 -10q0 -7 6 -7h156
q4 4 4 6v85q44 22 66 46q3 1 9 1.5t8 -0.5q-5 -43 -5 -132q0 -6 4 -6q84 0 121 5q-1 -6 -4.5 -25.5t-4.5 -27.5q-13 0 -57.5 0.5t-55.5 0.5q-5 0 -5 -5q-2 -92 0 -187q0 -48 7 -71q12 -39 58 -39q35 0 62 16q1 -3 0 -14.5t-3 -14.5q-35 -45 -99 -45q-62 0 -88 48
q-14 26 -14 114q0 31 0.5 102t0.5 89q0 7 -5 8h-156q-2 0 -4 -3.5t-2 -5.5q2 -242 4 -269q1 -29 28 -37q25 -5 54 -8q2 -3 1 -15t-4 -14q-9 0 -51 1.5t-70 1.5q-13 0 -51.5 -1.5t-49.5 -1.5q-2 2 -2.5 14t2.5 15z" />
    <glyph glyph-name="longs_b" unicode="&#x17f;b" horiz-adv-x="737" 
d="M19 26q23 2 39 8q22 6 22 33q0 11 3 273q0 6 -6 8l-57 3q0 11 9 29q23 2 50 16q4 1 4 6q1 86 26 143t86 99q47 32 88 32q31 0 58 -12q7 -4 17 0q15 6 35 19q1 0 5 -4t4 -5q-6 -30 -6 -88v-223q2 -4 6 -2q87 48 135 48q71 0 114 -52q44 -52 44 -128q0 -119 -93 -187
q-27 -21 -77 -37.5t-81 -16.5q-63 0 -132 25q4 24 4 51q3 108 3 186q0 269 -1 314q0 24 -10 36q-21 28 -61 28q-30 0 -50 -23q-39 -40 -39 -193v-72q0 -36 0.5 -96.5t0.5 -105.5t1 -68q1 -31 30 -38q18 -4 45 -6q2 -3 1 -15.5t-4 -13.5q-6 0 -42.5 1.5t-68.5 1.5
q-12 0 -52 -1.5t-50 -1.5q-2 2 -2.5 13.5t2.5 15.5zM480 353q-40 0 -71 -18q-8 -4 -11 -17q-1 -15 -1.5 -83.5t0.5 -110.5q1 -49 17 -65q27 -25 79 -25t83 37q36 41 36 115q0 73 -32 118q-37 49 -100 49z" />
    <glyph glyph-name="longs_h" unicode="&#x17f;h" horiz-adv-x="739" 
d="M17 26q24 2 42 8q21 7 21 32q0 10 3 273q0 7 -6 9l-57 3q0 17 10 29q32 5 49 16q4 3 4 7q1 82 26.5 139.5t85.5 100.5q45 32 88 32q32 0 60 -11q10 -3 17 0q11 4 35 19q2 0 5.5 -3.5t3.5 -5.5q-6 -30 -6 -88q0 -4 -1 -93.5t0 -141.5q0 -4 4 -2q78 60 136 60
q59 0 91.5 -43t32.5 -117q0 -142 1 -186q0 -17 12 -24q16 -9 52 -13q1 -3 -1 -15t-3 -14q-7 0 -43.5 1.5t-62.5 1.5q-49 0 -91 -3q-2 2 -2 14t2 15q24 3 38 7q12 4 16 13.5t5 38.5q3 149 -4 195q-4 26 -26.5 48.5t-66.5 22.5q-43 0 -77 -26q-13 -10 -13 -24q0 -194 2 -222
q2 -24 6.5 -33t19.5 -14q32 -5 38 -6q3 -3 2 -15t-3 -14q-3 0 -42 1.5t-62 1.5q-18 0 -53.5 -1.5t-42.5 -1.5q-3 3 -3.5 15t2.5 14q22 2 37 7q12 4 16 12.5t5 30.5q3 72 3 177q0 268 -2 313q0 27 -11 36q-24 27 -61 27q-29 0 -50 -24q-40 -41 -40 -197v-68q0 -37 0.5 -97.5
t0.5 -105t1 -67.5q1 -33 29 -38q22 -4 38 -6q2 -4 1 -15.5t-4 -13.5q-5 0 -37 1.5t-66 1.5q-17 0 -55.5 -1.5t-48.5 -1.5q-2 3 -2 14t2 15z" />
    <glyph glyph-name="longs_i" unicode="&#x17f;i" horiz-adv-x="478" 
d="M19 25q28 4 39 8q22 6 22 32q0 10 3 274q0 9 -6 9l-57 3q0 11 9 29q22 2 49 15q5 2 5 8q2 161 115 239q51 36 102 36q39 0 66.5 -15.5t37.5 -37.5q2 -11 0 -20q-8 -25 -35 -39q-13 -8 -22 -1q-4 3 -12 12t-13 14q-34 37 -74 37q-29 0 -51 -26q-39 -42 -39 -208
q0 -30 0.5 -160.5t1.5 -164.5q1 -30 28 -38q17 -4 39 -6q2 -3 0.5 -14.5t-3.5 -13.5q-8 0 -40.5 1.5t-62.5 1.5q-24 0 -58.5 -1.5t-42.5 -1.5q-2 3 -2.5 14t1.5 14zM466 25q1 -3 -0.5 -14t-4.5 -14q-5 0 -41 1.5t-65 1.5q-25 0 -56.5 -1.5t-36.5 -1.5q-2 4 -2.5 15t1.5 13
q30 5 42 10q17 6 18 35q2 25 2 147q0 22 -0.5 54.5t-0.5 40.5q0 13 -7 20q-8 10 -48 25q-1 3 1 13t3 11q19 1 61.5 9.5t68.5 19.5q0 -20 -0.5 -81t-0.5 -94q0 -123 1 -168q0 -26 21 -33q26 -6 44 -9z" />
    <glyph glyph-name="longs_k" unicode="&#x17f;k" horiz-adv-x="700" 
d="M19 26q27 4 40 8q21 7 21 32q0 10 3 273q0 7 -6 9l-57 3q0 15 9 29q22 2 49 14q5 2 5 8q1 85 25.5 142t85.5 99q46 32 88 32q33 0 61 -11q10 -3 17 0q11 4 35 19q2 0 5.5 -3.5t3.5 -5.5q-6 -30 -6 -88q0 -18 -1 -169t-1 -202q22 2 48 24q29 24 55 58t30 48q2 11 -12 15
q-19 5 -47 7q-2 4 -1.5 15t4.5 13q117 0 187 9q3 -2 3.5 -14t-2.5 -15q-24 -5 -34 -8t-24 -10t-25 -18q-17 -17 -50.5 -55t-43.5 -49q-2 -2 -1 -5q24 -37 77 -99t82 -84q26 -20 80 -21q1 -4 -0.5 -15.5t-4.5 -13.5q-22 -6 -109 -3q-19 0 -36 13q-15 12 -38.5 40t-57.5 71.5
t-47 59.5q-11 15 -33 14q0 -86 1 -122q1 -18 6.5 -25.5t19.5 -11.5l43 -7q1 -6 -0.5 -16t-4.5 -13q-7 0 -42 1.5t-59 1.5q-27 0 -58.5 -1.5t-40.5 -1.5q-2 3 -2 15t2 14q29 4 36 7q12 4 17 10.5t6 22.5q2 31 2 161q0 294 -2 339q0 25 -10 35q-25 28 -62 28q-29 0 -50 -24
q-40 -43 -40 -200v-65q0 -37 0.5 -97.5t0.5 -105t1 -67.5q1 -31 31 -38q24 -5 36 -6q2 -3 1 -15t-4 -14q-5 0 -37 1.5t-66 1.5q-22 0 -57.5 -1.5t-44.5 -1.5q-2 2 -2.5 14t2.5 15z" />
    <glyph glyph-name="longs_l" unicode="&#x17f;l" horiz-adv-x="480" 
d="M19 26q23 2 40 8q21 6 21 32q0 10 3 274q0 7 -6 9l-57 3q0 14 9 28q27 2 49 16q5 2 5 7q1 82 26 139.5t85 100.5q48 33 90 33q32 0 59 -12q8 -3 17 0q15 6 35 19q1 0 5 -4t4 -5q-6 -30 -6 -88q0 -19 -0.5 -113t-0.5 -141q0 -222 2 -252q1 -15 2 -22.5t6 -13.5t14 -9
q20 -6 47 -9q2 -4 0.5 -14.5t-4.5 -14.5q-11 0 -49.5 1.5t-57.5 1.5q-21 0 -56 -1.5t-40 -1.5q-3 4 -2.5 15t2.5 14q30 5 40 9q16 6 17 29q4 39 4 265q0 193 -1 238q0 24 -11 35q-25 28 -63 28q-27 0 -49 -23q-40 -41 -40 -200v-99q0 -203 2 -238q1 -32 31 -38q17 -5 33 -6
q3 -2 2 -14.5t-4 -14.5q-5 0 -36 1.5t-65 1.5q-12 0 -52 -1.5t-50 -1.5q-2 3 -2 14t2 15z" />
    <glyph glyph-name="longs_longs" unicode="&#x17f;&#x17f;" horiz-adv-x="480" 
d="M18 26q33 5 40 7q23 7 23 34q1 29 1.5 129t0.5 144q0 8 -6 8l-57 3q0 17 9 30q38 7 50 13q4 1 4 7q2 145 112 220q51 36 102 36q64 0 98 -38q4 -4 6 0q30 30 64.5 44.5t59.5 14.5q54 0 73 -33v-13q-3 -9 -13.5 -25.5t-17.5 -21.5q-1 -1 -5 -1t-6 1q-44 42 -81 42
q-51 0 -63 -57.5t-12 -193.5v-11q0 -242 3 -296q1 -30 28 -36q21 -5 40 -7q2 -3 0.5 -15.5t-4.5 -13.5q-7 0 -43.5 1.5t-62.5 1.5q-13 0 -50 -1.5t-48 -1.5q-2 3 -2 14t2 15q31 5 38 7q22 6 22 32q1 27 1 126.5v149.5q0 6 -5 7l-59 3q0 14 9 30q26 2 50 14q5 2 5 10
q2 91 29 151q-37 56 -99 56q-40 0 -68 -47t-28 -155q0 -32 0.5 -170.5t1.5 -169.5t29 -38q24 -5 39 -6q1 -4 -0.5 -15.5t-3.5 -13.5q-3 0 -37 1.5t-66 1.5q-26 0 -62.5 -1.5t-40.5 -1.5q-2 3 -2.5 14t2.5 15z" />
    <glyph glyph-name="longs_longs_i" unicode="&#x17f;&#x17f;i" horiz-adv-x="741" 
d="M18 25l40 8q22 8 22 35q1 23 1 67t0.5 105t0.5 99q0 7 -5 9l-58 3q0 14 10 29q22 2 49 15q5 3 5 7q2 143 112 220q53 36 107 36q66 0 103 -43q4 -4 6 0q72 64 141 64q41 0 70 -16.5t39 -41.5q2 -9 0 -19q-9 -25 -33 -38q-3 -2 -10.5 -2.5t-11.5 2.5q-14 12 -25 25
q-36 42 -78 42q-32 0 -54 -26q-37 -40 -39 -201q0 -280 3 -334q1 -17 6.5 -25t20.5 -12q27 -6 40 -7q1 -4 -0.5 -16t-3.5 -13q-7 0 -43 1.5t-61 1.5q-14 0 -52.5 -1.5t-48.5 -1.5q-2 3 -2 14t2 15q25 3 41 8q21 7 21 32q1 24 1 68.5t0.5 105.5t0.5 99q0 7 -7 9l-57 3
q0 11 9 29q19 3 50 15q5 3 5 10q1 87 28 146q-36 62 -104 62q-42 0 -71.5 -46.5t-30.5 -161.5q0 -281 3 -335q1 -31 29 -38q23 -5 43 -6q2 -3 0.5 -15t-4.5 -14q-2 0 -39 1.5t-68 1.5q-27 0 -62.5 -1.5t-40.5 -1.5q-3 4 -3 15t3 13zM733 26q2 -3 0.5 -15t-4.5 -14
q-6 0 -44 1.5t-68 1.5q-24 0 -56 -1.5t-37 -1.5q-2 4 -2 15t2 14q24 3 41 9q10 4 13.5 11t5.5 25q2 25 2 146q0 22 -0.5 55t-0.5 41q0 13 -7 20q-8 10 -48 25q-2 10 4 23q19 1 61 9.5t69 19.5q0 -20 -0.5 -81t-0.5 -94q0 -122 1 -167q0 -27 21 -34q19 -4 48 -8z" />
    <glyph glyph-name="longs_longs_l" unicode="&#x17f;&#x17f;l" horiz-adv-x="741" 
d="M14 25q42 9 44 9q22 7 22 34q1 29 1.5 128t0.5 143q0 7 -5 9l-57 3q0 11 9 29q30 5 49 15q4 1 4 7q6 147 114 220q55 36 104 36q65 0 105 -42q4 -2 6 -1q66 64 139 64q37 0 63 -15q6 -4 12 -1q17 5 39 15q7 -4 7 -9q-8 -28 -8 -87q-1 -50 -1 -250q0 -226 2 -253
q2 -22 5.5 -30.5t16.5 -13.5q20 -6 46 -9q2 -4 0 -14.5t-5 -14.5q-11 0 -48.5 1.5t-56.5 1.5q-20 0 -57 -1.5t-43 -1.5q-2 3 -2 14.5t2 14.5q34 5 45 10q14 6 16 27q4 39 4 265q0 216 -3 247q0 19 -13 31q-27 26 -68 26q-31 0 -55 -28q-36 -40 -38 -200q3 -332 3 -334
q1 -32 27 -37q28 -6 38 -7q2 -4 0.5 -16.5t-4.5 -12.5q-7 0 -42 1.5t-60 1.5q-26 0 -59 -1.5t-40 -1.5q-3 3 -3 14t3 15q28 3 39 7q21 7 21 34q1 23 1 68t0.5 107t0.5 100q0 4 -6 6l-57 3q0 12 9 30q30 5 48 13q6 2 6 8q2 89 26 146q3 4 -1 10q-37 55 -100 55
q-102 0 -102 -215q0 -292 2 -328q1 -30 29 -37q30 -7 39 -7q2 -3 0.5 -14.5t-4.5 -14.5q-1 0 -36 1.5t-67 1.5q-27 0 -64.5 -1.5t-42.5 -1.5q-2 3 -2 14t2 14z" />
    <glyph glyph-name="t_t" unicode="tt" horiz-adv-x="561" 
d="M547 62q1 -4 0 -15t-3 -14q-39 -45 -100 -45q-63 0 -87 48q-14 26 -14 114q0 31 0.5 100.5t0.5 87.5q0 8 -6 9h-181q-4 0 -4 -6q-2 -90 0 -185q0 -48 7 -71q12 -39 58 -39q35 0 62 16q1 -3 -0.5 -14.5t-2.5 -14.5q-36 -45 -100 -45q-61 0 -87 48q-14 26 -14 114
q0 31 0.5 100.5t0.5 87.5q0 8 -6 9q-4 0 -15 1t-21.5 1.5t-17.5 1.5q-1 9 8 28q35 7 48 15q4 4 4 7v82q45 23 65 46q3 1 9 1.5t8 -0.5q-5 -43 -5 -128q0 -6 4 -6h181q5 2 5 7v93q11 5 33.5 20.5t31.5 24.5q3 1 9 1.5t7 -0.5q-5 -40 -5 -140q0 -6 5 -6q90 0 122 4
q-8 -33 -9 -54q-12 0 -53 0.5t-61 0.5q-5 0 -5 -6v-54v-75v-56q1 -53 7 -71q13 -39 59 -39q35 0 62 16z" />
    <glyph glyph-name="u0162_u0068" unicode="&#x162;h" horiz-adv-x="1015" 
d="M172 26q31 3 66 10q23 4 29.5 19.5t8.5 53.5q3 117 3 454q0 10 -8 10q-26 3 -140 0q-23 0 -37 -22q-16 -24 -40 -92q-4 -2 -17 1t-14 7q14 86 19 160q3 6 12 3q28 -15 80 -15l456 1q5 0 5 5v39q0 7 5 7q22 1 69 15q6 -2 6 -6q0 -2 -0.5 -14.5t-1 -39.5t-0.5 -59v-213
q0 -3 4 -1q80 60 138 60q59 0 92 -42t33 -117q0 -144 1 -188q0 -16 13 -23q16 -8 51 -13q2 -3 0.5 -15t-4.5 -14q-2 0 -40.5 2t-65.5 1q-89 -3 -91 -3q-2 3 -2.5 14.5t2.5 14.5q30 4 40 7q11 4 14.5 13t4.5 39q3 152 -4 194q-5 28 -27.5 50t-66.5 22q-43 0 -80 -27
q-12 -9 -12 -24q0 -193 2 -221q2 -25 6.5 -33.5t19.5 -13.5q32 -5 38 -6q3 -3 2 -14.5t-3 -14.5q-3 0 -42.5 1.5t-61.5 1.5q-18 0 -55.5 -1.5t-45.5 -1.5q-3 3 -3 14.5t3 14.5q29 3 40 7q13 4 17 12.5t5 30.5q2 48 2 166q0 105 -0.5 176t-0.5 102.5v41.5q-2 10 -9 11
q-34 1 -117 0.5t-99 -1.5q-6 -2 -6 -9q0 -406 4 -474q1 -26 8 -36.5t24 -15.5t66 -11q2 -3 1 -15t-5 -14q-135 3 -146 3q-61 0 -145 -3q-4 4 -3.5 15t3.5 14zM332 -34q17 0 33.5 -20t16.5 -52q0 -44 -31 -76.5t-83 -45.5q-3 1 -7.5 10t-3.5 13q37 16 52.5 32t15.5 37
q0 36 -56 52q-2 2 -2 8.5t2 8.5q7 9 27.5 21t35.5 12z" />
    <glyph glyph-name="Tcaron_h" unicode="&#x164;h" horiz-adv-x="1015" 
d="M172 26q31 3 66 10q23 4 29.5 19.5t8.5 53.5q3 117 3 454q0 10 -8 10q-26 3 -140 0q-23 0 -37 -22q-16 -24 -40 -92q-4 -2 -17 1t-14 7q14 86 19 160q3 6 12 3q28 -15 80 -15l456 1q5 0 5 5v39q0 7 5 7q22 1 69 15q6 -2 6 -6q0 -2 -0.5 -14.5t-1 -39.5t-0.5 -59v-213
q0 -3 4 -1q80 60 138 60q59 0 92 -42t33 -117q0 -144 1 -188q0 -16 13 -23q16 -8 51 -13q2 -3 0.5 -15t-4.5 -14q-2 0 -40.5 2t-65.5 1q-89 -3 -91 -3q-2 3 -2.5 14.5t2.5 14.5q30 4 40 7q11 4 14.5 13t4.5 39q3 152 -4 194q-5 28 -27.5 50t-66.5 22q-43 0 -80 -27
q-12 -9 -12 -24q0 -193 2 -221q2 -25 6.5 -33.5t19.5 -13.5q32 -5 38 -6q3 -3 2 -14.5t-3 -14.5q-3 0 -42.5 1.5t-61.5 1.5q-18 0 -55.5 -1.5t-45.5 -1.5q-3 3 -3 14.5t3 14.5q29 3 40 7q13 4 17 12.5t5 30.5q2 48 2 166q0 105 -0.5 176t-0.5 102.5v41.5q-2 10 -9 11
q-34 1 -117 0.5t-99 -1.5q-6 -2 -6 -9q0 -406 4 -474q1 -26 8 -36.5t24 -15.5t66 -11q2 -3 1 -15t-5 -14q-135 3 -146 3q-61 0 -145 -3q-4 4 -3.5 15t3.5 14zM338 661q-9 -6 -21 -6q-9 9 -58.5 50t-70.5 56q0 4 6.5 13.5t9.5 9.5q4 0 56.5 -23t63.5 -30q7 -2 10 0
q17 9 63 31t50 22q3 0 8.5 -9.5t4.5 -13.5q-114 -92 -122 -100z" />
    <glyph glyph-name="gamma_gamma" unicode="&#x3b3;&#x3b3;" horiz-adv-x="829" 
d="M6 291q-2 2 -3.5 15t0.5 16q29 42 68.5 64.5t68.5 22.5q129 0 122 -298q0 -3 4 -3q1 0 2 3q36 151 106 241q52 57 108 57q68 0 98 -72t28 -228q0 -3 3 -4q2 0 3 2l1 2q45 178 105 253q35 46 68 46q16 0 35.5 -15t20.5 -20q3 -11 -4 -16q-48 -3 -94 -59t-73.5 -120.5
t-41.5 -123.5q-10 -40 -10 -56q-10 -212 -10 -213q-4 -9 -20 -9q-11 0 -37.5 19.5t-26.5 30.5q0 12 8 44.5t19.5 75t13.5 51.5q6 28 6 51q2 115 -29 196.5t-93 81.5q-30 0 -58 -25.5t-48 -69t-34 -84t-25 -85.5q-12 -48 -12 -69q-18 -227 -20 -234q-4 -9 -19 -9t-40.5 19
t-25.5 29q0 17 21 92.5t29 97.5q8 28 8 63q0 48 -6.5 93.5t-21 88.5t-42 69t-65.5 26q-42 0 -87 -37z" />
    <glyph glyph-name="u03BB_u03BB" unicode="&#x3bb;&#x3bb;" horiz-adv-x="772" 
d="M343 -16q-39 0 -62 48q-11 23 -27 80t-33 122.5t-20 75.5h-5q-48 -85 -96 -246q-9 -40 -7 -76q0 -7 -6 -7q-16 0 -33 6t-27 13t-9 12q0 27 39 105q16 36 63.5 131t58.5 120q4 11 2 22q-7 34 -24 80q-22 61 -47.5 85.5t-62.5 24.5q-34 0 -57 -13q-3 1 -5 10t0 12
q16 24 46 41.5t59 17.5q46 0 76 -44.5t71 -177.5q62 -213 83 -274q18 -50 30.5 -67t25.5 -17q16 0 38 39q66 126 111 262q4 11 2 23q-10 57 -30 104q-43 112 -124 112q-37 0 -75 -25q-3 1 -5.5 9.5t-0.5 11.5q54 74 125 74q51 0 86.5 -47t75.5 -177q13 -43 45 -150t46 -148
q17 -44 31.5 -66.5t24.5 -27.5t24 -5q18 0 36 11q2 -2 2 -13.5t-3 -14.5q-44 -52 -102 -52q-27 0 -46 39q-21 44 -85 272h-4q-50 -136 -109 -240q-18 -34 -43.5 -54.5t-52.5 -20.5z" />
    <glyph glyph-name=".notdef" horiz-adv-x="495" 
d="M0 0v693h495v-693h-495zM248 391l168 253h-337zM277 347l169 -253v505zM79 50h337l-168 252zM50 599v-505l168 253z" />
    <glyph glyph-name=".null" horiz-adv-x="0" 
 />
    <glyph glyph-name="nonmarkingreturn" horiz-adv-x="333" 
 />
    <glyph glyph-name="space" unicode=" " horiz-adv-x="190" 
 />
    <glyph glyph-name="exclam" unicode="!" horiz-adv-x="299" 
d="M201 616q17 0 19 -9q0 -10 -6 -80t-15.5 -174t-14.5 -165q-3 -2 -16.5 1t-15.5 6q-5 57 -14.5 146t-16.5 154t-8 83q-1 5 3.5 14t9.5 11q42 13 75 13zM171 98q23 0 36 -13q18 -17 18 -43q0 -22 -16 -38q-16 -17 -43 -17q-22 0 -37 14q-15 18 -15 41q0 24 16 41
q16 15 41 15z" />
    <glyph glyph-name="quotedbl" unicode="&#x22;" horiz-adv-x="302" 
d="M255 626q0 -41 -7 -97t-13 -70q-8 -24 -27 -41q-1 -1 -5.5 -1.5t-5.5 0.5q-2 174 -15 210q5 6 29.5 22.5t30.5 16.5h9q4 -7 4 -40zM120 619q0 -40 -6.5 -97t-12.5 -70q-8 -22 -27 -41l-3 -1h-5h-3q-2 175 -15 215q4 4 27.5 19t31.5 16l9 -1q4 -8 4 -40z" />
    <glyph glyph-name="numbersign" unicode="#" horiz-adv-x="453" 
d="M289 447l29 133q4 4 35 12q3 0 6 -3l-31 -139q0 -3 3 -3q72 0 95 3q1 -3 -2 -15t-5 -15q-27 -30 -100 -31q-5 0 -5 -4l-22 -104q0 -4 3 -4q70 0 92 4q1 -2 -1 -13t-4 -15q-32 -37 -101 -37q-1 0 -4 -5q-18 -99 -29 -142q0 -3 -6 -3q-2 0 -14.5 8.5t-13.5 10.5
q16 71 28 131h-93q-4 0 -4 -4l-33 -144q-2 -3 -7 -3q-4 2 -15 10t-12 10q3 14 14 61t15 70q-77 0 -91 3q-1 4 8.5 32.5t12.5 30.5q38 -5 83 -5l25 112q-66 0 -88 4q-2 6 7.5 31t14.5 27q35 -3 78 -3l25 122q0 1 16.5 7t19.5 6t5 -4l-27 -126q0 -5 3 -5zM277 389h-89
q-5 0 -7 -4l-22 -103q0 -5 3 -5h91z" />
    <glyph glyph-name="dollar" unicode="$" horiz-adv-x="476" 
d="M143 472q0 -39 21 -63t62 -48q4 -2 6 3l20 203q0 5 -3 5q-52 -3 -79 -31.5t-27 -68.5zM253 247l-21 -210q0 -4 2 -4q47 1 78.5 25.5t33.5 74.5q1 39 -20.5 65t-67.5 52q-5 2 -5 -3zM184 -91l8 85q0 5 -3 5q-62 2 -128 28q-12 18 -23 129q1 3 14 7t16 2q20 -68 47 -94
t78 -36q1 -1 3 0t2 3l22 223q0 5 -4 7q-74 39 -110 77t-36 98q0 74 51 116t131 42q4 0 5 3l7 73q3 2 17 4.5t19 1.5l-9 -79q0 -4 4 -4q5 0 66 -8q37 -6 54 -7q-9 -42 -18 -121q-2 -4 -14.5 -5t-14.5 3q-2 56 -19.5 78.5t-57.5 28.5q-4 0 -4 -4l-23 -216q0 -5 4 -7
q40 -20 60 -32t47.5 -33.5t39.5 -47.5t12 -59q0 -69 -50 -116.5t-145 -53.5q-5 0 -5 -5l-8 -82q-5 -2 -18 -3.5t-17 -0.5z" />
    <glyph glyph-name="percent" unicode="%" horiz-adv-x="698" 
d="M130 12q80 118 222 331t181 270q11 7 40 11q6 -2 6 -9q-18 -24 -205 -304.5t-223 -329.5q-1 -1 -4 -1.5t-4 0.5q-3 3 -8 15.5t-5 16.5zM542 347q52 0 82.5 -44t30.5 -104q0 -97 -55 -147q-49 -42 -105 -42q-52 0 -83 42.5t-31 103.5q0 90 49 142q51 49 112 49zM513 309
q-35 0 -51 -35.5t-16 -82.5q0 -72 23.5 -106t55.5 -34q73 0 73 115q0 60 -21.5 101.5t-63.5 41.5zM205 599q53 0 82.5 -43.5t29.5 -101.5q0 -104 -56 -150q-49 -42 -104 -42q-51 0 -83 43.5t-32 105.5q0 87 50 139q49 49 113 49zM174 562q-35 0 -50.5 -35.5t-15.5 -83.5
q0 -71 23.5 -105.5t56.5 -34.5q72 0 72 113q0 60 -21.5 103t-64.5 43z" />
    <glyph glyph-name="ampersand" unicode="&#x26;" horiz-adv-x="711" 
d="M286 622q55 0 91.5 -34.5t36.5 -86.5q0 -39 -27 -70.5t-99 -79.5q-1 -1 -1.5 -2.5t0.5 -2.5q23 -23 80.5 -72t106.5 -84q4 -4 6 0q32 46 56 119q11 28 -11 37q-14 6 -51 11q-4 1 -3 14t4 15q4 0 37.5 -1.5t57.5 -1.5q25 0 48 0.5t37 1.5t17 1q2 -3 2 -15t-3 -15
q-28 -4 -40 -8q-24 -7 -40 -32q-13 -22 -31 -55t-30 -54t-23 -35q-1 -1 0 -3.5t2 -2.5q130 -96 151 -120q0 -13 -15.5 -42.5t-24.5 -39.5q-2 -2 -8.5 -2.5t-7.5 1.5q-5 10 -30 35l-120 96q-1 2 -4 0q-91 -110 -209 -110q-85 0 -137 49.5t-52 126.5q0 41 28 76.5t106 89.5
q3 3 1 5q-57 67 -57 137q0 67 46.5 110.5t109.5 43.5zM211 304h-6q-24 -22 -36.5 -35t-23.5 -36.5t-11 -50.5q0 -60 43 -98t106 -38q37 0 74.5 17t63.5 48q3 5 1 7q-157 130 -211 186zM268 590q-30 0 -51 -24.5t-21 -67.5q0 -69 64 -127q4 -3 7 0q79 60 79 128
q0 34 -21 62.5t-57 28.5z" />
    <glyph glyph-name="quotesingle" unicode="'" horiz-adv-x="169" 
d="M122 622q0 -42 -7 -99.5t-13 -70.5q-8 -24 -27 -41q-7 -3 -12 -1q0 168 -15 215q4 4 28.5 19t32.5 16q8 0 9 -1q4 -7 4 -37z" />
    <glyph glyph-name="parenleft" unicode="(" horiz-adv-x="405" 
d="M87 267q0 162 68 288.5t177 202.5q4 -1 11 -10.5t6 -13.5q-90 -82 -140.5 -189t-50.5 -262q0 -145 46.5 -266.5t134.5 -199.5q1 -4 -7 -14t-12 -10q-28 12 -65 49.5t-76 96t-65.5 146t-26.5 182.5z" />
    <glyph glyph-name="parenright" unicode=")" horiz-adv-x="405" 
d="M318 283q0 -163 -68 -288.5t-177 -201.5q-4 1 -11.5 10.5t-6.5 13.5q92 84 141.5 189t49.5 262q0 304 -181 466q-1 4 7.5 13.5t11.5 10.5q29 -13 66 -50.5t76 -95.5t65.5 -146t26.5 -183z" />
    <glyph glyph-name="asterisk" unicode="*" horiz-adv-x="362" 
d="M209 548q34 10 121 47q2 0 4.5 -3.5t1.5 -5.5q-13 -31 -18 -34q-24 -13 -100 -41q14 -14 52 -42.5t54 -35.5q1 -1 -1.5 -6t-4.5 -6q-6 -3 -20.5 -3.5t-23.5 2.5q-23 12 -52 34l-30 21q-23 -104 -23 -129q-2 -1 -7 -1q-8 3 -18 14.5t-9 24.5q2 23 17 103q-86 -31 -126 -43
q-5 0 -5 7q18 32 29 36q27 11 89 34q-11 8 -42.5 38.5t-42.5 43.5q-3 2 -3 6t2 5q23 17 38 17q29 -37 77 -77q16 90 25 109q1 3 18.5 7.5t24.5 4.5q4 0 4 -6q-2 -5 -31 -121z" />
    <glyph glyph-name="plus" unicode="+" horiz-adv-x="547" 
d="M503 255q-8 -40 -17 -41q-5 -1 -35.5 -1h-75t-71.5 -1q-7 0 -7 -9q-1 -34 -0.5 -74.5t0.5 -76t-1 -38.5q-1 -5 -19 -12t-27 -8q-6 0 -8 2v40v79.5v96.5q-73 -1 -197 -1q-1 0 -1 10q4 31 12 47q5 -1 116 -1h70v68q0 100 -2 128q30 12 51 12q6 0 6 -35v-163q0 -10 6 -10
h199q1 -1 1 -12z" />
    <glyph glyph-name="comma" unicode="," horiz-adv-x="204" 
d="M-1 -162q-4 4 -2 6q84 77 83 154q-1 35 -30 79q3 8 27 31.5t33 27.5q2 2 9.5 2t9.5 -2q9 -7 17 -29.5t9 -50.5q1 -65 -40 -130t-90 -96q-11 -2 -26 8z" />
    <glyph glyph-name="hyphen" unicode="-" horiz-adv-x="286" 
d="M50 234q53 0 198 5v-10q-1 -10 -6.5 -28t-8.5 -19q-6 -3 -91 -5.5t-104 -1.5l-1 9q1 12 5.5 31t7.5 19z" />
    <glyph glyph-name="period" unicode="." horiz-adv-x="204" 
d="M103 105q22 0 37 -15q18 -16 18 -45q0 -24 -16 -39q-16 -17 -43 -17q-21 0 -36 15q-17 17 -17 43q0 22 18 42q18 16 39 16z" />
    <glyph glyph-name="slash" unicode="/" horiz-adv-x="455" 
d="M403 685q5 -2 5 -7q-9 -32 -142.5 -368.5t-169.5 -402.5q-3 -6 -19.5 -14t-25.5 -10q-6 0 -8 7q50 105 163.5 392t150.5 389q1 3 20 8.5t26 5.5z" />
    <glyph glyph-name="zero" unicode="0" horiz-adv-x="476" 
d="M255 608q73 0 118 -51q71 -80 71 -241q0 -192 -92 -278q-52 -50 -121 -50t-114 39q-85 74 -85 263q0 165 75 251q60 67 148 67zM231 570q-38 0 -62 -30q-22 -28 -35.5 -85.5t-13.5 -125.5q0 -148 33.5 -224t96.5 -76q35 0 55 23q50 60 50 236q0 137 -33 209.5t-91 72.5z
" />
    <glyph glyph-name="one" unicode="1" horiz-adv-x="476" 
d="M386 25q2 -2 0.5 -14t-4.5 -14q-9 0 -53 1.5t-81 1.5q-38 0 -87 -1.5t-57 -1.5q-3 2 -3 14t3 15q42 4 61 7q22 4 29.5 16.5t7.5 38.5q3 69 3 216q0 141 -3 198q-4 28 -27 30q-36 3 -58 3q-2 3 -1 13.5t3 12.5q39 4 86 18.5t73 28.5q11 3 13 -4q-5 -39 -5 -240
q0 -215 3 -272q2 -27 8.5 -40.5t25.5 -17.5q4 -1 63 -9z" />
    <glyph glyph-name="two" unicode="2" horiz-adv-x="476" 
d="M176 535q-66 0 -127 -75q-4 -1 -12.5 8t-7.5 12q26 48 76.5 88t111.5 40q68 0 113.5 -49.5t45.5 -127.5q0 -96 -111 -218q-23 -27 -43 -49t-43 -46t-33 -35q-1 -2 -1 -3.5t1.5 -3t2.5 -1.5q54 -8 200 -5q17 0 34 18t42 71q5 2 14.5 -2.5t11.5 -8.5q-6 -27 -23.5 -77
t-29.5 -67q-5 -7 -48 -7q-36 -1 -131.5 1t-132.5 2q-26 0 -50 -2q-4 4 -4 22q57 52 91 87t81 95q85 110 85 205q0 54 -28 91t-85 37z" />
    <glyph glyph-name="three" unicode="3" horiz-adv-x="476" 
d="M234 608q60 0 99 -40t40 -97q0 -74 -88 -134q-1 -1 -1 -2.5t1 -2.5q141 -44 141 -158q0 -53 -27 -97t-72 -73q-72 -46 -153 -46q-55 0 -87 16q-19 11 -31 35q-15 35 -18 74q1 3 11 8.5t13 4.5q25 -54 61 -77q34 -21 92 -21q50 0 87 33t37 97q1 64 -41.5 105.5
t-112.5 41.5q-21 0 -36 -3q-2 3 4.5 19.5t9.5 18.5q131 28 131 124q0 46 -27 76.5t-74 30.5q-60 0 -117 -57q-2 0 -5.5 5t-6.5 11.5t-3 8.5q32 39 77.5 69t95.5 30z" />
    <glyph glyph-name="four" unicode="4" horiz-adv-x="476" 
d="M458 171q-16 0 -50 0.5t-51 0.5q-3 0 -5 -6l2 -192q-56 -2 -86 -10q2 132 2 203q0 5 -4 5h-253q-1 3 0.5 16t2.5 16q34 49 153.5 211.5t132.5 182.5q5 2 25 5t24 2v-368q0 -6 5 -6q57 0 115 2q-13 -41 -13 -62zM88 231q40 -2 86 -2h92q4 0 4 6l4 264q0 1 -1.5 1.5
t-2.5 -0.5q-24 -33 -98 -138.5t-85 -125.5q-1 -2 -0.5 -3.5t1.5 -1.5z" />
    <glyph glyph-name="five" unicode="5" horiz-adv-x="476" 
d="M369 611q2 0 7 -4t4 -7q-3 -13 -16 -34.5t-27 -34.5q-15 -14 -34 -14q-5 0 -107 6q-7 0 -13 -9q-23 -44 -34 -82q-4 -11 4 -14q10 -5 53.5 -27.5t77 -41.5t55.5 -35q81 -58 81 -145q0 -90 -74.5 -150.5t-160.5 -60.5t-131 49q-14 14 -14 32q0 8 6 26t12 26q1 1 6 3t7 1
q55 -92 157 -92q51 0 82.5 31t31.5 82q0 46 -18 77t-66 65q-32 23 -92 53.5t-70 37.5q-2 3 -3 14.5t1 15.5q12 43 44 115.5t48 94.5q15 13 22 12q7 0 48.5 -3t62.5 -2q30 0 50 15z" />
    <glyph glyph-name="six" unicode="6" horiz-adv-x="476" 
d="M436 623q-219 -105 -281 -266q-1 -2 0 -4t3 -1q86 43 132 43q62 0 108 -52t46 -129q0 -128 -107 -195q-50 -32 -106 -32q-95 0 -145.5 64.5t-50.5 156.5q0 139 105.5 261t283.5 181q4 -2 9 -12.5t3 -14.5zM228 339q-40 0 -71 -21q-18 -9 -24 -30q-9 -28 -9 -64
q0 -95 38.5 -146t97.5 -51q46 0 73.5 38t27.5 104q0 82 -38 126t-95 44z" />
    <glyph glyph-name="seven" unicode="7" horiz-adv-x="476" 
d="M444 598q2 -1 3.5 -5.5t0.5 -6.5q-18 -63 -140 -326.5t-130 -286.5q-1 -4 -6 -4q-7 1 -20 7t-17 10t0 13q18 39 77 157.5t106.5 218t58.5 135.5q0 5 -3 5q-172 4 -246 -2q-22 -2 -35 -15t-36 -61q-3 -2 -15 1.5t-13 7.5q26 80 38 158q24 -8 79 -8h193q81 0 105 2z" />
    <glyph glyph-name="eight" unicode="8" horiz-adv-x="476" 
d="M253 608q66 0 110.5 -41t44.5 -104q0 -36 -23 -67t-82 -71q-1 -1 -1 -2.5t1 -2.5q70 -45 98 -79.5t28 -84.5q0 -67 -58.5 -117t-137.5 -50q-93 0 -139 46t-46 103q0 36 23.5 67.5t100.5 85.5q2 1 2.5 3t-1.5 3q-100 68 -100 151q0 72 58 118q54 42 122 42zM233 574
q-40 0 -64 -25t-24 -67q0 -44 28 -73.5t95 -68.5q5 -4 9 0q62 52 62 115q0 53 -29.5 86t-76.5 33zM254 23q41 0 68.5 24t27.5 68q0 49 -31 82t-112 79q-1 1 -4 1t-5 -1q-41 -35 -58 -62.5t-17 -62.5q0 -52 36.5 -90t94.5 -38z" />
    <glyph glyph-name="nine" unicode="9" horiz-adv-x="476" 
d="M76 -54q-4 1 -9 12t-4 15q112 52 175 122.5t96 160.5q1 2 -1 3t-3 0q-79 -50 -144 -50q-62 0 -108 52.5t-46 130.5q0 53 24.5 100t68.5 77q58 38 123 38q88 0 140 -68t52 -169q0 -146 -102.5 -259.5t-261.5 -164.5zM220 570q-48 0 -77.5 -38t-29.5 -99q0 -81 39.5 -122.5
t98.5 -41.5q43 0 76 21q14 9 18 23q6 29 6 59q0 84 -36.5 141t-94.5 57z" />
    <glyph glyph-name="colon" unicode=":" horiz-adv-x="269" 
d="M135 104q22 0 37 -15q18 -16 18 -44q0 -24 -15 -39q-17 -17 -43 -17q-21 0 -36 15q-17 17 -17 42q0 24 18 42q16 16 38 16zM135 359q23 0 37 -14q18 -16 18 -45q0 -25 -15 -39q-17 -17 -43 -17q-21 0 -36 15q-17 17 -17 43q0 24 18 41q16 16 38 16z" />
    <glyph glyph-name="semicolon" unicode=";" horiz-adv-x="269" 
d="M136 359q22 0 36 -14q19 -16 19 -45q0 -24 -16 -39q-14 -17 -43 -17q-23 0 -36 16q-17 14 -17 42q0 24 18 41q18 16 39 16zM27 -162q-5 4 -3 6q89 79 86 157q0 29 -30 76q3 8 27 31.5t34 27.5q2 2 9.5 1.5t9.5 -2.5q7 -5 16 -27t10 -52q1 -62 -41 -128.5t-92 -97.5
q-11 -2 -26 8z" />
    <glyph glyph-name="less" unicode="&#x3c;" horiz-adv-x="547" 
d="M463 404q-15 -12 -125.5 -70t-176.5 -91q-4 -2 0 -6q10 -6 87.5 -45.5t149 -77.5t82.5 -48q3 -3 -4.5 -21t-12.5 -26q-3 -3 -8 -3q-30 22 -176.5 97t-215.5 104q-1 4 4.5 20.5t8.5 17.5q74 35 222 113.5t171 96.5q4 0 6 -5q0 -10 -4 -31.5t-8 -24.5z" />
    <glyph glyph-name="equal" unicode="=" horiz-adv-x="547" 
d="M487 303l-441 -1q-1 0 -2.5 3.5t-0.5 5.5q3 28 13 48q10 -2 115 -2h331q4 -4 2 -10q-8 -41 -17 -44zM485 122l-438 -1q-3 0 -3 9q4 30 12 49q10 -3 115 -3h330q2 -2 2 -10q-1 -7 -8 -25t-10 -19z" />
    <glyph glyph-name="greater" unicode="&#x3e;" horiz-adv-x="547" 
d="M83 77q38 28 302 160q4 3 0 7q-10 6 -87.5 45.5t-149 77.5t-82.5 48q-3 2 4.5 20t12.5 26q3 6 8 3q30 -22 177 -97.5t215 -103.5q1 -4 -4 -20t-9 -18q-76 -36 -223 -113.5t-170 -95.5q-4 0 -6 4q0 10 4 32t8 25z" />
    <glyph glyph-name="question" unicode="?" horiz-adv-x="365" 
d="M174 280q0 -8 10.5 -24.5t26.5 -30.5q2 -1 1.5 -6t-2.5 -7q-5 -5 -21 -13.5t-23 -9.5q-11 -3 -21 0q-21 10 -33.5 28t-12.5 37q0 21 11 32q9 9 57.5 47t58.5 47q23 20 23 47q0 35 -35 67.5t-91 41.5q-6 1 -18.5 2.5t-13.5 1.5q-12 2 -12 14q0 7 8.5 24.5t16.5 26.5
q9 11 33 11q63 0 119 -45q59 -47 59 -112q0 -43 -22 -69q-12 -13 -53.5 -44t-51.5 -40q-14 -10 -14 -26zM179 98q23 0 37 -14q17 -16 17 -43q0 -21 -15 -37q-16 -17 -44 -17q-21 0 -36 15t-15 40q0 24 16 40q18 16 40 16z" />
    <glyph glyph-name="at" unicode="@" horiz-adv-x="840" 
d="M572 47q59 0 107 56.5t48 163.5q0 137 -77 209t-196 71q-37 0 -77.5 -11.5t-86.5 -40.5t-82 -73t-60 -117.5t-24 -164.5q0 -130 52 -205t127 -98q42 -12 76 -9q1 -2 1 -8t-1 -9q-24 -18 -72 -18q-20 0 -49 11t-65 37.5t-67 64t-51.5 97.5t-20.5 130q0 181 120 311
q136 147 320 147q71 0 128.5 -26.5t92 -69.5t53 -93.5t18.5 -102.5q0 -75 -27.5 -137t-70 -98.5t-89.5 -56t-90 -19.5q-49 0 -42 69q3 37 11 76q0 2 -1.5 2t-2.5 -1q-48 -66 -101.5 -106.5t-85.5 -40.5q-28 0 -40 31.5t-12 69.5q0 63 24 124t66 105q31 34 87 63t112 29
q44 0 84 -10q-16 -36 -25 -70q-13 -54 -26 -133.5t-14 -108.5q0 -40 29 -40zM344 66q49 0 126 113q18 28 30 74q23 91 26 98q-14 10 -57 10q-74 0 -120 -80q-38 -67 -38 -149q0 -66 33 -66z" />
    <glyph glyph-name="A" unicode="A" horiz-adv-x="613" 
d="M-22 26q55 7 74 21.5t43 71.5q85 203 167 440q14 37 17 57h11q12 -1 22 -1q9 0 16.5 0.5t11.5 0.5h5q8 -31 16 -52q132 -377 166 -457q22 -50 38 -62t70 -19q3 -3 1.5 -14.5t-3.5 -14.5q-78 3 -122 3q-68 0 -131 -3q-2 3 -3 14.5t2 14.5q37 5 55 11q17 8 11 25
q-20 73 -60 172q-2 7 -9 7h-94h-83q-7 0 -10 -9q-52 -141 -54 -162q-1 -15 5 -22.5t27 -13.5q20 -5 48 -8q2 -3 1 -14.5t-3 -14.5q-6 0 -51 1.5t-77 1.5q-33 0 -67.5 -1.5t-39.5 -1.5q-3 3 -3 14.5t3 14.5zM291 512q-5 0 -5 -1q-5 -14 -35 -99.5t-40 -116.5q0 -6 4 -7
q10 -1 80 -1q57 0 67 1q2 0 3 2.5t0 5.5q-42 129 -74 216z" />
    <glyph glyph-name="B" unicode="B" horiz-adv-x="573" 
d="M32 590q-3 2 -2.5 14t3.5 14q7 0 44.5 -1.5t70.5 -1.5q28 0 78 1t83 1q30 0 57 -5.5t55.5 -19.5t46 -43.5t17.5 -71.5t-26.5 -76t-70.5 -52q-4 -2 0 -4q63 -15 102 -53.5t39 -100.5q0 -118 -125 -172q-58 -25 -155 -25q-9 0 -99 2t-129 1q-4 2 -4.5 14.5t3.5 14.5
q57 6 64 8q17 5 23.5 15t8.5 36q2 32 2 227q0 208 -1 227q-1 34 -27 42q-16 5 -58 9zM248 582q-20 0 -35 -3q-8 -4 -8 -16q-3 -87 -3 -206q0 -5 5 -5q22 -2 62 -2q60 0 81 12q47 28 47 93q0 127 -149 127zM305 32q62 0 96.5 34.5t34.5 102.5q0 71 -48 109t-133 38
q-41 0 -48 -2q-5 0 -5 -4q0 -185 3 -226q4 -27 23 -38q22 -14 77 -14z" />
    <glyph glyph-name="C" unicode="C" horiz-adv-x="673" 
d="M567 457q-7 59 -19 81.5t-41 36.5q-45 22 -124 22q-108 0 -168 -74t-60 -202q0 -127 69.5 -211t197.5 -84q73 0 110 34q32 26 75 98q4 0 13.5 -5.5t10.5 -10.5q-8 -33 -33.5 -79t-42.5 -56q-73 -25 -153 -25q-166 0 -256.5 86.5t-90.5 243.5q0 85 40 159t119 116
q84 46 203 46q50 0 119.5 -9.5t77.5 -10.5q-14 -84 -16 -154q-3 -3 -16.5 -4.5t-14.5 2.5z" />
    <glyph glyph-name="D" unicode="D" horiz-adv-x="709" 
d="M27 590q-2 3 -0.5 14.5t3.5 13.5q10 0 58 -1.5t63 -1.5q26 0 84.5 2t109.5 2q133 0 214 -70q95 -83 95 -227q0 -174 -128 -261q-96 -68 -239 -68q-31 0 -105 2t-114 2h-50q-3 4 -3 15.5t3 13.5q42 3 65 10q30 8 33 48q3 63 3 234q0 177 -3 213q-1 25 -9 35t-27 15
q-21 5 -53 9zM207 95q2 -29 20 -40q29 -22 108 -22q89 0 146 53q78 73 78 219q0 161 -114 237q-62 41 -177 41q-38 0 -51 -5q-10 -5 -11 -18q-1 -11 -1 -243q0 -200 2 -222z" />
    <glyph glyph-name="E" unicode="E" horiz-adv-x="558" 
d="M37 591q-4 3 -3 13.5t4 14.5q9 0 55 -2t78 -2h197q83 0 111 4q4 -4 4 -5q-11 -40 -18 -137q-3 -4 -16 -4t-15 2q-3 32 -11 61q-6 19 -16 27.5t-34 10.5q-14 1 -78.5 1t-74.5 -1q-5 -1 -8.5 -8t-3.5 -11q-1 -56 -1 -212q0 -7 5 -7q99 -2 153 2q25 2 34 30q7 18 11 40
q4 2 17 1.5t16 -4.5q-7 -47 -7 -94q0 -41 2 -91q-4 -4 -17 -4.5t-17 3.5q-4 30 -8 41q-8 27 -34 29q-21 2 -72.5 2.5t-77.5 -0.5q-5 0 -5 -8q0 -152 2 -200q0 -30 23 -38q24 -6 148 -6q31 1 45.5 8t28.5 25q23 26 50 88q4 1 15 -3t14 -8q-4 -25 -17.5 -70.5t-24.5 -66.5
q-5 -9 -16 -12.5t-46 -3.5q-39 0 -122 2t-138 2q-37 0 -89 -1.5t-69 -1.5q-3 2 -3.5 13.5t2.5 15.5q61 6 76 10q18 4 25 15.5t9 38.5q1 19 1 242q0 180 -1 198q-2 28 -7 37.5t-23 13.5q-17 5 -53 10z" />
    <glyph glyph-name="F" unicode="F" horiz-adv-x="532" 
d="M33 590q-3 2 -2 14t3 14q6 0 49 -1.5t74 -1.5h236q63 0 96 5q2 0 5 -6q-11 -39 -15 -141q-2 -4 -15.5 -5t-16.5 3q-7 43 -15 68q-12 33 -45 34q-138 4 -169 0q-12 -2 -12 -18q-2 -116 -2 -226q0 -5 5 -5q130 0 162 2q30 2 40 32q7 18 12 44q5 2 17.5 1t16.5 -4
q-6 -46 -6 -100q0 -40 2 -96q-4 -4 -15.5 -4t-16.5 2q-4 19 -12 44q-9 31 -35 32t-87.5 2t-77.5 0q-5 0 -5 -5q0 -144 2 -186q1 -26 7.5 -37t27.5 -16q17 -3 67 -9q3 -3 2.5 -14.5t-3.5 -14.5q-11 0 -59 1.5t-90 1.5q-34 0 -74.5 -1.5t-54.5 -1.5q-3 2 -3 14t3 15q32 3 53 8
t27 15t8 38q1 36 1 228q0 184 -2 215q-1 26 -5.5 35t-20.5 15q-20 6 -57 10z" />
    <glyph glyph-name="G" unicode="G" horiz-adv-x="704" 
d="M633 41q1 -2 -0.5 -10.5t-2.5 -10.5q-125 -38 -218 -38q-175 0 -266 85t-91 244q0 98 46.5 172.5t129.5 111.5q82 38 195 38q48 0 119.5 -10.5t78.5 -11.5q-16 -75 -18 -159q-2 -4 -15.5 -5t-17.5 2q-6 56 -16.5 81.5t-32.5 38.5q-48 28 -136 28q-114 0 -172.5 -74
t-58.5 -201q0 -135 71 -220t202 -85q47 0 67 13q18 9 22 42q4 40 2 102q-2 26 -9 36.5t-28 16.5q-15 3 -67 10q-4 2 -3 14.5t4 14.5q12 0 59 -1.5t81 -1.5q49 0 109 3q2 -2 2 -15t-3 -15q-24 -4 -33 -7q-24 -7 -25 -48q-3 -84 0 -111q1 -12 5 -17.5t20 -11.5z" />
    <glyph glyph-name="H" unicode="H" horiz-adv-x="748" 
d="M29 590q-3 3 -2.5 14t3.5 14q8 0 52.5 -1.5t75.5 -1.5q38 0 77 1.5t48 1.5q2 -4 2 -15t-3 -13q-39 -6 -48 -9q-16 -5 -21.5 -14t-6.5 -32q-1 -19 -1 -186q0 -8 5 -10q14 -2 170 -2q151 1 157 2q6 0 6 6q0 165 -2 201q-2 26 -20 33q-19 6 -59 11q-4 3 -3.5 14t4.5 15
q8 0 51.5 -2t73.5 -2q29 0 74.5 1.5t49.5 1.5q2 -3 2.5 -14t-2.5 -14q-35 -5 -52 -10q-16 -5 -21 -15.5t-7 -38.5q-2 -35 -2 -213q0 -197 2 -231q2 -21 8 -31t20 -14q18 -7 64 -11q3 -3 1.5 -15t-5.5 -14q-12 0 -59 1.5t-75 1.5q-49 0 -127 -3q-3 3 -3 14t3 15q40 5 57 10
q14 4 19.5 13.5t6.5 32.5q1 29 1 201q0 7 -6 7q-19 1 -159 1q-160 0 -170 -1q-3 0 -3 -6q0 -170 1 -191q2 -27 7.5 -38.5t23.5 -16.5q30 -8 60 -12q3 -4 1 -15.5t-5 -13.5q-4 0 -48 1.5t-82 1.5q-34 0 -81 -1.5t-52 -1.5q-3 3 -3 14.5t2 14.5q29 4 54 9q20 6 26.5 20.5
t8.5 52.5q0 10 0.5 83t0.5 123q0 185 -2 221q-2 21 -7.5 30.5t-20.5 13.5q-11 4 -60 11z" />
    <glyph glyph-name="I" unicode="I" horiz-adv-x="322" 
d="M30 590q-3 3 -2 14.5t3 13.5q7 0 53.5 -1.5t76.5 -1.5q29 0 72 1.5t52 1.5q2 -3 2.5 -13.5t-1.5 -14.5q-42 -6 -51 -8q-16 -4 -21.5 -14.5t-7.5 -35.5q-2 -28 -2 -213q0 -195 2 -230q1 -24 7.5 -36t27.5 -17q16 -5 59 -10q3 -3 2 -15t-4 -14q-9 0 -55 1.5t-74 1.5
q-32 0 -79 -1.5t-60 -1.5q-4 2 -4 14.5t3 14.5q34 3 51 8q20 4 26.5 13.5t8.5 29.5q4 28 4 262q0 147 -3 194q-1 15 -2.5 22.5t-7 14t-15.5 9.5q-11 4 -61 11z" />
    <glyph glyph-name="J" unicode="J" horiz-adv-x="320" 
d="M31 590q-3 3 -2.5 14.5t3.5 13.5q9 0 53.5 -1.5t85.5 -1.5q32 0 71.5 1.5t50.5 1.5q3 -2 3 -14t-4 -14q-40 -6 -54 -12q-18 -7 -20 -39q0 -8 -1.5 -199.5t-3.5 -242.5q-5 -123 -37 -182q-36 -68 -89 -107t-103 -39q-26 0 -46.5 9t-27.5 23v7l-1 7q4 36 20 65
q62 -43 107 -43q36 0 58 25q34 41 34 161q1 90 0.5 278t-2.5 221q-1 17 -3 25.5t-9 18t-20 13.5q-16 5 -63 11z" />
    <glyph glyph-name="K" unicode="K" horiz-adv-x="643" 
d="M203 324q0 -156 1 -226q2 -34 8.5 -46t25.5 -17q27 -5 56 -9q3 -3 2 -15t-4 -14q-14 0 -63 1.5t-77 1.5q-27 0 -73 -1.5t-50 -1.5q-2 2 -2 14t2 15q47 6 55 8q19 5 25 17t8 42q3 68 1 229q0 184 -1 213q-2 24 -7.5 33t-24.5 14q-18 4 -50 8q-4 3 -4 14t4 14q6 0 47 -1.5
t79 -1.5q29 0 70 1.5t51 1.5q2 -3 2 -13.5t-2 -14.5q-46 -9 -50 -10q-16 -4 -21 -14.5t-7 -37.5q-1 -44 -1 -204zM374 590q-3 3 -2.5 14t3.5 14q14 0 51 -1.5t64 -1.5q36 0 120 3q3 -2 3 -13.5t-4 -14.5q-46 -7 -69 -18.5t-53 -44.5q-43 -48 -180 -191q-1 -2 0 -5
q30 -45 117 -140t135 -133q20 -16 40 -22q28 -9 69 -10q3 -3 1.5 -15t-5.5 -14q-25 -3 -86 -1t-79 8q-19 7 -41 26q-33 30 -107 114t-117 139q-6 8 -19 16q-1 3 0 9t2 7q32 12 94.5 76t113.5 128q20 27 20 42q0 12 -19 18q-20 7 -52 11z" />
    <glyph glyph-name="L" unicode="L" horiz-adv-x="550" 
d="M30 590q-3 3 -2 14.5t5 13.5q10 0 50 -1.5t78 -1.5q39 0 79.5 1.5t44.5 1.5q4 -3 4 -14t-4 -14q-25 -3 -51 -9q-17 -4 -21.5 -13t-5.5 -27q-1 -16 -3 -216q0 -207 3 -250q1 -22 19 -28q32 -11 167 -8q35 2 59 37q31 42 59 110q6 1 16.5 -2.5t13.5 -8.5q-6 -32 -23 -89
t-29 -78q-7 -13 -41 -13t-148.5 2.5t-138.5 2.5q-27 0 -81.5 -1.5t-61.5 -1.5q-3 2 -3.5 14.5t3.5 14.5q44 4 66 9q16 4 22.5 13.5t8.5 27.5q4 54 4 255q0 166 -2 192q-1 32 -6.5 43t-25.5 15q-24 6 -55 9z" />
    <glyph glyph-name="M" unicode="M" horiz-adv-x="853" 
d="M41 590q-3 2 -2 14t4 14q9 0 66 -1.5t116 -1.5q4 -26 19 -58q149 -331 190 -403q2 -2 4 1q15 27 90 183t104 224q15 35 17 53q56 0 109 1.5t68 1.5q3 -2 3 -13.5t-3 -14.5q-60 -10 -65 -11q-28 -8 -28 -40q-1 -46 3 -221t8 -227q2 -28 9.5 -39.5t29.5 -17.5q13 -3 55 -8
q3 -4 2.5 -14t-3.5 -15q-7 0 -52 1.5t-80 1.5q-55 0 -133 -3q-2 3 -2.5 14.5t2.5 14.5q40 7 54 11q27 7 27 43q2 140 -4 416q-2 3 -5 0q-7 -16 -59.5 -127.5t-101.5 -219.5t-64 -150q-2 -1 -14 -2t-15 0q-11 37 -53.5 138.5t-96.5 224.5t-60 138q-3 3 -5 -2
q-19 -272 -20 -394q0 -31 6 -45t27 -20q15 -5 63 -11q3 -3 2 -15t-5 -14q-6 0 -47 1.5t-71 1.5q-32 0 -74.5 -1.5t-46.5 -1.5q-3 3 -2.5 14.5t2.5 14.5q45 7 49 8q23 7 31 20.5t13 50.5q17 126 36 427q0 34 -28 44q-21 7 -69 14z" />
    <glyph glyph-name="N" unicode="N" horiz-adv-x="734" 
d="M15 590q-2 2 -1.5 14t3.5 14q9 0 53 -1.5t72 -1.5q37 0 45 1q7 -17 36 -54q225 -282 355 -434q2 -1 4 1q0 338 -4 396q-2 24 -9.5 35.5t-28.5 17.5q-27 8 -67 12q-3 3 -2.5 14.5t2.5 13.5q9 0 53.5 -1.5t79.5 -1.5q20 0 61 1.5t45 1.5q3 -2 3 -13.5t-3 -14.5
q-25 -4 -44 -10q-31 -11 -34 -54q-2 -28 -8 -394q0 -71 2 -137q-8 1 -34 1t-35 -1q-54 78 -388 495q-1 1 -2.5 0.5t-1.5 -1.5q-2 -75 -1.5 -214t2.5 -179q1 -29 11 -42t30 -18q13 -4 60 -10q3 -3 2 -14.5t-4 -14.5q-8 0 -50.5 1.5t-74.5 1.5q-36 0 -75 -1.5t-45 -1.5
q-2 2 -2 14.5t2 14.5q29 3 53 9q36 11 38 59q6 73 9 425q0 34 -27 49q-24 16 -80 22z" />
    <glyph glyph-name="O" unicode="O" horiz-adv-x="746" 
d="M367 -18q-141 0 -226 91q-86 95 -86 240q0 108 62 193q41 57 115 92t152 35q74 0 133.5 -25.5t97 -69.5t57 -99.5t19.5 -117.5q0 -123 -61 -208q-45 -63 -115.5 -97t-147.5 -34zM405 26q66 0 107 35q84 68 84 225q0 85 -29 156t-86 111q-58 40 -131 40q-51 0 -90 -22
q-53 -31 -80 -93.5t-27 -141.5q0 -84 32 -159.5t95 -116.5q54 -34 125 -34z" />
    <glyph glyph-name="P" unicode="P" horiz-adv-x="546" 
d="M255 250q-9 6 -13 24q0 7 4 9q14 -3 39 -3q40 0 70 15q61 34 61 129q0 73 -39 116t-121 43q-33 0 -42 -5q-7 -4 -8 -14q-2 -46 -2 -237q0 -215 1 -241q2 -27 9 -36.5t28 -14.5q11 -3 60 -9q3 -3 2 -15t-3 -14q-13 0 -65 1.5t-73 1.5q-26 0 -74 -1.5t-57 -1.5
q-3 3 -3 14.5t2 13.5q49 7 53 8q18 5 23.5 16.5t7.5 41.5q3 51 3 224q0 199 -1 214q-2 27 -9 38t-27 15q-24 5 -49 8q-3 4 -2 14.5t4 13.5q4 0 47.5 -1.5t70.5 -1.5q30 0 81.5 1t80.5 1q85 0 133 -38q62 -49 62 -135q0 -64 -31 -108.5t-75 -65.5q-49 -25 -105 -25
q-28 0 -43 5z" />
    <glyph glyph-name="Q" unicode="Q" horiz-adv-x="746" 
d="M941 -126q-88 -72 -203 -72q-64 0 -144 43q-35 19 -83 50t-74 47q-58 35 -101 41q-96 13 -158 58q-123 87 -123 269q0 110 54 186q44 64 119.5 100.5t158.5 36.5q137 0 220.5 -89t83.5 -223q0 -145 -83 -236q-57 -60 -137 -87q25 -7 96 -41q161 -80 239 -80q76 -1 132 28
q3 -2 4 -14t-1 -17zM350 593q-66 0 -112 -38t-65.5 -94t-19.5 -124q0 -137 70 -226t187 -89q82 0 134 73.5t52 192.5q0 129 -62.5 217t-183.5 88z" />
    <glyph glyph-name="R" unicode="R" horiz-adv-x="612" 
d="M30 590q-3 3 -2 14.5t4 13.5q11 0 55 -1.5t60 -1.5q41 0 95.5 1t70.5 1q84 0 131.5 -44t47.5 -110q0 -110 -114 -161q-4 -4 -2 -7q30 -48 79.5 -114.5t83.5 -101.5q30 -31 49.5 -40t65.5 -15q2 -3 0 -15t-6 -13q-110 -5 -160 19q-25 12 -48 40q-22 27 -76.5 108.5
t-60.5 90.5q-11 15 -25 15q-7 1 -71 1q-4 0 -4 -6q0 -148 2 -181q1 -25 8 -34.5t24 -13.5q24 -5 56 -9q4 -3 3 -14.5t-5 -14.5q-4 0 -49 1.5t-84 1.5q-38 0 -80.5 -1.5t-46.5 -1.5q-4 3 -4 14.5t4 14.5q40 5 51 8q18 4 25.5 15.5t8.5 39.5q2 46 2 214q0 202 -1 233
q-1 21 -8 31.5t-25 14.5q-26 5 -54 8zM247 583q-22 0 -35 -5q-7 -5 -7 -15q-2 -34 -2 -248q0 -5 5 -5q103 -3 129 8q65 30 65 116q0 149 -155 149z" />
    <glyph glyph-name="S" unicode="S" horiz-adv-x="483" 
d="M73 172q27 -95 72 -126q36 -27 98 -27q43 0 75 26.5t32 78.5q0 46 -28.5 76t-102.5 74q-75 43 -112 85t-37 105q0 78 56 123.5t141 45.5q41 0 94.5 -8.5t57.5 -8.5q-9 -44 -17 -138q-2 -4 -14.5 -4.5t-14.5 3.5q-8 83 -39 103q-29 21 -81 21q-49 0 -76.5 -31t-28.5 -71
q0 -39 16.5 -64.5t51.5 -49.5q23 -15 68.5 -39.5t55.5 -30.5q96 -61 96 -148q0 -77 -60 -131t-162 -54q-82 0 -144 31q-6 9 -15.5 64t-12.5 86q1 4 14 7.5t17 1.5z" />
    <glyph glyph-name="T" unicode="T" horiz-adv-x="641" 
d="M462 26q2 -4 1 -16t-5 -13q-10 0 -62 1.5t-87 1.5q-43 0 -93.5 -1.5t-57.5 -1.5q-3 4 -2.5 15t2.5 14q53 5 71 10q23 4 30 19.5t8 52.5q4 104 4 458q0 8 -7 8q-40 2 -129 0q-26 -2 -42 -28q-11 -18 -39 -93q-3 -2 -16.5 1t-14.5 7q16 86 20 165q0 1 4.5 3t6.5 1
q30 -15 81 -15h370q64 0 97 15q8 0 10 -5q-11 -38 -23 -169q-2 -4 -16 -4t-16 3q-5 64 -16 89q-11 28 -39 29q-94 2 -140 0q-5 -2 -5 -8q0 -424 3 -475q2 -26 9.5 -37t24.5 -16q16 -5 68 -11z" />
    <glyph glyph-name="U" unicode="U" horiz-adv-x="705" 
d="M25 590q-3 2 -2.5 14t3.5 14q5 0 52.5 -1.5t74.5 -1.5q26 0 67 1.5t51 1.5q3 -2 3 -14t-3 -14l-47 -9q-17 -5 -23 -16t-7 -37q-3 -168 1 -286q3 -71 19 -102q16 -45 60.5 -73t112.5 -28q35 0 61.5 7t52 25t41 56t18.5 95q8 146 2 290q-1 37 -10.5 50.5t-34.5 18.5
q-6 2 -13.5 3t-18.5 3t-19 3q-3 3 -2.5 14.5t3.5 13.5q4 0 45 -1.5t75 -1.5q26 0 64 1.5t43 1.5q2 -2 2.5 -14t-2.5 -14q-6 -2 -21 -5t-21 -5q-21 -6 -28 -21.5t-8 -52.5q-1 -46 -2.5 -106.5t-2.5 -86.5t-2.5 -59.5t-4.5 -54t-8 -41.5q-14 -64 -53 -105t-85.5 -56
t-103.5 -15q-219 0 -241 181q-5 38 -6.5 202.5t-1.5 165.5q-2 40 -28 49q-7 2 -52 10z" />
    <glyph glyph-name="V" unicode="V" horiz-adv-x="623" 
d="M-17 590q-3 3 -2 15t5 13q10 0 54 -1.5t68 -1.5q36 0 81 1.5t47 1.5q4 -2 4.5 -14t-3.5 -14q-20 -4 -52 -11q-23 -5 -14 -31q23 -65 86 -233.5t77 -202.5q3 0 5 1q22 51 80.5 200.5t77.5 208.5q9 28 4 41t-27 17l-54 10q-2 3 -1 15t4 13q2 0 41.5 -1.5t76.5 -1.5
q30 0 63.5 1.5t41.5 1.5q3 -2 3 -13.5t-3 -14.5q-27 -5 -44 -10q-22 -7 -33 -23t-31 -63q-27 -61 -148 -362q-34 -84 -52 -141q-30 6 -60 0q-16 61 -43 136q-96 259 -141 374q-18 42 -30 57.5t-34 22.5q-22 5 -47 9z" />
    <glyph glyph-name="W" unicode="W" horiz-adv-x="876" 
d="M-25 590q-2 3 -1.5 15t4.5 14q16 0 61.5 -2t72.5 -2q76 1 120 3q3 -2 3.5 -14t-3.5 -14q-37 -8 -50 -12q-21 -7 -15 -39q26 -113 109 -400q2 0 4 1q117 320 152 447q29 -4 53 0q16 -61 70.5 -218t85.5 -237q2 -2 5 1q84 259 111 381q8 25 4 42t-25 23q-24 6 -59 11
q-4 3 -3.5 14.5t3.5 13.5q10 0 51.5 -1.5t64.5 -1.5q39 0 74.5 1.5t40.5 1.5q3 -2 3 -14t-3 -14q-31 -6 -44 -11q-19 -7 -30 -20t-22 -42q-69 -189 -168 -523q-42 0 -51 -1q-16 58 -71 218t-86 242q-2 0 -4 -2q-122 -338 -159 -457q-6 1 -25 0.5t-26 -1.5q-24 100 -72 275.5
t-71 245.5q-11 33 -21.5 46.5t-29.5 18.5q-19 6 -53 11z" />
    <glyph glyph-name="X" unicode="X" horiz-adv-x="615" 
d="M626 26q4 -2 3 -14.5t-5 -14.5q-1 0 -52 2t-92 1q-26 0 -53.5 -1t-45 -1.5t-23.5 -0.5q-3 2 -3.5 14.5t2.5 14.5q30 4 48 10q19 5 8 24q-29 61 -117 201q-1 2 -3 2t-3 -1q-100 -147 -126 -198q-12 -22 13 -28q15 -5 51 -10q3 -3 1.5 -15t-4.5 -14q-9 0 -54.5 2t-66.5 1
q-22 0 -60 -1.5t-50 -1.5q-3 2 -3 14.5t3 14.5q36 4 61 12q21 6 36 19.5t37 41.5q23 30 141 200q2 4 0 8q-81 141 -123 207q-16 24 -21.5 31.5t-18.5 18t-31 15.5q-19 6 -58 11q-4 3 -3.5 14.5t3.5 13.5q17 0 59.5 -1.5t73.5 -1.5q75 0 114 3q4 -2 4 -13.5t-3 -14.5l-40 -8
q-12 -4 -8 -17q9 -21 109 -189q4 -4 6 0q84 127 107 176q9 21 -9 27q-6 2 -55 11q-2 4 -0.5 15t4.5 13q10 0 47 -1.5t63 -1.5q32 0 69 1.5t41 1.5q2 -2 2.5 -14t-2.5 -14q-31 -4 -48 -9q-24 -7 -42.5 -23t-49.5 -61q-46 -66 -106 -156q-3 -3 0 -8q110 -183 125 -206
q34 -52 51 -68.5t42 -23.5q22 -5 55 -9z" />
    <glyph glyph-name="Y" unicode="Y" horiz-adv-x="564" 
d="M-18 590q-2 3 -1.5 14t3.5 14q10 0 54 -1.5t70 -1.5q75 0 111 3q4 -2 4.5 -13.5t-3.5 -14.5q-32 -6 -36 -7q-18 -6 -7 -28q19 -41 64.5 -128.5t61.5 -114.5q5 0 6 1q28 46 69.5 121.5t54.5 108.5q15 32 -20 39q-7 2 -22.5 4t-24.5 4q-3 4 -2 15.5t5 12.5q90 -3 110 -3
q55 0 106 3q4 -1 4 -13.5t-3 -14.5l-42 -8q-22 -6 -36 -19t-34 -45q-78 -121 -140 -243q-8 -18 -8 -35q0 -38 2 -140q1 -34 7 -48t26 -18q16 -4 61 -9q2 -3 1 -14.5t-4 -13.5q-8 0 -56.5 1.5t-81.5 1.5q-41 0 -88 -1.5t-56 -1.5q-3 2 -3 14t3 14q50 6 68 10q19 5 26 17.5
t8 37.5q1 49 1 129q0 29 -8 48q-26 60 -120 231q-29 50 -43 64t-41 21q-4 1 -46 7z" />
    <glyph glyph-name="Z" unicode="Z" horiz-adv-x="592" 
d="M575 174q-3 -23 -22 -85t-31 -83q-5 -10 -47 -10q-39 0 -333 4q-4 0 -45 -1t-56 -2q-1 1 -2.5 9t-0.5 10q63 82 202.5 287.5t173.5 267.5q1 1 0 3.5t-2 2.5q-154 3 -248 -3q-38 -2 -59 -33q-15 -24 -42 -91q-3 -3 -16 1.5t-14 7.5q16 71 26 166q1 2 7.5 3t7.5 0
q17 -13 82 -13h229q112 0 141 3q3 -3 3 -15q-16 -28 -68.5 -109t-103 -157.5t-114.5 -173t-76 -114.5q-1 -1 0 -3.5t2 -2.5q46 -8 248 -5q33 0 56 23q32 32 73 125q3 2 15.5 -3t13.5 -9z" />
    <glyph glyph-name="bracketleft" unicode="[" horiz-adv-x="385" 
d="M119 739h202q0 -2 0.5 -11.5t-1.5 -20.5t-6 -11q-58 -2 -143 -2q-6 0 -6 -7q-5 -40 -5 -402q0 -342 5 -401q3 -18 10 -20q17 -5 153 -5q2 -4 -0.5 -23t-7.5 -20q-99 -3 -169 0q-27 2 -38 9l1 908q0 6 5 6z" />
    <glyph glyph-name="backslash" unicode="\" horiz-adv-x="438" 
d="M79 691q1 0 3.5 -0.5t3.5 -0.5q234 -637 309 -798q-3 -7 -8 -7q-42 10 -50 22q-18 33 -77 184t-128.5 334t-90.5 235q9 14 38 31z" />
    <glyph glyph-name="bracketright" unicode="]" horiz-adv-x="386" 
d="M267 -185q-52 -2 -201 -2q-2 0 -2 11t2 22t6 11q116 0 144 4q2 0 4 3.5t2 5.5q5 37 5 397q0 345 -5 404q-3 19 -10 20q-9 1 -37 1t-64 0.5t-54 0.5q-3 4 0 23.5t8 19.5q80 2 194 2q8 0 14 -8v-909q0 -1 -2.5 -3.5t-3.5 -2.5z" />
    <glyph glyph-name="asciicircum" unicode="^" horiz-adv-x="468" 
d="M104 272q-9 -13 -51 -13q-7 0 -7 6q15 20 83.5 155.5t84.5 174.5q1 1 17 6t19 5q24 -55 88 -179.5t83 -150.5q0 -2 -2 -6q-6 -5 -28 -12t-24 -5q-9 9 -39 65t-61.5 117.5t-35.5 69.5l-6 1l-1 -1q-98 -208 -120 -233z" />
    <glyph glyph-name="underscore" unicode="_" horiz-adv-x="555" 
d="M565 -182v-51h-569v51h569z" />
    <glyph glyph-name="grave" unicode="`" horiz-adv-x="400" 
d="M173 615q25 -52 59 -157q-1 -4 -11 -9t-13 -4q-18 21 -58 75.5t-53 73.5q-3 5 3 11q8 3 36.5 7.5t36.5 2.5z" />
    <glyph glyph-name="a" unicode="a" horiz-adv-x="406" 
d="M252 260q0 38 -15 59q-26 38 -76 38q-27 0 -40 -10q-18 -13 -42 -72q-1 -2 -8.5 1t-14 9t-6.5 10q2 11 10.5 33t12.5 26q31 22 71.5 38.5t59.5 16.5q64 0 99 -53q23 -38 23 -99q0 -27 -2 -89t-2 -80q0 -40 38 -40q20 0 35 5q1 -3 -0.5 -15.5t-3.5 -14.5q-32 -35 -82 -35
q-39 0 -51 26q-3 4 -8 25q0 1 -1.5 1.5t-2.5 -0.5q-83 -52 -119 -52q-28 0 -55 25q-34 37 -34 88q0 13 6.5 31.5t11.5 25.5q17 9 93.5 32.5t95.5 32.5q6 3 6 10q1 4 1 27zM251 189q0 1 -2 3t-3 1q-108 -38 -119 -46q-3 -2 -6.5 -13t-3.5 -19q0 -30 19 -49t51 -19q28 0 51 16
q9 5 11 23q2 21 2 103z" />
    <glyph glyph-name="b" unicode="b" horiz-adv-x="489" 
d="M290 409q70 0 113 -52q44 -49 44 -127q0 -123 -89 -187q-31 -23 -74 -39t-74 -16q-42 0 -89 14q-21 6 -46 -1q-2 0 -4.5 2.5t-2.5 3.5q4 68 4 243q0 282 -5 335q-1 22 -21 28q-15 6 -50 9q-3 4 -2.5 13.5t4.5 12.5q86 5 157 30q2 0 4.5 -5.5t1.5 -7.5q-12 -18 -12 -196
v-109q0 -1 2.5 -2t3.5 0q86 51 135 51zM236 352q-42 0 -75 -22q-8 -6 -10 -15q-2 -15 -1.5 -93t2.5 -107q1 -39 17 -55q31 -26 82 -26q48 0 78 35q36 41 36 118q0 72 -32 118q-37 47 -97 47z" />
    <glyph glyph-name="c" unicode="c" horiz-adv-x="405" 
d="M383 67q-33 -41 -77.5 -60t-81.5 -19q-92 0 -143 69q-39 56 -39 134q0 117 101 177q66 41 127 41q46 0 82 -15q25 -13 30 -26q0 -8 -2 -16q-4 -11 -15.5 -24.5t-18.5 -16.5q-2 -1 -5 -1t-5 1q-53 53 -110 53q-53 0 -80 -39.5t-27 -95.5q0 -79 37 -123q42 -52 113 -52
q62 0 114 48q5 0 5 -6q0 -22 -5 -29z" />
    <glyph glyph-name="d" unicode="d" horiz-adv-x="497" 
d="M485 48q3 -16 -5 -27q-21 -10 -66.5 -23.5t-63.5 -14.5q-5 0 -7 13q-2 16 -2 49q0 4 -5 4q-35 -25 -75 -42t-65 -17q-67 0 -109 53q-45 54 -45 142q0 47 19.5 90t53.5 71q32 26 83 44.5t97 18.5q1 0 45 -4q4 0 4 4q0 149 -2 174q-3 26 -21 32q-19 6 -58 10
q-3 4 -1.5 14.5t5.5 12.5q89 0 162 26q2 -1 4 -6.5t1 -7.5q-10 -16 -11 -75q-4 -108 -4 -287q0 -198 1 -220q0 -14 3 -21.5t6.5 -9.5t9.5 -3q12 -2 46 0zM239 366q-46 0 -75 -29q-43 -40 -43 -121q0 -78 37.5 -121t96.5 -43q45 0 78 27q8 8 8 21q1 17 2 90.5t0 106.5
q-2 32 -22 46q-30 23 -82 23z" />
    <glyph glyph-name="e" unicode="e" horiz-adv-x="420" 
d="M381 96q3 -3 4 -6q2 -16 -5 -27q-31 -35 -76.5 -55t-82.5 -20q-76 0 -122 48q-57 57 -57 159q0 122 88 181q51 33 108 33q65 0 98.5 -44t41.5 -98q2 -7 15 -11q1 -3 -2.5 -12t-5.5 -11q-60 -17 -262 -22q-6 -1 -6 -11q4 -62 41 -102q43 -44 109 -44q62 0 114 42zM207 371
q-36 0 -60 -31t-28 -84q0 -7 5 -7q24 -2 89.5 0.5t80.5 5.5q5 5 5 9q-4 41 -29 74t-63 33z" />
    <glyph glyph-name="f" unicode="f" horiz-adv-x="262" 
d="M20 26l40 7q20 7 20 35q0 11 3 269q0 9 -6 9l-57 3q0 17 10 29q33 6 49 16q4 2 4 7q1 84 24 141t82 99q51 37 96 37q54 0 73 -32q2 -7 0 -11q-2 -9 -15 -30.5t-19 -25.5q-3 -3 -11 -1q-46 42 -83 42q-24 0 -41 -18q-19 -20 -24.5 -62.5t-6.5 -114.5q0 -4 0.5 -12.5
t0.5 -10.5q0 -7 6 -7q65 0 107 3q-7 -30 -9 -53q-16 0 -51.5 0.5t-47.5 0.5q-2 0 -4 -3.5t-2 -5.5q2 -238 4 -266q1 -30 29 -37q23 -5 53 -8q2 -3 1 -15t-4 -14q-8 0 -47.5 1.5t-72.5 1.5q-24 0 -58.5 -1.5t-42.5 -1.5q-3 3 -3.5 14.5t3.5 14.5z" />
    <glyph glyph-name="g" unicode="g" horiz-adv-x="438" 
d="M222 409q39 0 89 -19q27 -10 57 -10q40 0 60 22q2 1 7 -2t6 -5q0 -9 -8.5 -28.5t-16.5 -27.5q-12 -12 -35 -12q-13 0 -24 1q-1 0 -2 -2t0 -3q8 -24 8 -49q0 -84 -59 -130q-47 -35 -106 -41q-13 0 -19 -2q-8 -1 -17 -8t-9 -18q0 -26 40 -30q8 -1 38.5 -3t49.5 -4
t42.5 -5.5t34.5 -7.5q70 -25 70 -98q0 -50 -32.5 -94.5t-89.5 -72.5q-55 -28 -114 -28q-72 0 -120 36q-48 39 -48 93q0 27 7 38q15 19 97 78q0 3 -1 3q-27 9 -44 27t-19 35q0 5 4 17q53 32 66 42q4 4 -1 6q-92 32 -92 142q0 73 56 116q22 17 60 31t65 13zM190 372
q-34 0 -53.5 -27.5t-19.5 -72.5q0 -53 25.5 -92t73.5 -39q29 0 46 18q27 27 27 87q0 52 -24 89t-75 37zM232 -218q65 0 97 29.5t32 70.5q0 51 -51 71q-41 17 -123 17q-18 0 -36 -10q-55 -36 -55 -78q0 -39 33 -68q39 -32 103 -32z" />
    <glyph glyph-name="h" unicode="h" horiz-adv-x="495" 
d="M8 619q-4 2 -3.5 13t3.5 13q94 8 150 33q7 -2 7 -14q-10 -20 -11 -94q-1 -62 -1 -220q0 -1 1.5 -1.5t3.5 0.5q78 60 136 60q59 0 91.5 -43t32.5 -117q0 -142 1 -186q0 -17 13 -25q11 -6 49 -12q2 -2 1 -15t-5 -14q-5 0 -40 1.5t-60 1.5q-56 0 -95 -3q-3 3 -3 14.5t2 14.5
q29 4 40 7q12 4 15.5 13.5t4.5 38.5q3 149 -4 195q-5 27 -27.5 49.5t-65.5 22.5q-41 0 -78 -27q-12 -9 -12 -24q0 -194 2 -222q2 -25 6.5 -33.5t19.5 -13.5q32 -5 38 -6q4 -3 3 -14.5t-4 -14.5q-1 0 -35.5 1.5t-69.5 1.5q-30 0 -61 -1.5t-35 -1.5q-3 3 -3 14.5t3 14.5
q23 3 36 7t17 13t5 30q2 48 2 166q0 306 -3 343q-3 24 -19 27q-12 3 -48 7z" />
    <glyph glyph-name="i" unicode="i" horiz-adv-x="238" 
d="M164 552q0 -33 -21 -49q-4 -2 -22 -3.5t-23 1.5q-21 10 -26 41q-3 21 5 29q20 18 48 18q24 0 29 -8q10 -12 10 -29zM224 26q2 -4 0.5 -15.5t-4.5 -13.5q-6 0 -39 1.5t-63 1.5q-24 0 -58.5 -1.5t-39.5 -1.5q-3 2 -3 14t3 15q25 3 43 9q9 4 12.5 11t5.5 25q2 25 2 146
q0 22 -0.5 54.5t-0.5 40.5q0 13 -7 21q-11 11 -48 24q-2 3 -0.5 12.5t4.5 11.5q65 2 130 29q0 -20 -0.5 -81t-0.5 -94q0 -122 1 -167q0 -27 21 -34q25 -6 42 -8z" />
    <glyph glyph-name="j" unicode="j" horiz-adv-x="239" 
d="M166 558q0 -32 -18 -49q-3 -3 -24.5 -6.5t-25.5 -0.5q-20 13 -25 41q-3 23 4 30q19 19 53 19q26 0 31 -10q5 -7 5 -24zM170 409q-3 -231 -3 -326q-2 -77 -9 -119q-10 -69 -54.5 -133t-87.5 -89q-13 1 -27 13q-2 5 0 9q52 35 75 93.5t23 157.5q0 282 -2 298q-2 22 -19 28
q-13 5 -51 11q-4 4 -3 15t4 14q102 6 154 28z" />
    <glyph glyph-name="k" unicode="k" horiz-adv-x="448" 
d="M230 367q-2 4 -1 15t4 13q120 0 190 9q3 -3 3 -14.5t-3 -15.5q-58 -10 -85 -37l-99 -101q-1 -1 -1 -3t1 -3q22 -35 74.5 -97t81.5 -86q17 -13 30.5 -16.5t43.5 -4.5q2 -3 0.5 -15t-4.5 -14q-9 -2 -98 -2q-24 0 -45 16q-15 12 -37.5 40t-52.5 67.5t-45 58.5q-12 16 -35 16
q0 -84 2 -123q0 -18 5.5 -25.5t19.5 -11.5q26 -5 41 -7q2 -3 1 -14.5t-5 -14.5q-6 0 -40.5 1.5t-59.5 1.5q-32 0 -64.5 -1.5t-35.5 -1.5q-3 2 -3.5 14.5t3.5 14.5q30 5 37 7q21 6 22 33q2 31 2 193q0 306 -2 331q-2 22 -17 27q-10 3 -50 7q-2 3 -1.5 13.5t2.5 12.5
q98 7 148 28q2 0 5 -4.5t3 -6.5q-9 -16 -11 -89q-2 -80 -2 -363q24 5 47 24q27 22 57 57.5t33 48.5q2 11 -12 15q-30 6 -47 7z" />
    <glyph glyph-name="l" unicode="l" horiz-adv-x="231" 
d="M14 -3q-7 18 0 29q32 5 44 10q14 7 16 28q4 43 4 264q0 218 -3 248q-3 28 -15 31q-14 4 -52 9q-3 2 -2.5 12.5t3.5 12.5q78 6 147 37q7 -2 7 -9q-9 -27 -9 -87q-1 -51 -1 -250q0 -212 3 -252q1 -22 5 -31.5t17 -13.5q16 -7 42 -9q2 -4 0.5 -14.5t-4.5 -14.5
q-5 0 -38.5 1.5t-64.5 1.5q-23 0 -59.5 -1.5t-39.5 -1.5z" />
    <glyph glyph-name="m" unicode="m" horiz-adv-x="753" 
d="M21 26q25 4 38 8q12 4 16 12.5t5 26.5q3 55 3 226q0 20 -9 28q-12 11 -47 22q-2 3 -0.5 13t4.5 11q73 8 125 37l3 -5q0 -3 -0.5 -26.5t-0.5 -31.5q0 -2 2 -2.5t4 0.5q81 64 136 64q67 0 102 -66q2 -3 7 -1q85 67 141 67q58 0 91 -42t33 -119q1 -54 1 -188q0 -15 10 -21
q11 -7 53 -13q2 -3 0 -15.5t-5 -13.5q-6 0 -37.5 1.5t-54.5 1.5q-63 0 -101 -3q-2 2 -2.5 14.5t2.5 14.5q24 4 38 9q11 4 14 13.5t4 35.5q3 158 -3 188q-5 31 -26 54t-63 23q-45 0 -88 -36q-2 -1 -2 -7q4 -25 4 -72q0 -154 1 -175q0 -17 16 -24q16 -5 43 -9q3 -3 1.5 -15
t-4.5 -14q-84 3 -101 3q-16 0 -51 -1.5t-42 -1.5q-3 2 -3 14t3 15q34 6 40 8q17 5 18 34q3 33 2.5 110.5t-4.5 98.5q-14 74 -84 74q-41 0 -81 -31q-13 -11 -13 -24q0 -210 1 -234q0 -24 21 -29q4 -1 9.5 -2t14 -2.5t14.5 -2.5q3 -3 2 -14.5t-4 -14.5q-9 0 -42 1.5t-56 1.5
q-29 0 -59 -1.5t-39 -1.5q-4 3 -4 15t4 14z" />
    <glyph glyph-name="n" unicode="n" horiz-adv-x="500" 
d="M24 26q19 3 36 7q19 6 21 35q2 31 2 164q0 50 -2 80q-4 20 -52 38q-2 5 0 13t5 10q69 7 123 37q4 -4 4 -7q-2 -22 -2 -57q0 -4 5 -2q79 65 136 65q61 0 96 -52q26 -41 26 -118q0 -146 2 -181q0 -15 10 -19q16 -8 50 -13q2 -4 1.5 -14.5t-4.5 -14.5q-2 0 -33.5 1.5
t-62.5 1.5q-27 0 -99 -3q-2 3 -2.5 14.5t2.5 14.5q29 3 41 7q17 6 18 41q3 152 -3 194q-5 40 -28 59q-25 23 -62 23q-46 0 -83 -32q-10 -10 -10 -36q0 -168 2 -214q1 -29 19 -34q12 -4 42 -8q2 -3 1 -14t-4 -15q-3 0 -34.5 1.5t-63.5 1.5q-29 0 -62.5 -1.5t-34.5 -1.5
q-3 3 -3 14.5t3 14.5z" />
    <glyph glyph-name="o" unicode="o" horiz-adv-x="492" 
d="M260 409q88 0 139 -57t51 -144q0 -124 -93 -183q-55 -37 -116 -37q-101 0 -150 63t-49 151q0 107 87 167q63 40 131 40zM226 370q-28 0 -48 -14q-51 -33 -51 -129q0 -88 39 -143t100 -55q39 0 61 21q38 35 38 126q0 87 -38 140.5t-101 53.5z" />
    <glyph glyph-name="p" unicode="p" horiz-adv-x="490" 
d="M14 348q-2 4 -1.5 13.5t3.5 12.5q69 10 134 46q1 1 4.5 -2t3.5 -5q-3 -19 -3 -63q0 -1 2 -2t3 0q89 61 143 61q58 0 99 -46q47 -53 47 -131q0 -113 -87 -184q-35 -28 -81 -44t-83 -16q-12 0 -40 6q-1 1 -3 -0.5t-2 -2.5q0 -104 3 -156q1 -32 30 -37q17 -4 60 -8
q2 -4 1 -15.5t-5 -13.5h-40q-44 0 -81.5 -2t-74.5 -6t-41 -4q-2 4 -2.5 15t2.5 15l43 10q15 5 20 14.5t7 34.5q2 53 3 253q1 155 -2 210q-1 26 -15 34q-15 8 -47 13zM249 349q-45 0 -85 -32q-10 -6 -10 -21q-1 -12 -1 -190q1 -31 20 -46q30 -24 79 -24q39 0 70 27
q46 38 46 129q0 74 -34 117q-33 40 -85 40z" />
    <glyph glyph-name="q" unicode="q" horiz-adv-x="490" 
d="M494 -239h-74q-46 -2 -99 -7t-62 -5q-3 3 -3.5 14t2.5 14q14 2 50 12q14 5 20.5 14.5t8.5 33.5l3 196q0 1 -1.5 2t-2.5 0q-28 -18 -66 -32.5t-61 -14.5q-71 0 -119 56.5t-48 144.5q0 104 80 164q36 26 87 41t97 15q60 0 126 -20q-9 -21 -12 -49q-3 -51 -3 -145
q0 -308 3 -354q2 -24 7.5 -32.5t22.5 -11.5q16 -4 47 -7q2 -3 1 -14.5t-4 -14.5zM237 365q-51 0 -82.5 -37.5t-31.5 -105.5q0 -83 41.5 -129t105.5 -46q36 0 64 17q6 3 6 13q0 209 -4 241q0 12 -10 24q-32 23 -89 23z" />
    <glyph glyph-name="r" unicode="r" horiz-adv-x="324" 
d="M276 409q34 0 47 -22q2 -7 0 -16t-13 -31.5t-18 -31.5q-4 -4 -8 -4q-37 31 -65 31q-27 0 -53 -42q-8 -16 -8 -34q0 -151 2 -191q1 -26 21 -32q23 -6 63 -10q2 -4 0.5 -15t-4.5 -14q-2 0 -47.5 1.5t-69.5 1.5q-46 0 -100 -3q-2 3 -2.5 14.5t2.5 14.5q22 2 39 8q16 6 18 28
q3 24 3 168q0 67 -1 79q-3 24 -55 42q0 19 5 22q28 3 65 14t57 23q5 0 5 -4q-2 -28 -2 -77q0 -2 1.5 -2.5t3.5 0.5q34 43 63 63q25 19 51 19z" />
    <glyph glyph-name="s" unicode="s" horiz-adv-x="345" 
d="M298 397q-6 -27 -12 -104q-2 -3 -13 -3.5t-14 1.5q-8 61 -34 76q-20 12 -49 12q-26 0 -44 -16t-18 -42t18.5 -45t74.5 -45q60 -27 82 -54.5t22 -65.5q0 -54 -44.5 -88.5t-112.5 -34.5q-61 0 -105 19q-14 47 -17 110q2 3 13.5 6.5t15.5 2.5q19 -70 59 -93q22 -12 50 -12
q31 0 49 15t18 41q0 27 -17 44.5t-64 40.5q-60 30 -85 59.5t-25 69.5q0 50 38.5 84t108.5 34q31 0 65 -6q16 -3 40 -6z" />
    <glyph glyph-name="t" unicode="t" horiz-adv-x="294" 
d="M271 345q-11 0 -52 0.5t-62 0.5q-4 0 -4 -5q-2 -90 0 -184q0 -52 6 -72q13 -39 59 -39q34 0 62 17q1 -2 0 -15t-3 -16q-35 -44 -99 -44q-62 0 -88 48q-14 26 -14 114q0 31 0.5 100t0.5 87q0 7 -6 9l-54 4q-1 4 2.5 16.5t6.5 16.5q35 5 47 11q4 0 4 7v85q43 22 64 46
q4 1 10 1.5t8 -0.5q-5 -43 -5 -132q0 -6 4 -6q85 0 122 5q-8 -36 -9 -55z" />
    <glyph glyph-name="u" unicode="u" horiz-adv-x="487" 
d="M12 361q-1 5 1 15t5 12q97 2 139 16q-6 -50 -6 -195q0 -82 5 -102q14 -58 82 -58q45 0 82 31q9 8 11 24q2 23 0 217q-2 24 -19 29q-9 3 -64 11q-2 5 0 15t5 12q105 0 159 14q-1 -8 -3 -87l-1 -226q1 -36 22 -37q6 0 42 2q1 -5 0 -15.5t-4 -13.5q-55 -22 -130 -41
q-4 0 -6 9q-1 11 -1 56q0 2 -2.5 2.5t-3.5 -0.5q-75 -63 -132 -63q-117 0 -119 135v195q-2 28 -16 34q-8 3 -46 9z" />
    <glyph glyph-name="v" unicode="v" horiz-adv-x="421" 
d="M-8 369q-2 5 -0.5 16t3.5 13q5 0 39 -1.5t59 -1.5q39 0 96 3q4 -2 4 -13.5t-2 -15.5q-25 -3 -39 -8q-12 -4 -8 -15q8 -26 45 -125.5t44 -114.5q2 -3 5 0q57 138 79 209q11 36 -8 45q-15 6 -45 9q-2 4 -0.5 16t4.5 13q2 0 34.5 -1.5t55.5 -1.5q46 0 82 3q3 -2 2.5 -14
t-2.5 -15q-29 -5 -36 -7q-23 -8 -39 -45q-31 -67 -95 -227q-18 -45 -33 -95q-30 2 -47 -1q-13 45 -29 88q-42 113 -81 209q-17 43 -24.5 53.5t-24.5 16.5q-13 4 -39 8z" />
    <glyph glyph-name="w" unicode="w" horiz-adv-x="639" 
d="M-8 369q-3 5 -2 15.5t4 13.5q4 0 37 -1.5t62 -1.5q45 0 102 3q3 -2 3 -13.5t-2 -15.5q-24 -4 -39 -8q-14 -5 -10 -19q6 -27 32 -116t37 -120q4 0 4 1q72 178 96 266q24 -4 49 1q5 -23 26 -81q41 -119 70 -190h4q15 38 41.5 117.5t32.5 108.5q2 14 -1 20.5t-16 10.5t-46 9
q-2 5 -0.5 15.5t4.5 13.5q5 0 37.5 -1.5t51.5 -1.5q30 0 87 3q3 -4 3 -14.5t-3 -14.5q-17 -3 -27 -7q-19 -6 -28 -15.5t-18 -30.5q-57 -143 -117 -321q-23 4 -49 -1q-12 42 -48 139.5t-48 125.5q-1 1 -2.5 0.5t-2.5 -1.5q-6 -15 -46 -118t-54 -145q-24 4 -48 0
q-51 194 -95 308q-12 32 -19.5 43.5t-23.5 16.5q-16 4 -38 6z" />
    <glyph glyph-name="x" unicode="x" horiz-adv-x="399" 
d="M-13 26q44 6 57.5 13.5t36.5 35.5q48 60 82 112q2 4 0 8q-45 79 -70 120q-21 32 -36 40.5t-58 13.5q-1 5 0 16.5t4 12.5q8 0 42.5 -1.5t60.5 -1.5q48 0 87 3q2 -2 3 -13.5t-1 -15.5q-28 -6 -29 -6q-10 -3 -5 -14q28 -55 55 -98q1 -1 2.5 -1t2.5 1q45 64 57 92q7 16 -8 20
q-12 3 -35 6q-2 4 -1.5 15t3.5 14q6 0 33.5 -1.5t43.5 -1.5q32 0 86 3q3 -3 3.5 -14t-1.5 -15q-42 -7 -56 -15t-39 -40q-16 -21 -65 -93q-3 -5 0 -8q35 -65 62 -105q35 -54 50 -65t65 -17q2 -4 1 -15.5t-5 -13.5q-8 0 -44 1.5t-57 1.5q-46 0 -100 -3q-3 3 -4 14t1 15
q26 4 32 7q12 6 5 17q-22 43 -60 104q-1 2 -3 2t-3 -2q-47 -70 -62 -99q-8 -16 9 -21q11 -4 37 -8q2 -4 0.5 -15t-4.5 -14q-8 0 -40.5 1.5t-52.5 1.5q-36 0 -81 -3q-3 3 -3.5 14t2.5 15z" />
    <glyph glyph-name="y" unicode="y" horiz-adv-x="431" 
d="M-8 369q-2 4 -1 16t4 13q6 0 39 -1.5t58 -1.5t61.5 1.5t40.5 1.5q3 -2 3.5 -13.5t-1.5 -15.5q-34 -7 -37 -8q-11 -4 -8 -17q12 -39 48 -133.5t42 -106.5h4q71 152 82 228q4 22 -17 29q-16 5 -44 8q-2 5 -0.5 15.5t4.5 13.5q3 0 34.5 -1.5t51.5 -1.5q9 0 93 3q3 -3 3 -14
t-2 -15q-24 -3 -36 -8q-26 -7 -39 -45q-108 -284 -236 -506q-24 -42 -31 -56l-7 -4q-11 2 -28 11t-24 16q-1 2 -1.5 8t0.5 8q106 132 147 219q0 2 -8 18q-63 163 -96 242q-20 50 -32 67.5t-33 23.5q-23 5 -34 6z" />
    <glyph glyph-name="z" unicode="z" horiz-adv-x="387" 
d="M341 397q3 -1 3 -16q-23 -46 -200 -334q-1 -2 -0.5 -4.5t2.5 -2.5q37 -8 130 -8q12 0 31 22.5t40 69.5q6 6 28 6q3 -2 3 -3q-11 -60 -35 -112q-10 -21 -29 -21q-33 0 -143.5 3.5t-130.5 2.5q-5 5 -5 18q170 260 210 338q1 2 0.5 3.5t-1.5 1.5q-101 0 -121 -3
q-20 -2 -34.5 -18t-35.5 -70q-4 -1 -14.5 1.5t-14.5 7.5q17 69 24 126q28 -10 70 -10h139q54 0 84 2z" />
    <glyph glyph-name="braceleft" unicode="{" horiz-adv-x="424" 
d="M58 292q53 1 78 21t26 53t-3 79q-7 67 -7 92q0 192 202 207q3 -1 4.5 -13.5t-0.5 -15.5q-77 -12 -109 -46.5t-32 -95.5q0 -23 6.5 -80t6.5 -83q0 -16 -1 -28t-7 -30t-17 -30.5t-31.5 -25t-49.5 -19.5q-2 -3 0 -5q39 -4 64 -18t34.5 -36t12.5 -38.5t3 -39.5q0 -32 -7 -89
t-7 -80q0 -108 143 -127q2 -3 -1 -15.5t-6 -14.5q-83 -2 -141.5 38t-58.5 118q0 11 7 102q4 54 6 92t-26 62t-97 33q-2 4 1 18t7 15z" />
    <glyph glyph-name="bar" unicode="|" horiz-adv-x="289" 
d="M112 710h65v-1020h-65v1020z" />
    <glyph glyph-name="braceright" unicode="}" horiz-adv-x="428" 
d="M368 257q-53 -1 -78.5 -21t-27.5 -53.5t3 -79.5q7 -63 7 -86q0 -101 -50.5 -150.5t-151.5 -57.5q-3 2 -5 14t0 15q78 12 110 46t32 95q0 23 -7 78t-7 81q0 104 107 134q4 4 0 6q-39 4 -64 18t-35 35.5t-12.5 37.5t-2.5 39q0 32 6.5 93t6.5 83q0 109 -143 126q-1 3 2 15
t5 14q84 2 142.5 -37t58.5 -117q0 -28 -7 -102q-4 -54 -4 -94t29 -66t94 -34q2 -5 -1 -17.5t-7 -14.5z" />
    <glyph glyph-name="asciitilde" unicode="~" horiz-adv-x="547" 
d="M200 301q32 0 99 -30q50 -26 79 -26q59 0 115 64q1 1 5.5 0t5.5 -3q0 -17 -8 -36q-17 -30 -58.5 -58.5t-87.5 -28.5q-28 0 -100 36q-42 21 -80 21q-25 0 -62.5 -23.5t-56.5 -43.5q-1 -1 -4 1.5t-3 4.5q0 22 11 39q20 28 67 55.5t78 27.5z" />
    <glyph glyph-name="uni00A0" unicode="&#xa0;" horiz-adv-x="190" 
 />
    <glyph glyph-name="exclamdown" unicode="&#xa1;" horiz-adv-x="275" 
d="M95 -214q-16 0 -19 9q0 10 6.5 80.5t16 173.5t14.5 165q3 2 16 -1t15 -6q7 -72 23 -217.5t17 -165.5q1 -6 -3.5 -14.5t-10.5 -10.5q-11 -4 -37.5 -8.5t-37.5 -4.5zM126 304q-23 0 -37 13q-17 16 -17 43q0 22 15 38q17 17 44 17q21 0 36 -14q15 -18 15 -41q0 -25 -16 -41
q-16 -15 -40 -15z" />
    <glyph glyph-name="cent" unicode="&#xa2;" horiz-adv-x="476" 
d="M236 144l30 302q0 5 -3 5q-56 -2 -90 -44t-34 -103q0 -126 97 -160zM60 273q0 55 27 102.5t79 76.5q47 27 105 34l7 74q17 8 36 6l-8 -76q45 0 80 -13q28 -12 34 -25q2 -6 -2 -17q-16 -26 -30 -33q-2 -1 -7 -1q-41 38 -76 46q-4 0 -5 -4l-30 -306q8 -1 24 -1q69 0 123 50
q1 -1 2.5 -13t0.5 -16q-60 -70 -153 -83q-3 0 -5 -4l-7 -73q-3 -2 -17 -3.5t-18 -0.5l9 78q-1 5 -4 5q-78 11 -123 67q-42 50 -42 130z" />
    <glyph glyph-name="sterling" unicode="&#xa3;" horiz-adv-x="476" 
d="M303 -26q-34 0 -109 26q-72 22 -92 22q-27 0 -66 -38q-10 0 -13 8q0 4 6 25t9 24q8 7 39 27q43 24 34 199q-61 0 -73 1q-1 1 -1 7q1 5 6 16.5t8 14.5q3 0 23 -0.5t37 -0.5q-2 142 49 209q38 48 84.5 71t68.5 23q24 0 44 -6t29 -13.5t9 -13.5q-2 -28 -18 -56q-4 -6 -10 -3
q-45 43 -97 43q-32 0 -46 -26q-16 -30 -20 -79.5t-4 -143.5q0 -5 5 -5q102 0 143 3q2 -7 -5 -18q-13 -15 -36 -20q-24 -4 -104 -4q-5 0 -5 -6q-4 -38 -9 -62.5t-21 -58.5t-43 -62q29 5 104 -9q65 -13 87 -13q48 0 69.5 17t45.5 82q1 1 4.5 1.5t4.5 -0.5q9 -14 11 -26
q-23 -77 -69 -116t-79 -39z" />
    <glyph glyph-name="currency" unicode="&#xa4;" horiz-adv-x="476" 
d="M257 464q44 0 85 -25q3 -3 6 0q6 7 15 17t14 15l10.5 10.5t9.5 8.5q3 1 22.5 3.5t23.5 1.5q4 0 4 -8q-34 -36 -71 -84q29 -46 29 -101q0 -61 -37 -113q-3 -5 0 -9q44 -53 72 -79q1 -1 -0.5 -5.5t-3.5 -5.5q-47 -8 -56 0q-34 27 -58 55q-42 -34 -99 -34t-97 35
q-13 -11 -39.5 -39.5t-27.5 -29.5q-2 -1 -5.5 -0.5t-5.5 2.5q-6 40 1 48q4 6 46 53v7q-21 42 -21 89q0 65 32 109q-26 28 -51 59q-3 3 -3 12q0 4 8.5 22.5t13.5 23.5q1 1 5 1t6 -1q37 -48 60 -71q3 -3 8 0q44 33 104 33zM229 419q-47 0 -71.5 -34t-24.5 -86q0 -68 34 -103
t84 -35q94 0 94 118q0 58 -32.5 99t-83.5 41z" />
    <glyph glyph-name="yen" unicode="&#xa5;" horiz-adv-x="476" 
d="M281 173q-4 0 -4 -4q0 -16 0.5 -45t0.5 -37q1 -29 6 -39t25 -14q25 -5 51 -8q2 -3 0.5 -14.5t-3.5 -14.5q-16 0 -56 1.5t-65 1.5q-26 0 -64 -1.5t-59 -1.5q-2 4 -2 15t2 14q42 5 53 7q18 4 23.5 14.5t6.5 35.5q2 38 2 85q0 5 -5 5q-27 0 -57.5 -0.5t-37.5 -0.5q2 24 7 34
q1 0 28 -0.5t62 -0.5q3 0 3 4v58q0 6 -5 6q-31 0 -57.5 -0.5t-29.5 -0.5q3 29 7 33h77q2 0 3 2.5t0 3.5q-34 74 -87 177q-24 48 -35.5 59t-35.5 17q-4 1 -33 6q-2 4 -2.5 14t2.5 14q6 0 41.5 -1.5t61.5 -1.5q54 0 102 4q2 -3 2.5 -14.5t-1.5 -14.5q-28 -6 -32 -7
q-10 -4 -10.5 -10.5t5.5 -17.5q66 -150 87 -187q0 -1 2 -1t3 1q61 119 85 180q12 28 -16 35l-42 7q-1 3 0.5 15.5t3.5 13.5q7 0 38.5 -2t50.5 -2q27 0 89 4q2 -3 2 -14.5t-2 -14.5q-3 -1 -13 -2.5t-17 -3.5q-36 -9 -64 -61q-64 -120 -97 -192q-5 -7 3 -7q19 0 43 0.5t36.5 1
t15.5 0.5q2 -11 -5 -33h-93q-4 0 -4 -5q0 -9 -0.5 -28.5t-0.5 -29.5q0 -5 4 -5q18 0 55 0.5t39 0.5q2 -9 -5 -33h-88z" />
    <glyph glyph-name="brokenbar" unicode="&#xa6;" horiz-adv-x="289" 
d="M111 631h67v-348h-67v348zM111 127h67v-355h-67v355z" />
    <glyph glyph-name="section" unicode="&#xa7;" horiz-adv-x="470" 
d="M244 540q-19 0 -21 -25q0 -27 16 -59q27 -56 102 -175q62 -95 62 -169q0 -66 -37 -132q-30 -52 -79.5 -87t-87.5 -35q-73 0 -123 48q-15 17 -15 28q0 18 17 50q2 2 8 2q30 -37 68 -55t57 -18q16 0 16 21q0 26 -23 64q-36 58 -75 117q-85 132 -85 220q0 105 66 184
q25 29 64 51.5t73 22.5q63 0 109 -43q14 -16 14 -28q0 -18 -17 -41q0 -2 -6 -2q-16 15 -52 38t-51 23zM266 -80q36 17 57.5 54.5t21.5 81.5q0 56 -17.5 99t-55.5 105q-2 3 -19 29.5t-22 35t-18 32.5t-18 38.5t-10.5 34.5t-6.5 38q-3 37 11 71q-39 -11 -65.5 -52.5
t-26.5 -94.5q0 -88 73 -208q5 -8 23 -35.5t29 -45t25 -43t21 -47t7 -38.5q2 -27 -9 -55z" />
    <glyph glyph-name="dieresis" unicode="&#xa8;" horiz-adv-x="400" 
d="M160 551q0 -30 -20 -45q-3 -2 -20 -3.5t-22 1.5q-19 10 -23 38q0 22 5 28q16 16 42 16q24 0 29 -8q9 -11 9 -27zM324 551q0 -31 -19 -45q-3 -2 -20 -3t-22 1q-19 10 -23 38q0 22 5 28q16 16 43 16q23 0 28 -8q8 -10 8 -27z" />
    <glyph glyph-name="copyright" unicode="&#xa9;" horiz-adv-x="741" 
d="M371 629q138 0 229 -92.5t91 -227.5q0 -136 -93.5 -229t-226.5 -93q-137 0 -229 91.5t-92 230.5q0 133 93.5 226.5t227.5 93.5zM371 598q-117 0 -199 -84t-82 -205q0 -119 82 -203.5t199 -84.5q124 0 202 82.5t78 205.5q0 120 -82 204.5t-198 84.5zM387 475
q-61 0 -91.5 -44t-30.5 -114q0 -65 35.5 -115t103.5 -50q51 0 105 69q3 -1 9 -6t7 -8q-5 -18 -22.5 -43t-25.5 -31q-52 -13 -84 -13q-96 0 -151 51.5t-55 139.5q0 77 55 133.5t158 56.5q26 0 68 -5q32 -4 51 -3q-6 -37 -8 -103q-2 -2 -12.5 -2.5t-12.5 1.5q-7 52 -32 69
q-24 17 -67 17z" />
    <glyph glyph-name="ordfeminine" unicode="&#xaa;" horiz-adv-x="290" 
d="M284 266q0 -22 -4 -26q-24 -25 -61 -25q-27 0 -37 19q-4 6 -6 17q0 1 -1.5 1.5t-2.5 -0.5q-61 -37 -84 -37q-21 0 -39 18q-24 24 -24 62q0 9 5 23.5t8 17.5q12 7 67.5 23.5t67.5 22.5q2 1 5 7v20q0 23 -11 38q-16 26 -50 26q-21 0 -29 -8q-11 -7 -31 -47q-2 -3 -20 8
q-4 3 -4 4q1 8 7 24t10 18q22 16 51 28t44 12q50 0 75 -38q17 -28 17 -70q0 -18 -2 -58t-2 -54q0 -30 24 -30q15 0 27 4zM177 355q0 3 -3 3q-70 -26 -80 -32q-8 -5 -8 -21q0 -20 13 -31.5t35 -11.5q18 0 32 11q7 4 9 17q2 20 2 65z" />
    <glyph glyph-name="guillemotleft" unicode="&#xab;" horiz-adv-x="639" 
d="M167 190q34 -19 88 -59.5t72 -59.5q7 -10 4 -37q-3 -5 -7 -5q-22 21 -115.5 78t-135.5 73q0 16 7 23q63 29 144 79t109 74l6 -6q0 -8 -3 -20.5t-5 -14.5q-14 -17 -68.5 -55.5t-95.5 -63.5q-3 -3 0 -6zM381 190q39 -22 97 -64t75 -61q7 -11 4 -38q-3 -5 -7 -5
q-23 22 -121.5 81.5t-140.5 75.5q0 17 7 24q67 30 151.5 82t113.5 78q4 -2 6 -7q0 -7 -3.5 -20t-5.5 -15q-27 -32 -176 -125q-4 -2 0 -6z" />
    <glyph glyph-name="logicalnot" unicode="&#xac;" horiz-adv-x="547" 
d="M85 286q-35 0 -35 5q8 39 17 52q11 -2 190 -2h79.5t60 0.5t40 0.5h25.5h10t3.5 -2.5t2.5 -4.5q0 -5 -0.5 -78.5t-0.5 -110.5q0 -65 2 -91q-35 -11 -52 -11q-1 0 -4 3t-3 5q0 38 -1 121.5t-1 88.5q0 24 -12 24h-321z" />
    <glyph glyph-name="uni00AD" unicode="&#xad;" horiz-adv-x="286" 
d="M50 234q53 0 198 5v-10q-1 -10 -6.5 -28t-8.5 -19q-6 -3 -91 -5.5t-104 -1.5l-1 9q1 12 5.5 31t7.5 19z" />
    <glyph glyph-name="registered" unicode="&#xae;" horiz-adv-x="305" 
d="M152 612q58 0 96.5 -38.5t38.5 -97.5t-39 -97.5t-96 -38.5q-58 0 -96 38.5t-38 97.5q0 56 39.5 96t94.5 40zM152 590q-45 0 -76.5 -33t-31.5 -81q0 -47 32 -80t77 -33q46 0 77 31.5t31 81.5q0 47 -31.5 80.5t-77.5 33.5zM85 413q-2 7 0 11q15 2 18.5 4.5t3.5 9.5v82
q0 7 -3 8.5t-17 3.5q-1 1 -1 7.5t2 6.5q4 0 14 -0.5t17 -0.5h45q42 0 42 -34q0 -24 -29 -34q20 -31 30 -41q11 -11 24 -12q1 -2 0 -7t-3 -6q-15 -3 -35 3q-9 1 -15 11q-3 3 -25 38q-4 7 -16 7v-31q0 -7 4 -9.5t18 -3.5q1 -2 1 -7t-1 -6q-2 0 -15.5 0.5t-20.5 0.5
q-9 0 -22.5 -0.5t-15.5 -0.5zM137 483q20 0 28 3q11 6 11 19q0 27 -31 27q-8 0 -8 -8v-41z" />
    <glyph glyph-name="macron" unicode="&#xaf;" horiz-adv-x="400" 
d="M106 555q12 -2 45 -2h158q0 -10 -6 -29t-9 -20q-9 -2 -173 -2q-28 0 -32 1q1 7 8 28t9 24z" />
    <glyph glyph-name="degree" unicode="&#xb0;" horiz-adv-x="294" 
d="M148 601q54 0 83.5 -33t29.5 -85q0 -49 -34 -81t-82 -32q-49 0 -82.5 30.5t-33.5 80.5q0 57 34.5 88.5t84.5 31.5zM143 557q-29 0 -49.5 -20t-20.5 -49q0 -37 22 -55.5t52 -18.5q72 0 72 68q0 30 -20.5 52.5t-55.5 22.5z" />
    <glyph glyph-name="plusminus" unicode="&#xb1;" horiz-adv-x="547" 
d="M488 13l-441 -1q-3 0 -3 9q3 29 12 47q5 -1 114 -1l331 -1q1 0 2 -3.5t0 -5.5q0 -7 -5 -25t-10 -19zM504 353q-8 -41 -16 -42h-36.5t-77 -0.5t-72.5 -0.5q-6 0 -6 -7q0 -168 -1 -176q-3 -10 -45 -20q-8 1 -8 3v25v46.5v60.5v68q-73 -1 -195 -1q-3 0 -3 9q3 27 12 48
q7 -2 115 -2h71v70q0 82 -2 110q7 3 27 8t24 5q6 0 6 -35q0 -90 -1 -149q0 -9 6 -9h199q3 -3 3 -11z" />
    <glyph glyph-name="two.k" unicode="&#xb2;" horiz-adv-x="334" 
d="M125 699q-45 0 -86 -47q-3 -1 -9 8t-5 11q19 33 54.5 58.5t75.5 25.5q46 0 77 -32.5t31 -81.5q0 -64 -69 -133q-5 -5 -77 -74q-1 -2 -0.5 -3.5t2.5 -1.5q41 -5 123 -3q22 0 49 59q3 1 12 -2.5t11 -6.5q-4 -18 -14.5 -52t-16.5 -43q-6 -12 -26 -12q-21 0 -91.5 1.5
t-99.5 1.5t-37 -1q-1 1 -2 9t0 11q8 7 23.5 20t23 19.5t19.5 18t23.5 23.5t25.5 28q53 61 53 121q0 32 -18 55t-52 23z" />
    <glyph glyph-name="three.k" unicode="&#xb3;" horiz-adv-x="333" 
d="M164 756q40 0 67 -25t28 -60q0 -50 -55 -83q-2 -2 0 -3q38 -11 64 -36t26 -63q0 -65 -67 -105q-47 -30 -105 -30q-37 0 -57 10q-12 5 -22 22q-10 24 -13 56q1 4 9 8t11 3q17 -37 39 -50q26 -16 61 -16q33 0 54.5 18.5t21.5 55.5t-26.5 62t-70.5 25q-13 0 -23 -2
q-2 2 2 14t6 14q84 16 84 73q0 27 -17.5 44.5t-45.5 17.5q-39 0 -77 -36q-4 0 -9 8t-4 11q58 67 119 67z" />
    <glyph glyph-name="acute" unicode="&#xb4;" horiz-adv-x="400" 
d="M232 607q8 4 38.5 7t37.5 1q4 -2 4 -11q-10 -18 -56 -78.5t-66 -83.5q-3 0 -12 6t-10 9q51 125 64 150z" />
    <glyph glyph-name="mu" unicode="&#xb5;" horiz-adv-x="460" 
d="M68 383q5 5 30.5 15t40.5 11q5 0 13 -2q-9 -157 -9 -279q0 -23 4 -32q12 -34 50 -34q32 0 62 27t48 85q7 18 7 44q1 124 0 166q6 7 31 15.5t40 9.5q1 -1 5.5 -2t5.5 -2q-14 -115 -14 -206v-48q0 -47 6.5 -66t22.5 -19q24 0 51 18q1 -1 2 -10t0 -13q-12 -32 -41 -53
t-55 -21q-25 0 -38.5 27t-13.5 100h-3q-33 -62 -73.5 -94.5t-64.5 -32.5q-35 0 -51 29q-5 -75 -2 -117q4 -49 26.5 -72t75.5 -38q1 -3 -1 -11t-5 -11q-11 -11 -37.5 -20.5t-45.5 -9.5q-52 0 -58 128q-3 62 -5 247q0 129 -4 271z" />
    <glyph glyph-name="paragraph" unicode="&#xb6;" horiz-adv-x="576" 
d="M528 588q-3 0 -25.5 -3t-32.5 -6q-18 -5 -25 -15t-11.5 -53t-3.5 -135v-148.5v-148.5q0 -74 -13 -130.5t-32 -88t-44 -51t-45.5 -25.5t-40.5 -6q-57 0 -76 37q-11 25 -11 65l9 14q52 -44 115 -44q56 0 72 58t14 227q-45 -21 -87 -22q-114 14 -179.5 83t-65.5 175
q0 53 20 96t54 69.5t72 42t80 21.5q38 6 89.5 9.5t102 6t64.5 3.5q3 -4 2.5 -15t-2.5 -16zM267 368q0 -80 26.5 -133.5t83.5 -61.5q-5 135 -5 263q0 104 12 130q-59 -5 -88 -51.5t-29 -146.5z" />
    <glyph glyph-name="periodcentered" unicode="&#xb7;" horiz-adv-x="214" 
d="M108 248q19 0 38 -15q18 -16 18 -45q0 -24 -16 -40q-17 -17 -43 -17q-22 0 -37 16q-17 16 -17 42q0 24 18 42q19 17 39 17z" />
    <glyph glyph-name="cedilla" unicode="&#xb8;" horiz-adv-x="397" 
d="M213 5h30l-31 -44q21 -11 42 -28q23 -20 23 -48q0 -40 -39.5 -67.5t-68.5 -27.5q-33 0 -51 27q-5 16 3 24q27 -14 60 -14q17 0 29 9t12 23q0 34 -71 59q0 6 1 8q1 1 13 17.5t27 36t21 25.5z" />
    <glyph glyph-name="one.k" unicode="&#xb9;" horiz-adv-x="331" 
d="M265 395q2 -1 1 -13t-3 -13q-9 0 -43.5 1.5t-58.5 1.5t-56 -1.5t-42 -1.5q-1 3 -1 13t1 12l42 7q25 5 25 35q2 62 2 128q1 87 -1 116q-2 18 -17 21q-11 3 -40 5q-1 2 0 12t3 12q69 4 115 26q8 0 8 -2q-3 -34 -3 -152q0 -115 2 -163q1 -31 21 -36q1 0 45 -8z" />
    <glyph glyph-name="ordmasculine" unicode="&#xba;" horiz-adv-x="355" 
d="M187 513q62 0 100.5 -41t38.5 -101q0 -87 -66 -130q-38 -25 -85 -25q-73 0 -109.5 44t-36.5 106q0 77 61 118q44 29 97 29zM163 482q-29 0 -48 -24t-19 -75q0 -61 26.5 -98t68.5 -37q68 0 68 100q0 62 -26 98t-70 36z" />
    <glyph glyph-name="guillemotright" unicode="&#xbb;" horiz-adv-x="638" 
d="M471 194q-35 20 -89 60.5t-71 59.5q-4 7 -4 36q2 3 7 6q22 -22 116 -79t135 -72q0 -18 -7 -23q-62 -27 -143 -77.5t-110 -75.5q-3 0 -6 5q3 28 8 36q16 17 71 56t93 62q4 4 0 6zM258 194q-38 21 -97 64t-76 62q-3 4 -4 17.5t0 19.5q2 4 7 6q22 -22 121 -82t141 -76
q0 -17 -7 -24q-65 -29 -150 -81.5t-115 -77.5q-3 0 -6 6q0 7 3.5 20.5t5.5 15.5q26 28 176 124q2 1 2.5 3t-1.5 3z" />
    <glyph glyph-name="onequarter" unicode="&#xbc;" horiz-adv-x="788" 
d="M728 103q-8 0 -31 0.5t-36 0.5q-3 0 -3 -4l1 -117q-48 -3 -66 -7l3 124q0 3 -3 3l-75 1h-90q0 16 3 25q23 32 101 133t85 110q3 1 20.5 3t19.5 1v-226q0 -4 3 -4q14 0 41.5 0.5t34.5 0.5q-8 -21 -8 -44zM258 247q2 -1 1 -13t-3 -13q-9 0 -43.5 1.5t-58.5 1.5t-56 -1.5
t-42 -1.5q-1 3 -1 13t1 12l42 7q25 5 25 35q2 62 2 128q1 87 -1 116q-2 18 -17 21q-11 3 -40 5q-1 2 0 12t3 12q69 4 115 26q8 0 8 -2q-3 -35 -3 -152q0 -115 2 -163q1 -31 21 -36q1 0 45 -8zM564 635q1 1 15.5 0.5t18.5 -2.5q1 -1 1 -5q-7 -10 -196 -338.5t-203 -350.5
q-1 -1 -3.5 -2t-3.5 0q-18 16 -18 24q4 10 195 340.5t194 333.5zM482 145h110q4 0 4 3l2 156h-3q-16 -20 -61.5 -81.5t-52.5 -74.5q0 -2 1 -3z" />
    <glyph glyph-name="onehalf" unicode="&#xbd;" horiz-adv-x="788" 
d="M561 321q-45 0 -86 -47q-3 -1 -9 8t-5 11q19 33 54.5 58.5t75.5 25.5q46 0 77 -32.5t31 -81.5q0 -64 -69 -133q-5 -5 -77 -74q-1 -2 -0.5 -3.5t2.5 -1.5q41 -5 123 -3q22 0 49 59q3 1 12 -2.5t11 -6.5q-4 -18 -14.5 -52t-16.5 -43q-6 -12 -26 -12q-21 0 -91.5 1.5
t-99.5 1.5t-37 -1q-1 1 -2 9t0 11q8 7 23.5 20t23 19.5t19.5 18t23.5 23.5t25.5 28q53 61 53 121q0 32 -18 55t-52 23zM255 247q2 -1 1 -13t-3 -13q-9 0 -43.5 1.5t-58.5 1.5t-56 -1.5t-42 -1.5q-1 3 -1 13t1 12l42 7q25 5 25 35q2 62 2 128q1 87 -1 116q-2 18 -17 21
q-11 3 -40 5q-1 2 0 12t3 12q69 4 115 26q8 0 8 -2q-3 -35 -3 -152q0 -115 2 -163q1 -31 21 -36q1 0 45 -8zM555 635q1 1 15.5 0.5t18.5 -2.5q1 -1 1 -5q-7 -10 -196 -338.5t-203 -350.5q-1 -1 -3.5 -2t-3.5 0q-18 16 -18 24q4 10 195 340.5t194 333.5z" />
    <glyph glyph-name="threequarters" unicode="&#xbe;" horiz-adv-x="788" 
d="M737 103q-8 0 -31 0.5t-36 0.5q-3 0 -3 -4l1 -117q-48 -3 -66 -7l3 124q0 3 -3 3l-75 1h-90q0 16 3 25q23 32 101 133t85 110q3 1 20.5 3t19.5 1v-226q0 -4 3 -4q14 0 41.5 0.5t34.5 0.5q-8 -21 -8 -44zM186 608q40 0 67 -25t28 -60q0 -50 -55 -83q-2 -2 0 -3
q38 -11 64 -36t26 -63q0 -65 -67 -105q-47 -30 -105 -30q-37 0 -57 10q-12 5 -22 22q-10 24 -13 56q1 4 9 8t11 3q17 -37 39 -50q26 -16 61 -16q33 0 54.5 18.5t21.5 55.5t-26.5 62t-70.5 25q-13 0 -23 -2q-2 2 2 14t6 14q84 16 84 73q0 27 -17.5 44.5t-45.5 17.5
q-39 0 -77 -36q-4 0 -9 8t-4 11q58 67 119 67zM582 635q1 1 15.5 0.5t18.5 -2.5q1 -1 1 -5q-7 -10 -196 -338.5t-203 -350.5q-1 -1 -3.5 -2t-3.5 0q-18 16 -18 24q4 10 195 340.5t194 333.5zM491 145h110q4 0 4 3l2 156h-3q-16 -20 -61.5 -81.5t-52.5 -74.5q0 -2 1 -3z" />
    <glyph glyph-name="questiondown" unicode="&#xbf;" horiz-adv-x="340" 
d="M188 117q0 22 -37 56q-2 1 -1 6t3 7q5 6 20 13.5t22 9.5q11 3 21 0q21 -9 34 -27.5t13 -37.5q0 -18 -11 -31q-9 -9 -58 -46.5t-60 -47.5q-23 -22 -23 -48q0 -36 35.5 -68t92.5 -41l32 -3q11 -2 11 -15q0 -7 -8.5 -24t-16.5 -27t-32 -10q-64 0 -119 44q-59 48 -59 112
q0 47 22 69q13 14 55.5 45.5t49.5 37.5q14 11 14 26zM182 301q-21 0 -37 13q-17 17 -17 43q0 22 16 38q15 16 44 16q21 0 36 -14q15 -18 15 -40q0 -24 -16 -41q-17 -15 -41 -15z" />
    <glyph glyph-name="Agrave" unicode="&#xc0;" horiz-adv-x="613" 
d="M-22 26q55 7 74 21.5t43 71.5q85 203 167 440q14 37 17 57h11q12 -1 22 -1q9 0 16.5 0.5t11.5 0.5h5q8 -31 16 -52q132 -377 166 -457q22 -50 38 -62t70 -19q3 -3 1.5 -14.5t-3.5 -14.5q-78 3 -122 3q-68 0 -131 -3q-2 3 -3 14.5t2 14.5q37 5 55 11q17 8 11 25
q-20 73 -60 172q-2 7 -9 7h-94h-83q-7 0 -10 -9q-52 -141 -54 -162q-1 -15 5 -22.5t27 -13.5q20 -5 48 -8q2 -3 1 -14.5t-3 -14.5q-6 0 -51 1.5t-77 1.5q-33 0 -67.5 -1.5t-39.5 -1.5q-3 3 -3 14.5t3 14.5zM291 512q-5 0 -5 -1q-5 -14 -35 -99.5t-40 -116.5q0 -6 4 -7
q10 -1 80 -1q57 0 67 1q2 0 3 2.5t0 5.5q-42 129 -74 216zM245 790q13 -9 58.5 -57t57.5 -65q2 -2 -7 -12t-12 -10q-5 0 -78.5 43t-84.5 53q-1 2 -1 7t1 6q7 7 31 20.5t35 14.5z" />
    <glyph glyph-name="Aacute" unicode="&#xc1;" horiz-adv-x="613" 
d="M-22 26q55 7 74 21.5t43 71.5q85 203 167 440q14 37 17 57h11q12 -1 22 -1q9 0 16.5 0.5t11.5 0.5h5q8 -31 16 -52q132 -377 166 -457q22 -50 38 -62t70 -19q3 -3 1.5 -14.5t-3.5 -14.5q-78 3 -122 3q-68 0 -131 -3q-2 3 -3 14.5t2 14.5q37 5 55 11q17 8 11 25
q-20 73 -60 172q-2 7 -9 7h-94h-83q-7 0 -10 -9q-52 -141 -54 -162q-1 -15 5 -22.5t27 -13.5q20 -5 48 -8q2 -3 1 -14.5t-3 -14.5q-6 0 -51 1.5t-77 1.5q-33 0 -67.5 -1.5t-39.5 -1.5q-3 3 -3 14.5t3 14.5zM291 512q-5 0 -5 -1q-5 -14 -35 -99.5t-40 -116.5q0 -6 4 -7
q10 -1 80 -1q57 0 67 1q2 0 3 2.5t0 5.5q-42 129 -74 216zM386 790q11 -1 32 -13t28 -21q2 -2 2 -7t-2 -6q-10 -11 -84 -53.5t-81 -42.5q-2 0 -9 10t-6 11q9 13 59.5 64.5t60.5 57.5z" />
    <glyph glyph-name="Acircumflex" unicode="&#xc2;" horiz-adv-x="613" 
d="M-22 26q55 7 74 21.5t43 71.5q85 203 167 440q14 37 17 57h11q12 -1 22 -1q9 0 16.5 0.5t11.5 0.5h5q8 -31 16 -52q132 -377 166 -457q22 -50 38 -62t70 -19q3 -3 1.5 -14.5t-3.5 -14.5q-78 3 -122 3q-68 0 -131 -3q-2 3 -3 14.5t2 14.5q37 5 55 11q17 8 11 25
q-20 73 -60 172q-2 7 -9 7h-94h-83q-7 0 -10 -9q-52 -141 -54 -162q-1 -15 5 -22.5t27 -13.5q20 -5 48 -8q2 -3 1 -14.5t-3 -14.5q-6 0 -51 1.5t-77 1.5q-33 0 -67.5 -1.5t-39.5 -1.5q-3 3 -3 14.5t3 14.5zM291 512q-5 0 -5 -1q-5 -14 -35 -99.5t-40 -116.5q0 -6 4 -7
q10 -1 80 -1q57 0 67 1q2 0 3 2.5t0 5.5q-42 129 -74 216zM301 763q3 3 21 7q9 -10 59.5 -51.5t69.5 -54.5q0 -4 -6 -13.5t-9 -9.5q-5 0 -57 23t-64 30q-7 2 -10 0q-15 -9 -61.5 -31t-50.5 -22t-9.5 9t-4.5 14q89 66 122 99z" />
    <glyph glyph-name="Atilde" unicode="&#xc3;" horiz-adv-x="613" 
d="M-22 26q55 7 74 21.5t43 71.5q85 203 167 440q14 37 17 57h11q12 -1 22 -1q9 0 16.5 0.5t11.5 0.5h5q8 -31 16 -52q132 -377 166 -457q22 -50 38 -62t70 -19q3 -3 1.5 -14.5t-3.5 -14.5q-78 3 -122 3q-68 0 -131 -3q-2 3 -3 14.5t2 14.5q37 5 55 11q17 8 11 25
q-20 73 -60 172q-2 7 -9 7h-94h-83q-7 0 -10 -9q-52 -141 -54 -162q-1 -15 5 -22.5t27 -13.5q20 -5 48 -8q2 -3 1 -14.5t-3 -14.5q-6 0 -51 1.5t-77 1.5q-33 0 -67.5 -1.5t-39.5 -1.5q-3 3 -3 14.5t3 14.5zM291 512q-5 0 -5 -1q-5 -14 -35 -99.5t-40 -116.5q0 -6 4 -7
q10 -1 80 -1q57 0 67 1q2 0 3 2.5t0 5.5q-42 129 -74 216zM378 716q32 0 70 33q1 1 4 -5q5 -15 4 -21q-12 -20 -44.5 -40t-59.5 -20q-18 0 -66 16q-32 8 -39 8q-24 0 -61 -30q-1 -1 -4.5 4t-5.5 11.5t-1 7.5q10 15 42 37.5t52 22.5t61 -13q31 -11 48 -11z" />
    <glyph glyph-name="Adieresis" unicode="&#xc4;" horiz-adv-x="613" 
d="M-22 26q55 7 74 21.5t43 71.5q85 203 167 440q14 37 17 57h11q12 -1 22 -1q9 0 16.5 0.5t11.5 0.5h5q8 -31 16 -52q132 -377 166 -457q22 -50 38 -62t70 -19q3 -3 1.5 -14.5t-3.5 -14.5q-78 3 -122 3q-68 0 -131 -3q-2 3 -3 14.5t2 14.5q37 5 55 11q17 8 11 25
q-20 73 -60 172q-2 7 -9 7h-94h-83q-7 0 -10 -9q-52 -141 -54 -162q-1 -15 5 -22.5t27 -13.5q20 -5 48 -8q2 -3 1 -14.5t-3 -14.5q-6 0 -51 1.5t-77 1.5q-33 0 -67.5 -1.5t-39.5 -1.5q-3 3 -3 14.5t3 14.5zM291 512q-5 0 -5 -1q-5 -14 -35 -99.5t-40 -116.5q0 -6 4 -7
q10 -1 80 -1q57 0 67 1q2 0 3 2.5t0 5.5q-42 129 -74 216zM275 704q0 -34 -20 -47q-4 -3 -21 -4.5t-22 1.5q-21 10 -25 40q0 22 5 28q18 18 46 18q24 0 27 -9q10 -12 10 -27zM443 704q0 -34 -20 -47q-4 -3 -21 -4.5t-22 1.5q-19 9 -25 40q-3 16 5 28q18 18 47 18q18 0 27 -9
q9 -11 9 -27z" />
    <glyph glyph-name="Aring" unicode="&#xc5;" horiz-adv-x="613" 
d="M-22 26q55 7 74 21.5t43 71.5q85 203 167 440q14 37 17 57h11q12 -1 22 -1q9 0 16.5 0.5t11.5 0.5h5q8 -31 16 -52q132 -377 166 -457q22 -50 38 -62t70 -19q3 -3 1.5 -14.5t-3.5 -14.5q-78 3 -122 3q-68 0 -131 -3q-2 3 -3 14.5t2 14.5q37 5 55 11q17 8 11 25
q-20 73 -60 172q-2 7 -9 7h-94h-83q-7 0 -10 -9q-52 -141 -54 -162q-1 -15 5 -22.5t27 -13.5q20 -5 48 -8q2 -3 1 -14.5t-3 -14.5q-6 0 -51 1.5t-77 1.5q-33 0 -67.5 -1.5t-39.5 -1.5q-3 3 -3 14.5t3 14.5zM291 512q-5 0 -5 -1q-5 -14 -35 -99.5t-40 -116.5q0 -6 4 -7
q10 -1 80 -1q57 0 67 1q2 0 3 2.5t0 5.5q-42 129 -74 216zM317 779q35 0 55 -20t20 -50q0 -34 -22.5 -54t-56.5 -20q-26 0 -51 17.5t-25 52.5q0 34 20.5 54t59.5 20zM313 744q-45 0 -45 -38q0 -16 14.5 -26t34.5 -10q18 0 31.5 10t13.5 25q0 39 -49 39z" />
    <glyph glyph-name="AE" unicode="&#xc6;" horiz-adv-x="836" 
d="M241 590q-3 3 -1.5 14.5t4.5 13.5q8 0 68 -1.5t94 -1.5h229q85 0 114 4q0 -1 1 -1l1 -2q-9 -34 -16 -143q-4 -3 -16 -3.5t-16 2.5q-5 39 -14 64q-6 20 -16 28t-33 10q-15 1 -80 1t-78 -1q-10 -1 -10 -17q3 -39 10.5 -131t8.5 -108q0 -8 7 -8q104 0 136 3q27 1 37 29
q8 27 12 43q5 2 18 1.5t16 -4.5q-6 -60 -6 -98q-1 -21 0.5 -53.5t1.5 -39.5q-6 -2 -17 -2.5t-17 2.5q-8 38 -9 41q-10 29 -36 31q-30 2 -134 2q-4 0 -4 -8q7 -104 15 -171q6 -39 29 -42q30 -6 140 -3q23 1 37 7t28 25q25 31 48 90q4 1 15.5 -2.5t14.5 -7.5q-3 -19 -15 -64
t-22 -69q-6 -14 -16.5 -18.5t-35.5 -4.5q-18 0 -92 1.5t-163 1.5q-36 0 -90.5 -2t-71.5 -2q-3 3 -3.5 15t1.5 15q51 5 77 11q18 4 24 16.5t5 39.5q0 24 -12 166q0 1 -4 5q-15 1 -90 1h-37.5t-21.5 -0.5t-11 -0.5h-8t-7.5 -3.5t-4.5 -5.5q-81 -169 -84 -184q-2 -16 3 -24
t25 -13l50 -8q2 -3 1.5 -15t-3.5 -15q-7 0 -51.5 2t-76.5 2q-33 0 -70 -2t-41 -2q-5 9 0 30q56 8 76.5 22.5t49.5 70.5q106 194 230 446q4 9 -4 12zM386 564q-1 2 -3.5 3t-3.5 0q-10 -20 -38 -77t-51 -104t-32 -68q0 -6 4 -7q10 -1 68 -1q54 0 68 1q7 0 7 6q-12 207 -19 247
z" />
    <glyph glyph-name="Ccedilla" unicode="&#xc7;" horiz-adv-x="673" 
d="M569 459q-8 59 -20.5 82t-40.5 35q-46 21 -125 21q-108 0 -168 -74t-60 -202q0 -127 69.5 -211t197.5 -84q73 0 110 34q34 27 75 98q4 0 13.5 -5.5t10.5 -10.5q-8 -33 -33.5 -79t-42.5 -56q-61 -21 -135 -25l-17 -26q29 -15 45 -29q22 -18 22 -50q0 -41 -41.5 -70.5
t-71.5 -29.5q-38 0 -54 29q-3 13 3 24q29 -15 64 -15q18 0 28.5 9t10.5 24q0 40 -73 62q1 6 2 9q27 38 46 63q-158 5 -243.5 91t-85.5 239q0 85 40 159t119 116q84 46 203 46q52 0 122 -9q41 -6 73 -8q-12 -80 -12 -153q-2 -3 -15.5 -5t-15.5 1z" />
    <glyph glyph-name="Egrave" unicode="&#xc8;" horiz-adv-x="558" 
d="M37 591q-4 3 -3 13.5t4 14.5q9 0 55 -2t78 -2h197q83 0 111 4q4 -4 4 -5q-11 -40 -18 -137q-3 -4 -16 -4t-15 2q-3 32 -11 61q-6 19 -16 27.5t-34 10.5q-14 1 -78.5 1t-74.5 -1q-5 -1 -8.5 -8t-3.5 -11q-1 -56 -1 -212q0 -7 5 -7q99 -2 153 2q25 2 34 30q7 18 11 40
q4 2 17 1.5t16 -4.5q-7 -47 -7 -94q0 -41 2 -91q-4 -4 -17 -4.5t-17 3.5q-4 30 -8 41q-8 27 -34 29q-21 2 -72.5 2.5t-77.5 -0.5q-5 0 -5 -8q0 -152 2 -200q0 -30 23 -38q24 -6 148 -6q31 1 45.5 8t28.5 25q23 26 50 88q4 1 15 -3t14 -8q-4 -25 -17.5 -70.5t-24.5 -66.5
q-5 -9 -16 -12.5t-46 -3.5q-39 0 -122 2t-138 2q-37 0 -89 -1.5t-69 -1.5q-3 2 -3.5 13.5t2.5 15.5q61 6 76 10q18 4 25 15.5t9 38.5q1 19 1 242q0 180 -1 198q-2 28 -7 37.5t-23 13.5q-17 5 -53 10zM223 796q13 -9 58.5 -57t57.5 -65q2 -2 -7 -12t-12 -10q-5 0 -78.5 43
t-84.5 53q-1 2 -1 7t1 6q7 7 31 20.5t35 14.5z" />
    <glyph glyph-name="Eacute" unicode="&#xc9;" horiz-adv-x="558" 
d="M37 591q-4 3 -3 13.5t4 14.5q9 0 55 -2t78 -2h197q83 0 111 4q4 -4 4 -5q-11 -40 -18 -137q-3 -4 -16 -4t-15 2q-3 32 -11 61q-6 19 -16 27.5t-34 10.5q-14 1 -78.5 1t-74.5 -1q-5 -1 -8.5 -8t-3.5 -11q-1 -56 -1 -212q0 -7 5 -7q99 -2 153 2q25 2 34 30q7 18 11 40
q4 2 17 1.5t16 -4.5q-7 -47 -7 -94q0 -41 2 -91q-4 -4 -17 -4.5t-17 3.5q-4 30 -8 41q-8 27 -34 29q-21 2 -72.5 2.5t-77.5 -0.5q-5 0 -5 -8q0 -152 2 -200q0 -30 23 -38q24 -6 148 -6q31 1 45.5 8t28.5 25q23 26 50 88q4 1 15 -3t14 -8q-4 -25 -17.5 -70.5t-24.5 -66.5
q-5 -9 -16 -12.5t-46 -3.5q-39 0 -122 2t-138 2q-37 0 -89 -1.5t-69 -1.5q-3 2 -3.5 13.5t2.5 15.5q61 6 76 10q18 4 25 15.5t9 38.5q1 19 1 242q0 180 -1 198q-2 28 -7 37.5t-23 13.5q-17 5 -53 10zM360 796q11 -1 32 -13t28 -21q2 -2 2 -7t-2 -6q-10 -11 -84 -53.5
t-81 -42.5q-2 0 -9 10t-6 11q9 13 59.5 64.5t60.5 57.5z" />
    <glyph glyph-name="Ecircumflex" unicode="&#xca;" horiz-adv-x="558" 
d="M37 591q-4 3 -3 13.5t4 14.5q9 0 55 -2t78 -2h197q83 0 111 4q4 -4 4 -5q-11 -40 -18 -137q-3 -4 -16 -4t-15 2q-3 32 -11 61q-6 19 -16 27.5t-34 10.5q-14 1 -78.5 1t-74.5 -1q-5 -1 -8.5 -8t-3.5 -11q-1 -56 -1 -212q0 -7 5 -7q99 -2 153 2q25 2 34 30q7 18 11 40
q4 2 17 1.5t16 -4.5q-7 -47 -7 -94q0 -41 2 -91q-4 -4 -17 -4.5t-17 3.5q-4 30 -8 41q-8 27 -34 29q-21 2 -72.5 2.5t-77.5 -0.5q-5 0 -5 -8q0 -152 2 -200q0 -30 23 -38q24 -6 148 -6q31 1 45.5 8t28.5 25q23 26 50 88q4 1 15 -3t14 -8q-4 -25 -17.5 -70.5t-24.5 -66.5
q-5 -9 -16 -12.5t-46 -3.5q-39 0 -122 2t-138 2q-37 0 -89 -1.5t-69 -1.5q-3 2 -3.5 13.5t2.5 15.5q61 6 76 10q18 4 25 15.5t9 38.5q1 19 1 242q0 180 -1 198q-2 28 -7 37.5t-23 13.5q-17 5 -53 10zM268 777q3 3 21 7q9 -10 59.5 -51.5t69.5 -54.5q0 -4 -6 -13.5t-9 -9.5
q-5 0 -57 23t-64 30q-7 2 -10 0q-15 -9 -61.5 -31t-50.5 -22t-9.5 9t-4.5 14q89 66 122 99z" />
    <glyph glyph-name="Edieresis" unicode="&#xcb;" horiz-adv-x="558" 
d="M37 591q-4 3 -3 13.5t4 14.5q9 0 55 -2t78 -2h197q83 0 111 4q4 -4 4 -5q-11 -40 -18 -137q-3 -4 -16 -4t-15 2q-3 32 -11 61q-6 19 -16 27.5t-34 10.5q-14 1 -78.5 1t-74.5 -1q-5 -1 -8.5 -8t-3.5 -11q-1 -56 -1 -212q0 -7 5 -7q99 -2 153 2q25 2 34 30q7 18 11 40
q4 2 17 1.5t16 -4.5q-7 -47 -7 -94q0 -41 2 -91q-4 -4 -17 -4.5t-17 3.5q-4 30 -8 41q-8 27 -34 29q-21 2 -72.5 2.5t-77.5 -0.5q-5 0 -5 -8q0 -152 2 -200q0 -30 23 -38q24 -6 148 -6q31 1 45.5 8t28.5 25q23 26 50 88q4 1 15 -3t14 -8q-4 -25 -17.5 -70.5t-24.5 -66.5
q-5 -9 -16 -12.5t-46 -3.5q-39 0 -122 2t-138 2q-37 0 -89 -1.5t-69 -1.5q-3 2 -3.5 13.5t2.5 15.5q61 6 76 10q18 4 25 15.5t9 38.5q1 19 1 242q0 180 -1 198q-2 28 -7 37.5t-23 13.5q-17 5 -53 10zM243 719q0 -34 -20 -47q-4 -3 -21 -4.5t-22 1.5q-21 10 -25 40q0 22 5 28
q18 18 46 18q24 0 27 -9q10 -12 10 -27zM411 719q0 -34 -20 -47q-4 -3 -21 -4.5t-22 1.5q-19 9 -25 40q-3 16 5 28q18 18 47 18q18 0 27 -9q9 -11 9 -27z" />
    <glyph glyph-name="Igrave" unicode="&#xcc;" horiz-adv-x="322" 
d="M30 590q-3 3 -2 14.5t3 13.5q7 0 53.5 -1.5t76.5 -1.5q29 0 72 1.5t52 1.5q2 -3 2.5 -13.5t-1.5 -14.5q-42 -6 -51 -8q-16 -4 -21.5 -14.5t-7.5 -35.5q-2 -28 -2 -213q0 -195 2 -230q1 -24 7.5 -36t27.5 -17q16 -5 59 -10q3 -3 2 -15t-4 -14q-9 0 -55 1.5t-74 1.5
q-32 0 -79 -1.5t-60 -1.5q-4 2 -4 14.5t3 14.5q34 3 51 8q20 4 26.5 13.5t8.5 29.5q4 28 4 262q0 147 -3 194q-1 15 -2.5 22.5t-7 14t-15.5 9.5q-11 4 -61 11zM97 793q13 -9 58.5 -57t57.5 -65q2 -2 -7 -12t-12 -10q-5 0 -78.5 43t-84.5 53q-1 1 -1 6t1 7q7 7 31 20.5
t35 14.5z" />
    <glyph glyph-name="Iacute" unicode="&#xcd;" horiz-adv-x="322" 
d="M30 590q-3 3 -2 14.5t3 13.5q7 0 53.5 -1.5t76.5 -1.5q29 0 72 1.5t52 1.5q2 -3 2.5 -13.5t-1.5 -14.5q-42 -6 -51 -8q-16 -4 -21.5 -14.5t-7.5 -35.5q-2 -28 -2 -213q0 -195 2 -230q1 -24 7.5 -36t27.5 -17q16 -5 59 -10q3 -3 2 -15t-4 -14q-9 0 -55 1.5t-74 1.5
q-32 0 -79 -1.5t-60 -1.5q-4 2 -4 14.5t3 14.5q34 3 51 8q20 4 26.5 13.5t8.5 29.5q4 28 4 262q0 147 -3 194q-1 15 -2.5 22.5t-7 14t-15.5 9.5q-11 4 -61 11zM233 796q11 -1 32 -13t28 -21q1 -2 1 -7t-1 -6q-10 -11 -84 -53.5t-81 -42.5q-2 0 -9 10t-6 11q9 13 59.5 64.5
t60.5 57.5z" />
    <glyph glyph-name="Icircumflex" unicode="&#xce;" horiz-adv-x="322" 
d="M30 590q-3 3 -2 14.5t3 13.5q7 0 53.5 -1.5t76.5 -1.5q29 0 72 1.5t52 1.5q2 -3 2.5 -13.5t-1.5 -14.5q-42 -6 -51 -8q-16 -4 -21.5 -14.5t-7.5 -35.5q-2 -28 -2 -213q0 -195 2 -230q1 -24 7.5 -36t27.5 -17q16 -5 59 -10q3 -3 2 -15t-4 -14q-9 0 -55 1.5t-74 1.5
q-32 0 -79 -1.5t-60 -1.5q-4 2 -4 14.5t3 14.5q34 3 51 8q20 4 26.5 13.5t8.5 29.5q4 28 4 262q0 147 -3 194q-1 15 -2.5 22.5t-7 14t-15.5 9.5q-11 4 -61 11zM149 783q3 3 21 7q9 -10 59.5 -51.5t69.5 -54.5q0 -4 -6 -13.5t-9 -9.5q-5 0 -57 23t-64 30q-7 2 -10 0
q-15 -9 -61.5 -31t-50.5 -22t-9.5 9t-4.5 14q89 66 122 99z" />
    <glyph glyph-name="Idieresis" unicode="&#xcf;" horiz-adv-x="322" 
d="M30 590q-3 3 -2 14.5t3 13.5q7 0 53.5 -1.5t76.5 -1.5q29 0 72 1.5t52 1.5q2 -3 2.5 -13.5t-1.5 -14.5q-42 -6 -51 -8q-16 -4 -21.5 -14.5t-7.5 -35.5q-2 -28 -2 -213q0 -195 2 -230q1 -24 7.5 -36t27.5 -17q16 -5 59 -10q3 -3 2 -15t-4 -14q-9 0 -55 1.5t-74 1.5
q-32 0 -79 -1.5t-60 -1.5q-4 2 -4 14.5t3 14.5q34 3 51 8q20 4 26.5 13.5t8.5 29.5q4 28 4 262q0 147 -3 194q-1 15 -2.5 22.5t-7 14t-15.5 9.5q-11 4 -61 11zM121 718q0 -34 -20 -47q-4 -3 -21 -4.5t-22 1.5q-21 10 -25 40q0 22 5 28q18 18 46 18q24 0 27 -9q10 -12 10 -27
zM289 718q0 -34 -20 -47q-4 -3 -21 -4.5t-22 1.5q-19 9 -25 40q-3 16 5 28q18 18 47 18q18 0 27 -9q9 -11 9 -27z" />
    <glyph glyph-name="Eth" unicode="&#xd0;" horiz-adv-x="709" 
d="M27 590q-2 3 -0.5 14.5t3.5 13.5q10 0 58 -1.5t63 -1.5q26 0 84.5 2t109.5 2q133 0 214 -70q95 -83 95 -227q0 -174 -128 -261q-96 -68 -239 -68q-31 0 -105 2t-114 2h-50q-3 4 -3 15.5t3 13.5q42 3 65 10q30 8 33 48q3 87 3 218q-57 -1 -92 -1q0 27 6 36h86
q0 144 -3 194q-1 25 -9 35t-27 15q-21 5 -53 9zM207 95q2 -29 20 -40q29 -22 108 -22q89 0 146 53q78 73 78 219q0 161 -114 237q-62 41 -177 41q-38 0 -51 -5q-10 -5 -11 -18q-1 -11 -1 -223q35 0 77.5 0.5t71 0.5h30.5q3 -17 -5 -36h-174q0 -186 2 -207z" />
    <glyph glyph-name="Ntilde" unicode="&#xd1;" horiz-adv-x="734" 
d="M15 590q-2 2 -1.5 14t3.5 14q9 0 53 -1.5t72 -1.5q37 0 45 1q7 -17 36 -54q225 -282 355 -434q2 -1 4 1q0 338 -4 396q-2 24 -9.5 35.5t-28.5 17.5q-27 8 -67 12q-3 3 -2.5 14.5t2.5 13.5q9 0 53.5 -1.5t79.5 -1.5q20 0 61 1.5t45 1.5q3 -2 3 -13.5t-3 -14.5
q-25 -4 -44 -10q-31 -11 -34 -54q-2 -28 -8 -394q0 -71 2 -137q-8 1 -34 1t-35 -1q-54 78 -388 495q-1 1 -2.5 0.5t-1.5 -1.5q-2 -75 -1.5 -214t2.5 -179q1 -29 11 -42t30 -18q13 -4 60 -10q3 -3 2 -14.5t-4 -14.5q-8 0 -50.5 1.5t-74.5 1.5q-36 0 -75 -1.5t-45 -1.5
q-2 2 -2 14.5t2 14.5q29 3 53 9q36 11 38 59q6 73 9 425q0 34 -27 49q-24 16 -80 22zM435 730q32 0 70 33q1 1 4 -5q5 -15 4 -21q-12 -20 -44.5 -40t-59.5 -20q-18 0 -66 16q-32 8 -39 8q-24 0 -61 -30q-1 -1 -4.5 4t-5.5 11.5t-1 7.5q10 15 42 37.5t52 22.5t61 -13
q31 -11 48 -11z" />
    <glyph glyph-name="Ograve" unicode="&#xd2;" horiz-adv-x="746" 
d="M367 -18q-141 0 -226 91q-86 95 -86 240q0 108 62 193q41 57 115 92t152 35q74 0 133.5 -25.5t97 -69.5t57 -99.5t19.5 -117.5q0 -123 -61 -208q-45 -63 -115.5 -97t-147.5 -34zM405 26q66 0 107 35q84 68 84 225q0 85 -29 156t-86 111q-58 40 -131 40q-51 0 -90 -22
q-53 -31 -80 -93.5t-27 -141.5q0 -84 32 -159.5t95 -116.5q54 -34 125 -34zM314 809q13 -9 58.5 -57t57.5 -65q2 -2 -7 -12t-12 -10q-5 0 -78.5 43t-84.5 53q-2 1 -2 6t2 7q7 7 31 20.5t35 14.5z" />
    <glyph glyph-name="Oacute" unicode="&#xd3;" horiz-adv-x="746" 
d="M367 -18q-141 0 -226 91q-86 95 -86 240q0 108 62 193q41 57 115 92t152 35q74 0 133.5 -25.5t97 -69.5t57 -99.5t19.5 -117.5q0 -123 -61 -208q-45 -63 -115.5 -97t-147.5 -34zM405 26q66 0 107 35q84 68 84 225q0 85 -29 156t-86 111q-58 40 -131 40q-51 0 -90 -22
q-53 -31 -80 -93.5t-27 -141.5q0 -84 32 -159.5t95 -116.5q54 -34 125 -34zM433 809q11 -1 32 -13t28 -21q1 -2 1 -7t-1 -6q-10 -11 -84 -53.5t-81 -42.5q-2 0 -9 10t-6 11q9 13 59.5 64.5t60.5 57.5z" />
    <glyph glyph-name="Ocircumflex" unicode="&#xd4;" horiz-adv-x="746" 
d="M367 -18q-141 0 -226 91q-86 95 -86 240q0 108 62 193q41 57 115 92t152 35q74 0 133.5 -25.5t97 -69.5t57 -99.5t19.5 -117.5q0 -123 -61 -208q-45 -63 -115.5 -97t-147.5 -34zM405 26q66 0 107 35q84 68 84 225q0 85 -29 156t-86 111q-58 40 -131 40q-51 0 -90 -22
q-53 -31 -80 -93.5t-27 -141.5q0 -84 32 -159.5t95 -116.5q54 -34 125 -34zM361 787q3 3 21 7q9 -10 59.5 -51.5t69.5 -54.5q0 -4 -6 -13.5t-9 -9.5q-5 0 -57 23t-64 30q-7 2 -10 0q-15 -9 -61.5 -31t-50.5 -22t-9.5 9t-4.5 14q89 66 122 99z" />
    <glyph glyph-name="Otilde" unicode="&#xd5;" horiz-adv-x="746" 
d="M367 -18q-141 0 -226 91q-86 95 -86 240q0 108 62 193q41 57 115 92t152 35q74 0 133.5 -25.5t97 -69.5t57 -99.5t19.5 -117.5q0 -123 -61 -208q-45 -63 -115.5 -97t-147.5 -34zM405 26q66 0 107 35q84 68 84 225q0 85 -29 156t-86 111q-58 40 -131 40q-51 0 -90 -22
q-53 -31 -80 -93.5t-27 -141.5q0 -84 32 -159.5t95 -116.5q54 -34 125 -34zM435 738q32 0 70 33q1 1 4 -5q5 -15 4 -21q-12 -20 -44.5 -40t-59.5 -20q-18 0 -66 16q-32 8 -39 8q-24 0 -61 -30q-1 -1 -4.5 4t-5.5 11.5t-1 7.5q10 15 42 37.5t52 22.5t61 -13q31 -11 48 -11z
" />
    <glyph glyph-name="Odieresis" unicode="&#xd6;" horiz-adv-x="746" 
d="M367 -18q-141 0 -226 91q-86 95 -86 240q0 108 62 193q41 57 115 92t152 35q74 0 133.5 -25.5t97 -69.5t57 -99.5t19.5 -117.5q0 -123 -61 -208q-45 -63 -115.5 -97t-147.5 -34zM405 26q66 0 107 35q84 68 84 225q0 85 -29 156t-86 111q-58 40 -131 40q-51 0 -90 -22
q-53 -31 -80 -93.5t-27 -141.5q0 -84 32 -159.5t95 -116.5q54 -34 125 -34zM333 729q0 -34 -20 -47q-4 -3 -21 -4.5t-22 1.5q-21 10 -25 40q0 22 5 28q18 18 46 18q24 0 27 -9q10 -12 10 -27zM501 729q0 -34 -20 -47q-4 -3 -21 -4.5t-22 1.5q-19 9 -25 40q-3 16 5 28
q18 18 47 18q18 0 27 -9q9 -11 9 -27z" />
    <glyph glyph-name="multiply" unicode="&#xd7;" horiz-adv-x="547" 
d="M433 446q1 4 21.5 7.5t40.5 4.5q2 -1 2.5 -5t-0.5 -6q-20 -27 -47.5 -59.5t-45.5 -52.5t-52.5 -58t-42.5 -47v-8q32 -38 95.5 -104.5t88.5 -87.5q0 -10 -4 -11q-9 -2 -39 1.5t-39 10.5q-37 31 -143 148q-4 4 -7 -1q-127 -139 -140 -148q-21 -14 -67 -14q-2 1 -3.5 4.5
t-0.5 5.5q13 11 84 87t93 102q3 6 0 9q-119 131 -171 195q0 5 12.5 23.5t17.5 23.5q7 3 10 0q5 -9 74.5 -90.5t102.5 -114.5q138 154 160 185z" />
    <glyph glyph-name="Oslash" unicode="&#xd8;" horiz-adv-x="746" 
d="M190 32l-49 -66q-1 -2 -16 2t-20 7l-1 4l56 75q-52 46 -78.5 115t-26.5 144q0 108 62 193q41 57 115 92t152 35q91 0 173 -45l41 55q2 2 15 0.5t21 -4.5v-5l-49 -68q52 -43 79 -108t27 -137q0 -123 -61 -208q-45 -63 -115.5 -97t-147.5 -34q-101 0 -177 50zM211 123
l302 408q-64 62 -162 62q-49 0 -90 -22q-53 -31 -80.5 -93.5t-27.5 -141.5q0 -124 58 -213zM537 501l-302 -408q64 -68 169 -68q65 0 108 35q86 69 86 226q0 138 -61 215z" />
    <glyph glyph-name="Ugrave" unicode="&#xd9;" horiz-adv-x="705" 
d="M25 590q-3 2 -2.5 14t3.5 14q5 0 52.5 -1.5t74.5 -1.5q26 0 67 1.5t51 1.5q3 -2 3 -14t-3 -14l-47 -9q-17 -5 -23 -16t-7 -37q-3 -168 1 -286q3 -71 19 -102q16 -45 60.5 -73t112.5 -28q35 0 61.5 7t52 25t41 56t18.5 95q8 146 2 290q-1 37 -10.5 50.5t-34.5 18.5
q-6 2 -13.5 3t-18.5 3t-19 3q-3 3 -2.5 14.5t3.5 13.5q4 0 45 -1.5t75 -1.5q26 0 64 1.5t43 1.5q2 -2 2.5 -14t-2.5 -14q-6 -2 -21 -5t-21 -5q-21 -6 -28 -21.5t-8 -52.5q-1 -46 -2.5 -106.5t-2.5 -86.5t-2.5 -59.5t-4.5 -54t-8 -41.5q-14 -64 -53 -105t-85.5 -56
t-103.5 -15q-219 0 -241 181q-5 38 -6.5 202.5t-1.5 165.5q-2 40 -28 49q-7 2 -52 10zM298 796q13 -9 58.5 -57t57.5 -65q2 -2 -7 -12t-12 -10q-5 0 -78.5 43t-84.5 53q-2 2 -2 7t2 6q7 7 31 20.5t35 14.5z" />
    <glyph glyph-name="Uacute" unicode="&#xda;" horiz-adv-x="705" 
d="M25 590q-3 2 -2.5 14t3.5 14q5 0 52.5 -1.5t74.5 -1.5q26 0 67 1.5t51 1.5q3 -2 3 -14t-3 -14l-47 -9q-17 -5 -23 -16t-7 -37q-3 -168 1 -286q3 -71 19 -102q16 -45 60.5 -73t112.5 -28q35 0 61.5 7t52 25t41 56t18.5 95q8 146 2 290q-1 37 -10.5 50.5t-34.5 18.5
q-6 2 -13.5 3t-18.5 3t-19 3q-3 3 -2.5 14.5t3.5 13.5q4 0 45 -1.5t75 -1.5q26 0 64 1.5t43 1.5q2 -2 2.5 -14t-2.5 -14q-6 -2 -21 -5t-21 -5q-21 -6 -28 -21.5t-8 -52.5q-1 -46 -2.5 -106.5t-2.5 -86.5t-2.5 -59.5t-4.5 -54t-8 -41.5q-14 -64 -53 -105t-85.5 -56
t-103.5 -15q-219 0 -241 181q-5 38 -6.5 202.5t-1.5 165.5q-2 40 -28 49q-7 2 -52 10zM442 795q11 -1 32 -13t28 -21q2 -2 2 -7t-2 -6q-10 -11 -84 -53.5t-81 -42.5q-2 0 -9 10t-6 11q9 13 59.5 64.5t60.5 57.5z" />
    <glyph glyph-name="Ucircumflex" unicode="&#xdb;" horiz-adv-x="705" 
d="M25 590q-3 2 -2.5 14t3.5 14q5 0 52.5 -1.5t74.5 -1.5q26 0 67 1.5t51 1.5q3 -2 3 -14t-3 -14l-47 -9q-17 -5 -23 -16t-7 -37q-3 -168 1 -286q3 -71 19 -102q16 -45 60.5 -73t112.5 -28q35 0 61.5 7t52 25t41 56t18.5 95q8 146 2 290q-1 37 -10.5 50.5t-34.5 18.5
q-6 2 -13.5 3t-18.5 3t-19 3q-3 3 -2.5 14.5t3.5 13.5q4 0 45 -1.5t75 -1.5q26 0 64 1.5t43 1.5q2 -2 2.5 -14t-2.5 -14q-6 -2 -21 -5t-21 -5q-21 -6 -28 -21.5t-8 -52.5q-1 -46 -2.5 -106.5t-2.5 -86.5t-2.5 -59.5t-4.5 -54t-8 -41.5q-14 -64 -53 -105t-85.5 -56
t-103.5 -15q-219 0 -241 181q-5 38 -6.5 202.5t-1.5 165.5q-2 40 -28 49q-7 2 -52 10zM358 783q3 3 21 7q9 -10 59.5 -51.5t69.5 -54.5q0 -4 -6 -13.5t-9 -9.5q-5 0 -57 23t-64 30q-7 2 -10 0q-15 -9 -61.5 -31t-50.5 -22t-9.5 9t-4.5 14q89 66 122 99z" />
    <glyph glyph-name="Udieresis" unicode="&#xdc;" horiz-adv-x="705" 
d="M25 590q-3 2 -2.5 14t3.5 14q5 0 52.5 -1.5t74.5 -1.5q26 0 67 1.5t51 1.5q3 -2 3 -14t-3 -14l-47 -9q-17 -5 -23 -16t-7 -37q-3 -168 1 -286q3 -71 19 -102q16 -45 60.5 -73t112.5 -28q35 0 61.5 7t52 25t41 56t18.5 95q8 146 2 290q-1 37 -10.5 50.5t-34.5 18.5
q-6 2 -13.5 3t-18.5 3t-19 3q-3 3 -2.5 14.5t3.5 13.5q4 0 45 -1.5t75 -1.5q26 0 64 1.5t43 1.5q2 -2 2.5 -14t-2.5 -14q-6 -2 -21 -5t-21 -5q-21 -6 -28 -21.5t-8 -52.5q-1 -46 -2.5 -106.5t-2.5 -86.5t-2.5 -59.5t-4.5 -54t-8 -41.5q-14 -64 -53 -105t-85.5 -56
t-103.5 -15q-219 0 -241 181q-5 38 -6.5 202.5t-1.5 165.5q-2 40 -28 49q-7 2 -52 10zM332 723q0 -34 -20 -47q-4 -3 -21 -4.5t-22 1.5q-21 10 -25 40q0 22 5 28q18 18 46 18q24 0 27 -9q10 -12 10 -27zM500 723q0 -34 -20 -47q-4 -3 -21 -4.5t-22 1.5q-19 9 -25 40
q-3 16 5 28q18 18 47 18q18 0 27 -9q9 -11 9 -27z" />
    <glyph glyph-name="Yacute" unicode="&#xdd;" horiz-adv-x="564" 
d="M-18 590q-2 3 -1.5 14t3.5 14q10 0 54 -1.5t70 -1.5q75 0 111 3q4 -2 4.5 -13.5t-3.5 -14.5q-32 -6 -36 -7q-18 -6 -7 -28q19 -41 64.5 -128.5t61.5 -114.5q5 0 6 1q28 46 69.5 121.5t54.5 108.5q15 32 -20 39q-7 2 -22.5 4t-24.5 4q-3 4 -2 15.5t5 12.5q90 -3 110 -3
q55 0 106 3q4 -1 4 -13.5t-3 -14.5l-42 -8q-22 -6 -36 -19t-34 -45q-78 -121 -140 -243q-8 -18 -8 -35q0 -38 2 -140q1 -34 7 -48t26 -18q16 -4 61 -9q2 -3 1 -14.5t-4 -13.5q-8 0 -56.5 1.5t-81.5 1.5q-41 0 -88 -1.5t-56 -1.5q-3 2 -3 14t3 14q50 6 68 10q19 5 26 17.5
t8 37.5q1 49 1 129q0 29 -8 48q-26 60 -120 231q-29 50 -43 64t-41 21q-4 1 -46 7zM377 794q11 -1 32 -13t28 -21q1 -2 1 -7t-1 -6q-10 -11 -84 -53.5t-81 -42.5q-2 0 -9 10t-6 11q9 13 59.5 64.5t60.5 57.5z" />
    <glyph glyph-name="Thorn" unicode="&#xde;" horiz-adv-x="543" 
d="M33 25q40 6 49 8q19 6 26 17.5t8 41.5q2 34 2 226q0 180 -1 210q-2 27 -9 39t-28 16q-34 6 -47 7q-2 4 -0.5 15.5t3.5 12.5q9 0 48 -1t74 -2q26 0 68 1.5t53 1.5q3 -4 3 -14t-3 -14q-38 -5 -49 -8q-16 -4 -20 -12.5t-6 -33.5v-46q0 -4 4 -4q70 2 102 2q94 0 141 -37
q56 -44 56 -130q0 -109 -98 -160q-49 -25 -113 -25q-34 0 -52 6q-7 6 -7 23q-1 2 1 9q15 -3 40 -3q47 0 81 16q57 33 57 118q0 148 -164 148q-34 0 -41 -6q-6 -2 -8 -13q0 -1 0.5 -64t0.5 -138q0 -101 2 -151q1 -22 8.5 -32t27.5 -14q14 -3 58 -9q2 -3 2 -14.5t-2 -14.5
q-13 0 -63 1.5t-71 1.5q-27 0 -77 -1.5t-56 -1.5q-2 4 -2.5 14.5t2.5 13.5z" />
    <glyph glyph-name="germandbls" unicode="&#xdf;" horiz-adv-x="491" 
d="M82 347l-61 4q-2 16 8 29q37 6 54 17q0 96 26 149.5t76 91.5q51 40 109 40q56 0 93.5 -39.5t37.5 -102.5q0 -37 -19 -67q-16 -23 -66 -81q-17 -19 -17 -31q0 -5 3.5 -11t13 -15t17 -16t24 -21.5t26.5 -23.5q52 -45 52 -104t-32 -100.5t-73 -61.5q-32 -16 -67 -16
q-17 0 -34.5 6t-23.5 16q-4 18 5 54q1 6 6 8q40 -34 82 -34q73 0 73 76q0 51 -58 106q-17 15 -38 32.5t-34 28t-18 16.5q-5 5 -2.5 23t8.5 24q32 29 59 60q48 50 48 113q0 45 -28 82t-74 37q-52 0 -76.5 -64t-23.5 -213q0 -213 1 -289q0 -29 22 -37q10 -4 34 -7
q2 -3 1 -14.5t-3 -14.5q-6 0 -44 1.5t-53 1.5q-16 0 -97 -3q-2 4 -2.5 14.5t2.5 14.5q13 1 36 6q15 5 20.5 13t5.5 26z" />
    <glyph glyph-name="agrave" unicode="&#xe0;" horiz-adv-x="406" 
d="M252 260q0 38 -15 59q-26 38 -76 38q-27 0 -40 -10q-18 -13 -42 -72q-1 -2 -8.5 1t-14 9t-6.5 10q2 11 10.5 33t12.5 26q31 22 71.5 38.5t59.5 16.5q64 0 99 -53q23 -38 23 -99q0 -27 -2 -89t-2 -80q0 -40 38 -40q20 0 35 5q1 -3 -0.5 -15.5t-3.5 -14.5q-32 -35 -82 -35
q-39 0 -51 26q-3 4 -8 25q0 1 -1.5 1.5t-2.5 -0.5q-83 -52 -119 -52q-28 0 -55 25q-34 37 -34 88q0 13 6.5 31.5t11.5 25.5q17 9 93.5 32.5t95.5 32.5q6 3 6 10q1 4 1 27zM251 189q0 1 -2 3t-3 1q-108 -38 -119 -46q-3 -2 -6.5 -13t-3.5 -19q0 -30 19 -49t51 -19q28 0 51 16
q9 5 11 23q2 21 2 103zM176 618q25 -52 59 -157q-1 -4 -11 -9t-13 -4q-18 21 -58 75.5t-53 73.5q-3 5 3 11q8 3 36.5 7.5t36.5 2.5z" />
    <glyph glyph-name="aacute" unicode="&#xe1;" horiz-adv-x="406" 
d="M252 260q0 38 -15 59q-26 38 -76 38q-27 0 -40 -10q-18 -13 -42 -72q-1 -2 -8.5 1t-14 9t-6.5 10q2 11 10.5 33t12.5 26q31 22 71.5 38.5t59.5 16.5q64 0 99 -53q23 -38 23 -99q0 -27 -2 -89t-2 -80q0 -40 38 -40q20 0 35 5q1 -3 -0.5 -15.5t-3.5 -14.5q-32 -35 -82 -35
q-39 0 -51 26q-3 4 -8 25q0 1 -1.5 1.5t-2.5 -0.5q-83 -52 -119 -52q-28 0 -55 25q-34 37 -34 88q0 13 6.5 31.5t11.5 25.5q17 9 93.5 32.5t95.5 32.5q6 3 6 10q1 4 1 27zM251 189q0 1 -2 3t-3 1q-108 -38 -119 -46q-3 -2 -6.5 -13t-3.5 -19q0 -30 19 -49t51 -19q28 0 51 16
q9 5 11 23q2 21 2 103zM226 607q8 4 38.5 7t37.5 1q4 -2 4 -11q-10 -18 -56 -78.5t-66 -83.5q-3 0 -12 6t-10 9q51 125 64 150z" />
    <glyph glyph-name="acircumflex" unicode="&#xe2;" horiz-adv-x="406" 
d="M252 260q0 38 -15 59q-26 38 -76 38q-27 0 -40 -10q-18 -13 -42 -72q-1 -2 -8.5 1t-14 9t-6.5 10q2 11 10.5 33t12.5 26q31 22 71.5 38.5t59.5 16.5q64 0 99 -53q23 -38 23 -99q0 -27 -2 -89t-2 -80q0 -40 38 -40q20 0 35 5q1 -3 -0.5 -15.5t-3.5 -14.5q-32 -35 -82 -35
q-39 0 -51 26q-3 4 -8 25q0 1 -1.5 1.5t-2.5 -0.5q-83 -52 -119 -52q-28 0 -55 25q-34 37 -34 88q0 13 6.5 31.5t11.5 25.5q17 9 93.5 32.5t95.5 32.5q6 3 6 10q1 4 1 27zM251 189q0 1 -2 3t-3 1q-108 -38 -119 -46q-3 -2 -6.5 -13t-3.5 -19q0 -30 19 -49t51 -19q28 0 51 16
q9 5 11 23q2 21 2 103zM189 543q-13 -24 -32.5 -53.5t-25.5 -33.5q-5 -4 -17 -6.5t-17 -1.5q-3 0 -3 5q71 118 88 157q1 2 13.5 6t15.5 4q12 -28 43 -85.5t43 -74.5q-2 -4 -17 -9t-22 -5q-14 5 -64 97q-1 1 -2.5 1t-2.5 -1z" />
    <glyph glyph-name="atilde" unicode="&#xe3;" horiz-adv-x="406" 
d="M252 260q0 38 -15 59q-26 38 -76 38q-27 0 -40 -10q-18 -13 -42 -72q-1 -2 -8.5 1t-14 9t-6.5 10q2 11 10.5 33t12.5 26q31 22 71.5 38.5t59.5 16.5q64 0 99 -53q23 -38 23 -99q0 -27 -2 -89t-2 -80q0 -40 38 -40q20 0 35 5q1 -3 -0.5 -15.5t-3.5 -14.5q-32 -35 -82 -35
q-39 0 -51 26q-3 4 -8 25q0 1 -1.5 1.5t-2.5 -0.5q-83 -52 -119 -52q-28 0 -55 25q-34 37 -34 88q0 13 6.5 31.5t11.5 25.5q17 9 93.5 32.5t95.5 32.5q6 3 6 10q1 4 1 27zM251 189q0 1 -2 3t-3 1q-108 -38 -119 -46q-3 -2 -6.5 -13t-3.5 -19q0 -30 19 -49t51 -19q28 0 51 16
q9 5 11 23q2 21 2 103zM254 540q33 0 66 33q5 0 5 -4q3 -15 -4 -26q-11 -19 -38.5 -37t-51.5 -18q-17 0 -63 15q-22 8 -37 8q-27 0 -60 -31q-3 -3 -6 4q-1 4 0.5 13.5t3.5 11.5q9 14 37 34.5t46 20.5q17 0 56 -12q34 -12 46 -12z" />
    <glyph glyph-name="adieresis" unicode="&#xe4;" horiz-adv-x="406" 
d="M252 260q0 38 -15 59q-26 38 -76 38q-27 0 -40 -10q-18 -13 -42 -72q-1 -2 -8.5 1t-14 9t-6.5 10q2 11 10.5 33t12.5 26q31 22 71.5 38.5t59.5 16.5q64 0 99 -53q23 -38 23 -99q0 -27 -2 -89t-2 -80q0 -40 38 -40q20 0 35 5q1 -3 -0.5 -15.5t-3.5 -14.5q-32 -35 -82 -35
q-39 0 -51 26q-3 4 -8 25q0 1 -1.5 1.5t-2.5 -0.5q-83 -52 -119 -52q-28 0 -55 25q-34 37 -34 88q0 13 6.5 31.5t11.5 25.5q17 9 93.5 32.5t95.5 32.5q6 3 6 10q1 4 1 27zM251 189q0 1 -2 3t-3 1q-108 -38 -119 -46q-3 -2 -6.5 -13t-3.5 -19q0 -30 19 -49t51 -19q28 0 51 16
q9 5 11 23q2 21 2 103zM158 551q0 -30 -20 -45q-3 -2 -20 -3.5t-22 1.5q-19 10 -23 38q0 22 5 28q16 16 42 16q24 0 29 -8q9 -11 9 -27zM322 551q0 -31 -19 -45q-3 -2 -20 -3t-22 1q-19 10 -23 38q0 22 5 28q16 16 43 16q23 0 28 -8q8 -10 8 -27z" />
    <glyph glyph-name="aring" unicode="&#xe5;" horiz-adv-x="406" 
d="M252 260q0 38 -15 59q-26 38 -76 38q-27 0 -40 -10q-18 -13 -42 -72q-1 -2 -8.5 1t-14 9t-6.5 10q2 11 10.5 33t12.5 26q31 22 71.5 38.5t59.5 16.5q64 0 99 -53q23 -38 23 -99q0 -27 -2 -89t-2 -80q0 -40 38 -40q20 0 35 5q1 -3 -0.5 -15.5t-3.5 -14.5q-32 -35 -82 -35
q-39 0 -51 26q-3 4 -8 25q0 1 -1.5 1.5t-2.5 -0.5q-83 -52 -119 -52q-28 0 -55 25q-34 37 -34 88q0 13 6.5 31.5t11.5 25.5q17 9 93.5 32.5t95.5 32.5q6 3 6 10q1 4 1 27zM251 189q0 1 -2 3t-3 1q-108 -38 -119 -46q-3 -2 -6.5 -13t-3.5 -19q0 -30 19 -49t51 -19q28 0 51 16
q9 5 11 23q2 21 2 103zM197 609q33 0 52 -21.5t19 -52.5q0 -35 -22 -56.5t-53 -21.5q-28 0 -50.5 18.5t-22.5 55.5q0 34 21.5 56t55.5 22zM193 572q-43 0 -43 -40q0 -17 13.5 -27t33.5 -10q17 0 30 10.5t13 25.5q0 41 -47 41z" />
    <glyph glyph-name="ae" unicode="&#xe6;" horiz-adv-x="617" 
d="M136 -12q-15 0 -33.5 8t-29.5 20q-34 34 -34 86q0 26 17 56q19 11 100 33t90 25q4 2 7 9q1 9 1 33q0 37 -17 63q-25 38 -75 38q-28 0 -41 -10q-14 -10 -41 -72q-2 -2 -16.5 6t-13.5 12q2 11 10 32.5t12 25.5q31 23 71.5 39.5t60.5 16.5q64 0 99 -56q5 -3 7 -1
q31 28 66.5 42.5t61.5 14.5q101 0 128 -116q0 -2 5 -6t11 -6q0 -12 -7 -21q-20 -6 -247 -60q-4 0 -4 -8q2 -57 39 -97q42 -44 103 -44q62 0 117 43q1 -4 1 -15.5t-1 -14.5q-31 -35 -76.5 -56t-81.5 -21q-85 0 -139 69q-2 3 -6 1q-88 -68 -144 -69zM251 181q0 1 -2 3t-3 1
q-113 -33 -120 -37q-3 -1 -6 -12.5t-3 -19.5q0 -30 18.5 -48.5t50.5 -18.5q44 0 81 32q3 5 2 10q-18 41 -18 90zM403 371q-37 0 -59.5 -37t-21.5 -95q0 -7 5 -7q106 22 159 39q5 3 5 10q-6 34 -28 62t-60 28z" />
    <glyph glyph-name="ccedilla" unicode="&#xe7;" horiz-adv-x="405" 
d="M383 67q-50 -60 -123 -75l-22 -30q25 -14 43 -29q22 -21 22 -48q0 -40 -39 -67.5t-68 -27.5q-34 0 -52 27q-2 17 3 25q30 -15 60 -15q18 0 29.5 9t11.5 23q0 34 -70 59q-1 6 0 8q28 38 47 62h-3q-91 1 -141 69q-39 56 -39 134q0 117 101 177q66 41 127 41q46 0 82 -15
q25 -13 30 -26q0 -8 -2 -16q-4 -11 -15.5 -24.5t-18.5 -16.5q-2 -1 -5 -1t-5 1q-53 53 -110 53q-53 0 -80 -39.5t-27 -95.5q0 -79 37 -123q42 -52 113 -52q62 0 114 48q5 0 5 -6q0 -22 -5 -29z" />
    <glyph glyph-name="egrave" unicode="&#xe8;" horiz-adv-x="420" 
d="M381 96q3 -3 4 -6q2 -16 -5 -27q-31 -35 -76.5 -55t-82.5 -20q-76 0 -122 48q-57 57 -57 159q0 122 88 181q51 33 108 33q65 0 98.5 -44t41.5 -98q2 -7 15 -11q1 -3 -2.5 -12t-5.5 -11q-60 -17 -262 -22q-6 -1 -6 -11q4 -62 41 -102q43 -44 109 -44q62 0 114 42zM207 371
q-36 0 -60 -31t-28 -84q0 -7 5 -7q24 -2 89.5 0.5t80.5 5.5q5 5 5 9q-4 41 -29 74t-63 33zM201 616q25 -52 59 -157q-1 -4 -11 -9t-13 -4q-18 21 -58 75.5t-53 73.5q-3 5 3 11q8 3 36.5 7.5t36.5 2.5z" />
    <glyph glyph-name="eacute" unicode="&#xe9;" horiz-adv-x="420" 
d="M381 96q3 -3 4 -6q2 -16 -5 -27q-31 -35 -76.5 -55t-82.5 -20q-76 0 -122 48q-57 57 -57 159q0 122 88 181q51 33 108 33q65 0 98.5 -44t41.5 -98q2 -7 15 -11q1 -3 -2.5 -12t-5.5 -11q-60 -17 -262 -22q-6 -1 -6 -11q4 -62 41 -102q43 -44 109 -44q62 0 114 42zM207 371
q-36 0 -60 -31t-28 -84q0 -7 5 -7q24 -2 89.5 0.5t80.5 5.5q5 5 5 9q-4 41 -29 74t-63 33zM247 610q8 4 38.5 7t37.5 1q4 -2 4 -11q-10 -18 -56 -78.5t-66 -83.5q-3 0 -12 6t-10 9q51 125 64 150z" />
    <glyph glyph-name="ecircumflex" unicode="&#xea;" horiz-adv-x="420" 
d="M381 96q3 -3 4 -6q2 -16 -5 -27q-31 -35 -76.5 -55t-82.5 -20q-76 0 -122 48q-57 57 -57 159q0 122 88 181q51 33 108 33q65 0 98.5 -44t41.5 -98q2 -7 15 -11q1 -3 -2.5 -12t-5.5 -11q-60 -17 -262 -22q-6 -1 -6 -11q4 -62 41 -102q43 -44 109 -44q62 0 114 42zM207 371
q-36 0 -60 -31t-28 -84q0 -7 5 -7q24 -2 89.5 0.5t80.5 5.5q5 5 5 9q-4 41 -29 74t-63 33zM219 543q-13 -24 -32.5 -53.5t-25.5 -33.5q-5 -4 -17 -6.5t-17 -1.5q-3 0 -3 5q71 118 88 157q1 2 13.5 6t15.5 4q12 -28 43 -85.5t43 -74.5q-2 -4 -17 -9t-22 -5q-14 5 -64 97
q-1 1 -2.5 1t-2.5 -1z" />
    <glyph glyph-name="edieresis" unicode="&#xeb;" horiz-adv-x="420" 
d="M381 96q3 -3 4 -6q2 -16 -5 -27q-31 -35 -76.5 -55t-82.5 -20q-76 0 -122 48q-57 57 -57 159q0 122 88 181q51 33 108 33q65 0 98.5 -44t41.5 -98q2 -7 15 -11q1 -3 -2.5 -12t-5.5 -11q-60 -17 -262 -22q-6 -1 -6 -11q4 -62 41 -102q43 -44 109 -44q62 0 114 42zM207 371
q-36 0 -60 -31t-28 -84q0 -7 5 -7q24 -2 89.5 0.5t80.5 5.5q5 5 5 9q-4 41 -29 74t-63 33zM188 551q0 -30 -20 -45q-3 -2 -20 -3.5t-22 1.5q-19 10 -23 38q0 22 5 28q16 16 42 16q24 0 29 -8q9 -11 9 -27zM352 551q0 -31 -19 -45q-3 -2 -20 -3t-22 1q-19 10 -23 38
q0 22 5 28q16 16 43 16q23 0 28 -8q8 -10 8 -27z" />
    <glyph glyph-name="igrave" unicode="&#xec;" horiz-adv-x="238" 
d="M223 26q2 -4 0.5 -15.5t-4.5 -13.5q-5 0 -38 1.5t-63 1.5q-24 0 -58.5 -1.5t-39.5 -1.5q-2 3 -2 14.5t2 14.5q25 3 43 9q9 4 12.5 11t5.5 25q2 25 2 146q0 22 -0.5 54.5t-0.5 40.5q0 13 -7 21q-11 11 -48 24q-2 3 -0.5 12.5t4.5 11.5q65 2 130 29q0 -20 -0.5 -81
t-0.5 -94q0 -122 1 -167q0 -27 21 -34q26 -6 41 -8zM92 615q25 -52 59 -157q-1 -4 -11 -9t-13 -4q-18 21 -58 75.5t-53 73.5q-3 5 3 11q8 3 36.5 7.5t36.5 2.5z" />
    <glyph glyph-name="iacute" unicode="&#xed;" horiz-adv-x="238" 
d="M223 26q2 -4 0.5 -15.5t-4.5 -13.5q-5 0 -38 1.5t-63 1.5q-24 0 -58.5 -1.5t-39.5 -1.5q-2 3 -2 14.5t2 14.5q25 3 43 9q9 4 12.5 11t5.5 25q2 25 2 146q0 22 -0.5 54.5t-0.5 40.5q0 13 -7 21q-11 11 -48 24q-2 3 -0.5 12.5t4.5 11.5q65 2 130 29q0 -20 -0.5 -81
t-0.5 -94q0 -122 1 -167q0 -27 21 -34q26 -6 41 -8zM147 607q8 4 38.5 7t37.5 1q4 -2 4 -11q-10 -18 -56 -78.5t-66 -83.5q-3 0 -12 6t-10 9q51 125 64 150z" />
    <glyph glyph-name="icircumflex" unicode="&#xee;" horiz-adv-x="238" 
d="M223 26q2 -4 0.5 -15.5t-4.5 -13.5q-5 0 -38 1.5t-63 1.5q-24 0 -58.5 -1.5t-39.5 -1.5q-2 3 -2 14.5t2 14.5q25 3 43 9q9 4 12.5 11t5.5 25q2 25 2 146q0 22 -0.5 54.5t-0.5 40.5q0 13 -7 21q-11 11 -48 24q-2 3 -0.5 12.5t4.5 11.5q65 2 130 29q0 -20 -0.5 -81
t-0.5 -94q0 -122 1 -167q0 -27 21 -34q26 -6 41 -8zM106 543q-13 -24 -32.5 -53.5t-25.5 -33.5q-5 -4 -17 -6.5t-17 -1.5q-3 0 -3 5q71 118 88 157q1 2 13.5 6t15.5 4q12 -28 43 -85.5t43 -74.5q-2 -4 -17 -9t-22 -5q-14 5 -64 97q-1 1 -2.5 1t-2.5 -1z" />
    <glyph glyph-name="idieresis" unicode="&#xef;" horiz-adv-x="238" 
d="M223 26q2 -4 0.5 -15.5t-4.5 -13.5q-5 0 -38 1.5t-63 1.5q-24 0 -58.5 -1.5t-39.5 -1.5q-2 3 -2 14.5t2 14.5q25 3 43 9q9 4 12.5 11t5.5 25q2 25 2 146q0 22 -0.5 54.5t-0.5 40.5q0 13 -7 21q-11 11 -48 24q-2 3 -0.5 12.5t4.5 11.5q65 2 130 29q0 -20 -0.5 -81
t-0.5 -94q0 -122 1 -167q0 -27 21 -34q26 -6 41 -8zM79 551q0 -30 -20 -45q-3 -2 -20 -3.5t-22 1.5q-19 10 -23 38q0 22 5 28q16 16 42 16q24 0 29 -8q9 -11 9 -27zM243 551q0 -31 -19 -45q-3 -2 -20 -3t-22 1q-19 10 -23 38q0 22 5 28q16 16 43 16q23 0 28 -8q8 -10 8 -27z
" />
    <glyph glyph-name="eth" unicode="&#xf0;" horiz-adv-x="483" 
d="M253 23q45 0 74.5 45.5t29.5 142.5q0 82 -17 108q-35 54 -108 54q-41 0 -73 -37t-32 -113q0 -93 36.5 -146.5t89.5 -53.5zM414 584l-84 -40q51 -57 80 -131.5t29 -153.5q0 -175 -108 -245q-42 -26 -98 -26q-91 0 -141 59.5t-50 146.5q0 112 86 172q58 42 127 42
q41 0 79 -12q-26 76 -64 121l-124 -54q-3 3 -3.5 17.5t3.5 17.5l99 45q-64 72 -175 108q0 6 3.5 15t7.5 11q45 -5 109 -34.5t114 -73.5l109 51q1 0 2.5 -8t1 -17t-2.5 -11z" />
    <glyph glyph-name="ntilde" unicode="&#xf1;" horiz-adv-x="500" 
d="M24 26q19 3 36 7q19 6 21 35q2 31 2 164q0 50 -2 80q-4 20 -52 38q-2 5 0 13t5 10q69 7 123 37q4 -4 4 -7q-2 -22 -2 -57q0 -4 5 -2q79 65 136 65q61 0 96 -52q26 -41 26 -118q0 -146 2 -181q0 -15 10 -19q16 -8 50 -13q2 -4 1.5 -14.5t-4.5 -14.5q-2 0 -33.5 1.5
t-62.5 1.5q-27 0 -99 -3q-2 3 -2.5 14.5t2.5 14.5q29 3 41 7q17 6 18 41q3 152 -3 194q-5 40 -28 59q-25 23 -62 23q-46 0 -83 -32q-10 -10 -10 -36q0 -168 2 -214q1 -29 19 -34q12 -4 42 -8q2 -3 1 -14t-4 -15q-3 0 -34.5 1.5t-63.5 1.5q-29 0 -62.5 -1.5t-34.5 -1.5
q-3 3 -3 14.5t3 14.5zM310 540q33 0 66 33q5 0 5 -4q3 -15 -4 -26q-11 -19 -38.5 -37t-51.5 -18q-17 0 -63 15q-22 8 -37 8q-27 0 -60 -31q-3 -3 -6 4q-1 4 0.5 13.5t3.5 11.5q9 14 37 34.5t46 20.5q17 0 56 -12q34 -12 46 -12z" />
    <glyph glyph-name="ograve" unicode="&#xf2;" horiz-adv-x="492" 
d="M260 409q88 0 139 -57t51 -144q0 -124 -93 -183q-55 -37 -116 -37q-101 0 -150 63t-49 151q0 107 87 167q63 40 131 40zM226 370q-28 0 -48 -14q-51 -33 -51 -129q0 -88 39 -143t100 -55q39 0 61 21q38 35 38 126q0 87 -38 140.5t-101 53.5zM219 616q25 -52 59 -157
q-1 -4 -11 -9t-13 -4q-18 21 -58 75.5t-53 73.5q-3 5 3 11q8 3 36.5 7.5t36.5 2.5z" />
    <glyph glyph-name="oacute" unicode="&#xf3;" horiz-adv-x="492" 
d="M260 409q88 0 139 -57t51 -144q0 -124 -93 -183q-55 -37 -116 -37q-101 0 -150 63t-49 151q0 107 87 167q63 40 131 40zM226 370q-28 0 -48 -14q-51 -33 -51 -129q0 -88 39 -143t100 -55q39 0 61 21q38 35 38 126q0 87 -38 140.5t-101 53.5zM269 607q8 4 38.5 7t37.5 1
q4 -2 4 -11q-10 -18 -56 -78.5t-66 -83.5q-3 0 -12 6t-10 9q51 125 64 150z" />
    <glyph glyph-name="ocircumflex" unicode="&#xf4;" horiz-adv-x="492" 
d="M260 409q88 0 139 -57t51 -144q0 -124 -93 -183q-55 -37 -116 -37q-101 0 -150 63t-49 151q0 107 87 167q63 40 131 40zM226 370q-28 0 -48 -14q-51 -33 -51 -129q0 -88 39 -143t100 -55q39 0 61 21q38 35 38 126q0 87 -38 140.5t-101 53.5zM238 543q-13 -24 -32.5 -53.5
t-25.5 -33.5q-5 -4 -17 -6.5t-17 -1.5q-3 0 -3 5q71 118 88 157q1 2 13.5 6t15.5 4q12 -28 43 -85.5t43 -74.5q-2 -4 -17 -9t-22 -5q-14 5 -64 97q-1 1 -2.5 1t-2.5 -1z" />
    <glyph glyph-name="otilde" unicode="&#xf5;" horiz-adv-x="492" 
d="M260 409q88 0 139 -57t51 -144q0 -124 -93 -183q-55 -37 -116 -37q-101 0 -150 63t-49 151q0 107 87 167q63 40 131 40zM226 370q-28 0 -48 -14q-51 -33 -51 -129q0 -88 39 -143t100 -55q39 0 61 21q38 35 38 126q0 87 -38 140.5t-101 53.5zM306 540q33 0 66 33q5 0 5 -4
q3 -15 -4 -26q-11 -19 -38.5 -37t-51.5 -18q-17 0 -63 15q-22 8 -37 8q-27 0 -60 -31q-3 -3 -6 4q-1 4 0.5 13.5t3.5 11.5q9 14 37 34.5t46 20.5q17 0 56 -12q34 -12 46 -12z" />
    <glyph glyph-name="odieresis" unicode="&#xf6;" horiz-adv-x="492" 
d="M260 409q88 0 139 -57t51 -144q0 -124 -93 -183q-55 -37 -116 -37q-101 0 -150 63t-49 151q0 107 87 167q63 40 131 40zM226 370q-28 0 -48 -14q-51 -33 -51 -129q0 -88 39 -143t100 -55q39 0 61 21q38 35 38 126q0 87 -38 140.5t-101 53.5zM206 551q0 -30 -20 -45
q-3 -2 -20 -3.5t-22 1.5q-19 10 -23 38q0 22 5 28q16 16 42 16q24 0 29 -8q9 -11 9 -27zM370 551q0 -31 -19 -45q-3 -2 -20 -3t-22 1q-19 10 -23 38q0 22 5 28q16 16 43 16q23 0 28 -8q8 -10 8 -27z" />
    <glyph glyph-name="divide" unicode="&#xf7;" horiz-adv-x="544" 
d="M320 409q0 -27 -25 -54q-3 -3 -22 -5.5t-28 3.5q-18 12 -21 39q-1 4 2 17t5 15q21 15 50 15q26 0 31 -8q8 -8 8 -22zM488 214l-442 -3q-3 0 -3 10q8 34 14 47q5 -1 114 -1h331q2 -1 2 -12q-10 -40 -16 -41zM320 104q0 -30 -18 -49q-3 -3 -24 -6.5t-30 2.5q-21 17 -24 41
q-1 3 2 15.5t5 14.5q20 16 50 16q25 0 31 -8q8 -8 8 -26z" />
    <glyph glyph-name="oslash" unicode="&#xf8;" horiz-adv-x="492" 
d="M260 409q48 0 88 -19l28 42q2 1 13 -7.5t12 -11.5l-27 -40q76 -56 76 -165q0 -124 -93 -183q-55 -37 -116 -37q-58 0 -103 24l-29 -46q-3 0 -13.5 8t-11.5 11l28 45q-70 59 -70 172q0 107 87 167q63 40 131 40zM266 28q102 0 102 148q0 83 -34 135l-157 -241
q33 -42 89 -42zM227 370q-103 0 -103 -144q0 -80 33 -128l156 238q-34 34 -86 34z" />
    <glyph glyph-name="ugrave" unicode="&#xf9;" horiz-adv-x="487" 
d="M12 361q-1 5 1 15t5 12q97 2 139 16q-6 -50 -6 -195q0 -82 5 -102q14 -58 82 -58q45 0 82 31q9 8 11 24q2 23 0 217q-2 24 -19 29q-9 3 -64 11q-2 5 0 15t5 12q105 0 159 14q-1 -8 -3 -87l-1 -226q1 -36 22 -37q6 0 42 2q1 -5 0 -15.5t-4 -13.5q-55 -22 -130 -41
q-4 0 -6 9q-1 11 -1 56q0 2 -2.5 2.5t-3.5 -0.5q-75 -63 -132 -63q-117 0 -119 135v195q-2 28 -16 34q-8 3 -46 9zM208 615q25 -52 59 -157q-1 -4 -11 -9t-13 -4q-18 21 -58 75.5t-53 73.5q-3 5 3 11q8 3 36.5 7.5t36.5 2.5z" />
    <glyph glyph-name="uacute" unicode="&#xfa;" horiz-adv-x="487" 
d="M12 361q-1 5 1 15t5 12q97 2 139 16q-6 -50 -6 -195q0 -82 5 -102q14 -58 82 -58q45 0 82 31q9 8 11 24q2 23 0 217q-2 24 -19 29q-9 3 -64 11q-2 5 0 15t5 12q105 0 159 14q-1 -8 -3 -87l-1 -226q1 -36 22 -37q6 0 42 2q1 -5 0 -15.5t-4 -13.5q-55 -22 -130 -41
q-4 0 -6 9q-1 11 -1 56q0 2 -2.5 2.5t-3.5 -0.5q-75 -63 -132 -63q-117 0 -119 135v195q-2 28 -16 34q-8 3 -46 9zM267 607q8 4 38.5 7t37.5 1q4 -2 4 -11q-10 -18 -56 -78.5t-66 -83.5q-3 0 -12 6t-10 9q51 125 64 150z" />
    <glyph glyph-name="ucircumflex" unicode="&#xfb;" horiz-adv-x="487" 
d="M12 361q-1 5 1 15t5 12q97 2 139 16q-6 -50 -6 -195q0 -82 5 -102q14 -58 82 -58q45 0 82 31q9 8 11 24q2 23 0 217q-2 24 -19 29q-9 3 -64 11q-2 5 0 15t5 12q105 0 159 14q-1 -8 -3 -87l-1 -226q1 -36 22 -37q6 0 42 2q1 -5 0 -15.5t-4 -13.5q-55 -22 -130 -41
q-4 0 -6 9q-1 11 -1 56q0 2 -2.5 2.5t-3.5 -0.5q-75 -63 -132 -63q-117 0 -119 135v195q-2 28 -16 34q-8 3 -46 9zM234 543q-13 -24 -32.5 -53.5t-25.5 -33.5q-5 -4 -17 -6.5t-17 -1.5q-3 0 -3 5q71 118 88 157q1 2 13.5 6t15.5 4q12 -28 43 -85.5t43 -74.5q-2 -4 -17 -9
t-22 -5q-14 5 -64 97q-1 1 -2.5 1t-2.5 -1z" />
    <glyph glyph-name="udieresis" unicode="&#xfc;" horiz-adv-x="487" 
d="M12 361q-1 5 1 15t5 12q97 2 139 16q-6 -50 -6 -195q0 -82 5 -102q14 -58 82 -58q45 0 82 31q9 8 11 24q2 23 0 217q-2 24 -19 29q-9 3 -64 11q-2 5 0 15t5 12q105 0 159 14q-1 -8 -3 -87l-1 -226q1 -36 22 -37q6 0 42 2q1 -5 0 -15.5t-4 -13.5q-55 -22 -130 -41
q-4 0 -6 9q-1 11 -1 56q0 2 -2.5 2.5t-3.5 -0.5q-75 -63 -132 -63q-117 0 -119 135v195q-2 28 -16 34q-8 3 -46 9zM199 551q0 -30 -20 -45q-3 -2 -20 -3.5t-22 1.5q-19 10 -23 38q0 22 5 28q16 16 42 16q24 0 29 -8q9 -11 9 -27zM363 551q0 -31 -19 -45q-3 -2 -20 -3t-22 1
q-19 10 -23 38q0 22 5 28q16 16 43 16q23 0 28 -8q8 -10 8 -27z" />
    <glyph glyph-name="yacute" unicode="&#xfd;" horiz-adv-x="431" 
d="M-8 369q-2 4 -1 16t4 13q6 0 39 -1.5t58 -1.5t61.5 1.5t40.5 1.5q3 -2 3.5 -13.5t-1.5 -15.5q-34 -7 -37 -8q-11 -4 -8 -17q12 -39 48 -133.5t42 -106.5h4q71 152 82 228q4 22 -17 29q-16 5 -44 8q-2 5 -0.5 15.5t4.5 13.5q3 0 34.5 -1.5t51.5 -1.5q9 0 93 3q3 -3 3 -14
t-2 -15q-24 -3 -36 -8q-26 -7 -39 -45q-108 -284 -236 -506q-24 -42 -31 -56l-7 -4q-11 2 -28 11t-24 16q-1 2 -1.5 8t0.5 8q106 132 147 219q0 2 -8 18q-63 163 -96 242q-20 50 -32 67.5t-33 23.5q-23 5 -34 6zM270 607q8 4 38.5 7t37.5 1q4 -2 4 -11q-10 -18 -56 -78.5
t-66 -83.5q-3 0 -12 6t-10 9q51 125 64 150z" />
    <glyph glyph-name="thorn" unicode="&#xfe;" horiz-adv-x="488" 
d="M-2 -221q25 5 44 11q26 9 27 49q2 32 3 412q0 290 -5 331q-1 25 -22 30q-14 5 -49 9q-2 4 -1 14.5t3 12.5q86 5 157 30q2 0 4.5 -5.5t1.5 -7.5q-12 -17 -12 -196v-42v-41v-26q0 -4 5 -2q86 51 134 51q71 0 114 -52q44 -52 44 -128q0 -119 -93 -187q-26 -19 -69 -35
t-78 -19q-32 0 -55 6q0 -140 1 -158q2 -18 7.5 -26t21.5 -11q25 -6 59 -9q3 -21 -5 -29h-12.5h-15.5h-11q-41 0 -197 -12q-3 5 -3 16t2 14zM231 352q-38 0 -70 -21q-8 -4 -10 -17q-1 -7 -1 -217q0 -20 14 -36q32 -27 81 -27q50 0 83 37q35 43 35 115q0 73 -32 117
q-37 49 -100 49z" />
    <glyph glyph-name="ydieresis" unicode="&#xff;" horiz-adv-x="431" 
d="M-8 369q-2 4 -1 16t4 13q6 0 39 -1.5t58 -1.5t61.5 1.5t40.5 1.5q3 -2 3.5 -13.5t-1.5 -15.5q-34 -7 -37 -8q-11 -4 -8 -17q12 -39 48 -133.5t42 -106.5h4q71 152 82 228q4 22 -17 29q-16 5 -44 8q-2 5 -0.5 15.5t4.5 13.5q3 0 34.5 -1.5t51.5 -1.5q9 0 93 3q3 -3 3 -14
t-2 -15q-24 -3 -36 -8q-26 -7 -39 -45q-108 -284 -236 -506q-24 -42 -31 -56l-7 -4q-11 2 -28 11t-24 16q-1 2 -1.5 8t0.5 8q106 132 147 219q0 2 -8 18q-63 163 -96 242q-20 50 -32 67.5t-33 23.5q-23 5 -34 6zM196 551q0 -30 -20 -45q-3 -2 -20 -3.5t-22 1.5
q-19 10 -23 38q0 22 5 28q16 16 42 16q24 0 29 -8q9 -11 9 -27zM360 551q0 -31 -19 -45q-3 -2 -20 -3t-22 1q-19 10 -23 38q0 22 5 28q16 16 43 16q23 0 28 -8q8 -10 8 -27z" />
    <glyph glyph-name="uni0100" unicode="&#x100;" horiz-adv-x="613" 
d="M-22 26q55 7 74 21.5t43 71.5q85 203 167 440q14 37 17 57h11q12 -1 22 -1q9 0 16.5 0.5t11.5 0.5h5q8 -31 16 -52q132 -377 166 -457q22 -50 38 -62t70 -19q3 -3 1.5 -14.5t-3.5 -14.5q-78 3 -122 3q-68 0 -131 -3q-2 3 -3 14.5t2 14.5q37 5 55 11q17 8 11 25
q-20 73 -60 172q-2 7 -9 7h-94h-83q-7 0 -10 -9q-52 -141 -54 -162q-1 -15 5 -22.5t27 -13.5q20 -5 48 -8q2 -3 1 -14.5t-3 -14.5q-6 0 -51 1.5t-77 1.5q-33 0 -67.5 -1.5t-39.5 -1.5q-3 3 -3 14.5t3 14.5zM291 512q-5 0 -5 -1q-5 -14 -35 -99.5t-40 -116.5q0 -6 4 -7
q10 -1 80 -1q57 0 67 1q2 0 3 2.5t0 5.5q-42 129 -74 216zM214 721q20 -2 53 -2h174q0 -9 -6.5 -28.5t-9.5 -20.5q-15 -3 -191 -3l-37 2q0 1 17 52z" />
    <glyph glyph-name="uni0101" unicode="&#x101;" horiz-adv-x="406" 
d="M252 260q0 38 -15 59q-26 38 -76 38q-27 0 -40 -10q-18 -13 -42 -72q-1 -2 -8.5 1t-14 9t-6.5 10q2 11 10.5 33t12.5 26q31 22 71.5 38.5t59.5 16.5q64 0 99 -53q23 -38 23 -99q0 -27 -2 -89t-2 -80q0 -40 38 -40q20 0 35 5q1 -3 -0.5 -15.5t-3.5 -14.5q-32 -35 -82 -35
q-39 0 -51 26q-3 4 -8 25q0 1 -1.5 1.5t-2.5 -0.5q-83 -52 -119 -52q-28 0 -55 25q-34 37 -34 88q0 13 6.5 31.5t11.5 25.5q17 9 93.5 32.5t95.5 32.5q6 3 6 10q1 4 1 27zM251 189q0 1 -2 3t-3 1q-108 -38 -119 -46q-3 -2 -6.5 -13t-3.5 -19q0 -30 19 -49t51 -19q28 0 51 16
q9 5 11 23q2 21 2 103zM103 555q12 -2 45 -2h158q0 -10 -6 -29t-9 -20q-9 -2 -173 -2q-28 0 -32 1q1 7 8 28t9 24z" />
    <glyph glyph-name="uni0102" unicode="&#x102;" horiz-adv-x="613" 
d="M-22 26q55 7 74 21.5t43 71.5q85 203 167 440q14 37 17 57h11q12 -1 22 -1q9 0 16.5 0.5t11.5 0.5h5q8 -31 16 -52q132 -377 166 -457q22 -50 38 -62t70 -19q3 -3 1.5 -14.5t-3.5 -14.5q-78 3 -122 3q-68 0 -131 -3q-2 3 -3 14.5t2 14.5q37 5 55 11q17 8 11 25
q-20 73 -60 172q-2 7 -9 7h-94h-83q-7 0 -10 -9q-52 -141 -54 -162q-1 -15 5 -22.5t27 -13.5q20 -5 48 -8q2 -3 1 -14.5t-3 -14.5q-6 0 -51 1.5t-77 1.5q-33 0 -67.5 -1.5t-39.5 -1.5q-3 3 -3 14.5t3 14.5zM291 512q-5 0 -5 -1q-5 -14 -35 -99.5t-40 -116.5q0 -6 4 -7
q10 -1 80 -1q57 0 67 1q2 0 3 2.5t0 5.5q-42 129 -74 216zM326 703q53 0 90 46q1 2 12.5 7t14.5 5q2 0 4 -2t1 -3q-15 -43 -53.5 -73.5t-91.5 -30.5q-45 0 -76 20t-31 50q0 7 8 21t15 19q2 1 7 0.5t6 -1.5q19 -58 94 -58z" />
    <glyph glyph-name="uni0103" unicode="&#x103;" horiz-adv-x="406" 
d="M252 260q0 38 -15 59q-26 38 -76 38q-27 0 -40 -10q-18 -13 -42 -72q-1 -2 -8.5 1t-14 9t-6.5 10q2 11 10.5 33t12.5 26q31 22 71.5 38.5t59.5 16.5q64 0 99 -53q23 -38 23 -99q0 -27 -2 -89t-2 -80q0 -40 38 -40q20 0 35 5q1 -3 -0.5 -15.5t-3.5 -14.5q-32 -35 -82 -35
q-39 0 -51 26q-3 4 -8 25q0 1 -1.5 1.5t-2.5 -0.5q-83 -52 -119 -52q-28 0 -55 25q-34 37 -34 88q0 13 6.5 31.5t11.5 25.5q17 9 93.5 32.5t95.5 32.5q6 3 6 10q1 4 1 27zM251 189q0 1 -2 3t-3 1q-108 -38 -119 -46q-3 -2 -6.5 -13t-3.5 -19q0 -30 19 -49t51 -19q28 0 51 16
q9 5 11 23q2 21 2 103zM204 518q49 0 81 52q1 3 11 9t12 6t4.5 -2t1.5 -4q-10 -48 -46 -81t-85 -33q-40 0 -68.5 22.5t-28.5 57.5q0 9 9 21t20 19q1 1 5.5 1t4.5 -2q15 -66 79 -66z" />
    <glyph glyph-name="uni0104" unicode="&#x104;" horiz-adv-x="613" 
d="M473 -214q-30 0 -52.5 19.5t-22.5 55.5q0 53 103 139q-61 0 -121 -3q-2 3 -3 14.5t2 14.5q31 3 55 11q17 8 11 25q-20 73 -60 172q-2 7 -9 7h-94h-83q-7 0 -10 -9q-52 -141 -54 -162q-1 -15 5 -22.5t27 -13.5q11 -3 48 -8q2 -3 1 -14.5t-3 -14.5q-6 0 -51 1.5t-77 1.5
q-33 0 -67.5 -1.5t-39.5 -1.5q-2 3 -2 15t2 14q55 7 74 21.5t43 71.5q82 194 167 438q14 39 17 59h11q12 -1 22 -1q9 0 16.5 0.5t11.5 0.5h5q4 -15 16 -53q130 -371 166 -456q22 -50 38 -62t70 -19q3 -2 1.5 -14.5t-3.5 -14.5q-63 3 -96 3q-65 -65 -65 -113q0 -40 44 -40
q25 0 52 16q1 -4 1 -15.5t-1 -14.5q-34 -47 -95 -47zM291 512q-4 0 -5 -1l-75 -215q0 -7 4 -8q10 -1 80 -1q57 0 67 1q2 0 3 2.5t0 5.5q-42 129 -74 216z" />
    <glyph glyph-name="uni0105" unicode="&#x105;" horiz-adv-x="406" 
d="M252 260q0 38 -15 59q-26 38 -76 38q-27 0 -40 -10q-18 -13 -42 -72q-1 -2 -8.5 1t-14 9t-6.5 10q2 11 10.5 33t12.5 26q31 22 71.5 38.5t59.5 16.5q64 0 99 -53q23 -38 23 -99q0 -27 -2 -89t-2 -80q0 -40 38 -40q20 0 35 5q1 -3 -0.5 -15.5t-3.5 -14.5q-19 -20 -47 -29
q-63 -56 -63 -102q0 -19 12.5 -28.5t30.5 -9.5q25 0 48 16q2 -3 2 -14.5t-1 -14.5q-33 -45 -90 -45q-29 0 -50.5 18.5t-21.5 53.5q0 51 90 122q-32 1 -43 24q-3 4 -8 25q0 1 -1.5 1.5t-2.5 -0.5q-83 -52 -119 -52q-28 0 -55 25q-34 37 -34 88q0 13 6.5 31.5t11.5 25.5
q17 9 93.5 32.5t95.5 32.5q6 3 6 10q1 4 1 27zM251 189q0 1 -2 3t-3 1q-108 -38 -119 -46q-3 -2 -6.5 -13t-3.5 -19q0 -30 19 -49t51 -19q28 0 51 16q9 5 11 23q2 21 2 103z" />
    <glyph glyph-name="uni0106" unicode="&#x106;" horiz-adv-x="673" 
d="M567 457q-7 59 -19 81.5t-41 36.5q-45 22 -124 22q-108 0 -168 -74t-60 -202q0 -127 69.5 -211t197.5 -84q73 0 110 34q32 26 75 98q4 0 13.5 -5.5t10.5 -10.5q-8 -33 -33.5 -79t-42.5 -56q-73 -25 -153 -25q-166 0 -256.5 86.5t-90.5 243.5q0 85 40 159t119 116
q84 46 203 46q50 0 119.5 -9.5t77.5 -10.5q-14 -84 -16 -154q-3 -3 -16.5 -4.5t-14.5 2.5zM454 813q11 -1 32 -13t28 -21q2 -2 2 -7t-2 -6q-10 -11 -84 -53.5t-81 -42.5q-2 0 -9 10t-6 11q9 13 59.5 64.5t60.5 57.5z" />
    <glyph glyph-name="uni0107" unicode="&#x107;" horiz-adv-x="405" 
d="M383 67q-33 -41 -77.5 -60t-81.5 -19q-92 0 -143 69q-39 56 -39 134q0 117 101 177q66 41 127 41q46 0 82 -15q25 -13 30 -26q0 -8 -2 -16q-4 -11 -15.5 -24.5t-18.5 -16.5q-2 -1 -5 -1t-5 1q-53 53 -110 53q-53 0 -80 -39.5t-27 -95.5q0 -79 37 -123q42 -52 113 -52
q62 0 114 48q5 0 5 -6q0 -22 -5 -29zM268 607q8 4 38.5 7t37.5 1q4 -2 4 -11q-10 -18 -56 -78.5t-66 -83.5q-3 0 -12 6t-10 9q51 125 64 150z" />
    <glyph glyph-name="uni0108" unicode="&#x108;" horiz-adv-x="673" 
d="M567 457q-7 59 -19 81.5t-41 36.5q-45 22 -124 22q-108 0 -168 -74t-60 -202q0 -127 69.5 -211t197.5 -84q73 0 110 34q32 26 75 98q4 0 13.5 -5.5t10.5 -10.5q-8 -33 -33.5 -79t-42.5 -56q-73 -25 -153 -25q-166 0 -256.5 86.5t-90.5 243.5q0 85 40 159t119 116
q84 46 203 46q50 0 119.5 -9.5t77.5 -10.5q-14 -84 -16 -154q-3 -3 -16.5 -4.5t-14.5 2.5zM376 794q4 4 21 7q9 -10 59.5 -51.5t69.5 -54.5q0 -4 -6 -13.5t-9 -9.5q-5 0 -57 23t-64 30q-7 2 -10 0q-15 -9 -61.5 -31t-50.5 -22t-9.5 9t-4.5 14q89 66 122 99z" />
    <glyph glyph-name="uni0109" unicode="&#x109;" horiz-adv-x="405" 
d="M383 67q-33 -41 -77.5 -60t-81.5 -19q-92 0 -143 69q-39 56 -39 134q0 117 101 177q66 41 127 41q46 0 82 -15q25 -13 30 -26q0 -8 -2 -16q-4 -11 -15.5 -24.5t-18.5 -16.5q-2 -1 -5 -1t-5 1q-53 53 -110 53q-53 0 -80 -39.5t-27 -95.5q0 -79 37 -123q42 -52 113 -52
q62 0 114 48q5 0 5 -6q0 -22 -5 -29zM232 543q-13 -24 -32.5 -53.5t-25.5 -33.5q-5 -4 -17 -6.5t-17 -1.5q-3 0 -3 5q71 118 88 157q1 2 13.5 6t15.5 4q12 -28 43 -85.5t43 -74.5q-2 -4 -17 -9t-22 -5q-14 5 -64 97q-1 1 -2.5 1t-2.5 -1z" />
    <glyph glyph-name="uni010A" unicode="&#x10a;" horiz-adv-x="673" 
d="M567 457q-7 59 -19 81.5t-41 36.5q-45 22 -124 22q-108 0 -168 -74t-60 -202q0 -127 69.5 -211t197.5 -84q73 0 110 34q32 26 75 98q4 0 13.5 -5.5t10.5 -10.5q-8 -33 -33.5 -79t-42.5 -56q-73 -25 -153 -25q-166 0 -256.5 86.5t-90.5 243.5q0 85 40 159t119 116
q84 46 203 46q50 0 119.5 -9.5t77.5 -10.5q-14 -84 -16 -154q-3 -3 -16.5 -4.5t-14.5 2.5zM437 737q0 -33 -21 -48q-3 -3 -21 -4.5t-23 1.5q-22 12 -26 41q-3 21 5 29q20 18 48 18q20 0 29 -9q9 -11 9 -28z" />
    <glyph glyph-name="uni010B" unicode="&#x10b;" horiz-adv-x="405" 
d="M383 67q-33 -41 -77.5 -60t-81.5 -19q-92 0 -143 69q-39 56 -39 134q0 117 101 177q66 41 127 41q46 0 82 -15q25 -13 30 -26q0 -8 -2 -16q-4 -11 -15.5 -24.5t-18.5 -16.5q-2 -1 -5 -1t-5 1q-53 53 -110 53q-53 0 -80 -39.5t-27 -95.5q0 -79 37 -123q42 -52 113 -52
q62 0 114 48q5 0 5 -6q0 -22 -5 -29zM287 552q0 -33 -21 -49q-4 -2 -22 -3.5t-23 1.5q-20 11 -26 41q0 24 6 30q18 18 48 18q22 0 29 -10q9 -9 9 -28z" />
    <glyph glyph-name="uni010C" unicode="&#x10c;" horiz-adv-x="673" 
d="M567 457q-7 59 -19 81.5t-41 36.5q-45 22 -124 22q-108 0 -168 -74t-60 -202q0 -127 69.5 -211t197.5 -84q73 0 110 34q32 26 75 98q4 0 13.5 -5.5t10.5 -10.5q-8 -33 -33.5 -79t-42.5 -56q-73 -25 -153 -25q-166 0 -256.5 86.5t-90.5 243.5q0 85 40 159t119 116
q84 46 203 46q50 0 119.5 -9.5t77.5 -10.5q-14 -84 -16 -154q-3 -3 -16.5 -4.5t-14.5 2.5zM404 679q-9 -6 -21 -6q-9 9 -58.5 50t-70.5 56q0 4 6.5 13.5t9.5 9.5q4 0 56.5 -23t63.5 -30q7 -2 10 0q17 9 63 31t50 22q3 0 8.5 -9.5t4.5 -13.5q-114 -92 -122 -100z" />
    <glyph glyph-name="uni010D" unicode="&#x10d;" horiz-adv-x="405" 
d="M383 67q-33 -41 -77.5 -60t-81.5 -19q-92 0 -143 69q-39 56 -39 134q0 117 101 177q66 41 127 41q46 0 82 -15q25 -13 30 -26q0 -8 -2 -16q-4 -11 -15.5 -24.5t-18.5 -16.5q-2 -1 -5 -1t-5 1q-53 53 -110 53q-53 0 -80 -39.5t-27 -95.5q0 -79 37 -123q42 -52 113 -52
q62 0 114 48q5 0 5 -6q0 -22 -5 -29zM244 521q13 24 33 53.5t26 33.5q19 12 34 8q4 0 4 -5q-66 -103 -89 -157q-1 -2 -13.5 -6t-15.5 -4q-11 27 -42.5 84t-44.5 76q2 4 17 9t22 5q5 -2 25.5 -32.5t38.5 -64.5q1 -1 2.5 -1t2.5 1z" />
    <glyph glyph-name="uni010E" unicode="&#x10e;" horiz-adv-x="709" 
d="M27 590q-2 3 -0.5 14.5t3.5 13.5q10 0 58 -1.5t63 -1.5q26 0 84.5 2t109.5 2q133 0 214 -70q95 -83 95 -227q0 -174 -128 -261q-96 -68 -239 -68q-31 0 -105 2t-114 2h-50q-3 4 -3 15.5t3 13.5q42 3 65 10q30 8 33 48q3 63 3 234q0 177 -3 213q-1 25 -9 35t-27 15
q-21 5 -53 9zM207 95q2 -29 20 -40q29 -22 108 -22q89 0 146 53q78 73 78 219q0 161 -114 237q-62 41 -177 41q-38 0 -51 -5q-10 -5 -11 -18q-1 -11 -1 -243q0 -200 2 -222zM336 665q-9 -6 -21 -6q-9 9 -58.5 50t-70.5 56q0 4 6.5 13.5t9.5 9.5q4 0 56.5 -23t63.5 -30
q7 -2 10 0q17 9 63 31t50 22q3 0 8.5 -9.5t4.5 -13.5q-114 -92 -122 -100z" />
    <glyph glyph-name="uni010F" unicode="&#x10f;" horiz-adv-x="497" 
d="M485 48q3 -16 -5 -27q-21 -10 -66.5 -23.5t-63.5 -14.5q-5 0 -7 13q-2 16 -2 49q0 4 -5 4q-35 -25 -75 -42t-65 -17q-67 0 -109 53q-45 54 -45 142q0 47 19.5 90t53.5 71q32 26 83 44.5t97 18.5q1 0 45 -4q4 0 4 4q0 149 -2 174q-3 26 -21 32q-19 6 -58 10
q-3 4 -1.5 14.5t5.5 12.5q89 0 162 26q2 -1 4 -6.5t1 -7.5q-10 -16 -11 -75q-4 -108 -4 -287q0 -198 1 -220q0 -14 3 -21.5t6.5 -9.5t9.5 -3q12 -2 46 0zM239 366q-46 0 -75 -29q-43 -40 -43 -121q0 -78 37.5 -121t96.5 -43q45 0 78 27q8 8 8 21q1 17 2 90.5t0 106.5
q-2 32 -22 46q-30 23 -82 23zM546 683q5 0 5 -13q1 -26 -5.5 -86t-13.5 -87q-3 -10 -13 -20.5t-18 -14.5q-2 -1 -4.5 1.5t-2.5 3.5q0 89 -11 170q0 5 2 8q6 7 29.5 22.5t31.5 15.5z" />
    <glyph glyph-name="uni0110" unicode="&#x110;" horiz-adv-x="709" 
d="M27 590q-2 3 -0.5 14.5t3.5 13.5q10 0 58 -1.5t63 -1.5q26 0 84.5 2t109.5 2q133 0 214 -70q95 -83 95 -227q0 -174 -128 -261q-96 -68 -239 -68q-31 0 -105 2t-114 2h-50q-3 4 -3 15.5t3 13.5q42 3 65 10q30 8 33 48q3 87 3 218q-57 -1 -92 -1q0 27 6 36h86
q0 144 -3 194q-1 25 -9 35t-27 15q-21 5 -53 9zM207 95q2 -29 20 -40q29 -22 108 -22q89 0 146 53q78 73 78 219q0 161 -114 237q-62 41 -177 41q-38 0 -51 -5q-10 -5 -11 -18q-1 -11 -1 -223q35 0 77.5 0.5t71 0.5h30.5q3 -17 -5 -36h-174q0 -186 2 -207z" />
    <glyph glyph-name="uni0111" unicode="&#x111;" horiz-adv-x="506" 
d="M42 185q0 47 19.5 90t53.5 71q32 27 83.5 45t99.5 18q26 0 42 -3q4 0 4 5v84q-92 -2 -122 -2q3 30 7 34h115q0 40 -2 59q-1 22 -21 29q-20 6 -58 10q-5 18 4 27q81 0 162 26q2 -1 4 -6t1 -7q-11 -16 -14 -75v-63q14 0 40 0.5t29 0.5q3 -17 -5 -34q-6 0 -29.5 0.5
t-34.5 0.5l-1 -193q0 -206 1 -228q1 -14 4 -21.5t6 -9.5t9 -3q20 -4 55 0q0 -19 -6 -27q-18 -8 -68 -18.5t-70 -11.5q-5 0 -7 13q-2 16 -2 48q0 4 -6 4q-34 -24 -74.5 -41t-65.5 -17q-67 0 -109 53q-44 53 -44 142zM239 367q-43 0 -75 -30q-43 -41 -43 -121
q0 -77 37.5 -120.5t96.5 -43.5q47 0 77 27q9 8 9 20q1 17 2 91t0 108q-2 32 -24 48q-32 21 -80 21z" />
    <glyph glyph-name="uni0112" unicode="&#x112;" horiz-adv-x="558" 
d="M37 591q-4 3 -3 13.5t4 14.5q9 0 55 -2t78 -2h197q83 0 111 4q4 -4 4 -5q-11 -40 -18 -137q-3 -4 -16 -4t-15 2q-3 32 -11 61q-6 19 -16 27.5t-34 10.5q-14 1 -78.5 1t-74.5 -1q-5 -1 -8.5 -8t-3.5 -11q-1 -56 -1 -212q0 -7 5 -7q99 -2 153 2q25 2 34 30q7 18 11 40
q4 2 17 1.5t16 -4.5q-7 -47 -7 -94q0 -41 2 -91q-4 -4 -17 -4.5t-17 3.5q-4 30 -8 41q-8 27 -34 29q-21 2 -72.5 2.5t-77.5 -0.5q-5 0 -5 -8q0 -152 2 -200q0 -30 23 -38q24 -6 148 -6q31 1 45.5 8t28.5 25q23 26 50 88q4 1 15 -3t14 -8q-4 -25 -17.5 -70.5t-24.5 -66.5
q-5 -9 -16 -12.5t-46 -3.5q-39 0 -122 2t-138 2q-37 0 -89 -1.5t-69 -1.5q-3 2 -3.5 13.5t2.5 15.5q61 6 76 10q18 4 25 15.5t9 38.5q1 19 1 242q0 180 -1 198q-2 28 -7 37.5t-23 13.5q-17 5 -53 10zM174 740q20 -2 53 -2h75h71.5h27.5q0 -9 -6.5 -28.5t-9.5 -20.5
q-15 -3 -191 -3l-37 2q0 1 17 52z" />
    <glyph glyph-name="uni0113" unicode="&#x113;" horiz-adv-x="420" 
d="M381 96q3 -3 4 -6q2 -16 -5 -27q-31 -35 -76.5 -55t-82.5 -20q-76 0 -122 48q-57 57 -57 159q0 122 88 181q51 33 108 33q65 0 98.5 -44t41.5 -98q2 -7 15 -11q1 -3 -2.5 -12t-5.5 -11q-60 -17 -262 -22q-6 -1 -6 -11q4 -62 41 -102q43 -44 109 -44q62 0 114 42zM207 371
q-36 0 -60 -31t-28 -84q0 -7 5 -7q24 -2 89.5 0.5t80.5 5.5q5 5 5 9q-4 41 -29 74t-63 33zM130 555q12 -2 45 -2h158q0 -10 -6 -29t-9 -20q-9 -2 -173 -2q-28 0 -32 1q1 7 8 28t9 24z" />
    <glyph glyph-name="uni0114" unicode="&#x114;" horiz-adv-x="558" 
d="M37 591q-4 3 -3 13.5t4 14.5q9 0 55 -2t78 -2h197q83 0 111 4q4 -4 4 -5q-11 -40 -18 -137q-3 -4 -16 -4t-15 2q-3 32 -11 61q-6 19 -16 27.5t-34 10.5q-14 1 -78.5 1t-74.5 -1q-5 -1 -8.5 -8t-3.5 -11q-1 -56 -1 -212q0 -7 5 -7q99 -2 153 2q25 2 34 30q7 18 11 40
q4 2 17 1.5t16 -4.5q-7 -47 -7 -94q0 -41 2 -91q-4 -4 -17 -4.5t-17 3.5q-4 30 -8 41q-8 27 -34 29q-21 2 -72.5 2.5t-77.5 -0.5q-5 0 -5 -8q0 -152 2 -200q0 -30 23 -38q24 -6 148 -6q31 1 45.5 8t28.5 25q23 26 50 88q4 1 15 -3t14 -8q-4 -25 -17.5 -70.5t-24.5 -66.5
q-5 -9 -16 -12.5t-46 -3.5q-39 0 -122 2t-138 2q-37 0 -89 -1.5t-69 -1.5q-3 2 -3.5 13.5t2.5 15.5q61 6 76 10q18 4 25 15.5t9 38.5q1 19 1 242q0 180 -1 198q-2 28 -7 37.5t-23 13.5q-17 5 -53 10zM295 713q53 0 90 46q1 2 13 7t14 5t4 -2t1 -3q-15 -43 -53.5 -73.5
t-91.5 -30.5q-45 0 -76 20t-31 50q0 7 8 21t15 19q2 1 7 0.5t6 -1.5q19 -58 94 -58z" />
    <glyph glyph-name="uni0115" unicode="&#x115;" horiz-adv-x="420" 
d="M381 96q3 -3 4 -6q2 -16 -5 -27q-31 -35 -76.5 -55t-82.5 -20q-76 0 -122 48q-57 57 -57 159q0 122 88 181q51 33 108 33q65 0 98.5 -44t41.5 -98q2 -7 15 -11q1 -3 -2.5 -12t-5.5 -11q-60 -17 -262 -22q-6 -1 -6 -11q4 -62 41 -102q43 -44 109 -44q62 0 114 42zM207 371
q-36 0 -60 -31t-28 -84q0 -7 5 -7q24 -2 89.5 0.5t80.5 5.5q5 5 5 9q-4 41 -29 74t-63 33zM233 518q49 0 81 52q1 3 11 9t12 6t4.5 -2t1.5 -4q-10 -48 -46 -81t-85 -33q-40 0 -68.5 22.5t-28.5 57.5q0 9 9 21t20 19q2 1 6 1t4 -2q15 -66 79 -66z" />
    <glyph glyph-name="uni0116" unicode="&#x116;" horiz-adv-x="558" 
d="M37 591q-4 3 -3 13.5t4 14.5q9 0 55 -2t78 -2h197q83 0 111 4q4 -4 4 -5q-11 -40 -18 -137q-3 -4 -16 -4t-15 2q-3 32 -11 61q-6 19 -16 27.5t-34 10.5q-14 1 -78.5 1t-74.5 -1q-5 -1 -8.5 -8t-3.5 -11q-1 -56 -1 -212q0 -7 5 -7q99 -2 153 2q25 2 34 30q7 18 11 40
q4 2 17 1.5t16 -4.5q-7 -47 -7 -94q0 -41 2 -91q-4 -4 -17 -4.5t-17 3.5q-4 30 -8 41q-8 27 -34 29q-21 2 -72.5 2.5t-77.5 -0.5q-5 0 -5 -8q0 -152 2 -200q0 -30 23 -38q24 -6 148 -6q31 1 45.5 8t28.5 25q23 26 50 88q4 1 15 -3t14 -8q-4 -25 -17.5 -70.5t-24.5 -66.5
q-5 -9 -16 -12.5t-46 -3.5q-39 0 -122 2t-138 2q-37 0 -89 -1.5t-69 -1.5q-3 2 -3.5 13.5t2.5 15.5q61 6 76 10q18 4 25 15.5t9 38.5q1 19 1 242q0 180 -1 198q-2 28 -7 37.5t-23 13.5q-17 5 -53 10zM329 722q0 -33 -21 -48q-3 -3 -21 -4.5t-23 1.5q-22 12 -26 41
q-3 21 5 29q20 18 48 18q20 0 29 -9q9 -11 9 -28z" />
    <glyph glyph-name="uni0117" unicode="&#x117;" horiz-adv-x="420" 
d="M381 96q3 -3 4 -6q2 -16 -5 -27q-31 -35 -76.5 -55t-82.5 -20q-76 0 -122 48q-57 57 -57 159q0 122 88 181q51 33 108 33q65 0 98.5 -44t41.5 -98q2 -7 15 -11q1 -3 -2.5 -12t-5.5 -11q-60 -17 -262 -22q-6 -1 -6 -11q4 -62 41 -102q43 -44 109 -44q62 0 114 42zM207 371
q-36 0 -60 -31t-28 -84q0 -7 5 -7q24 -2 89.5 0.5t80.5 5.5q5 5 5 9q-4 41 -29 74t-63 33zM269 552q0 -33 -21 -49q-4 -2 -22 -3.5t-23 1.5q-20 11 -26 41q0 24 6 30q18 18 48 18q22 0 29 -10q9 -9 9 -28z" />
    <glyph glyph-name="uni0118" unicode="&#x118;" horiz-adv-x="558" 
d="M10 26q61 6 76 10q18 4 25 15.5t9 38.5q1 19 1 242q0 180 -1 198q-2 28 -7 37.5t-23 13.5q-17 5 -53 10q-4 3 -3 13.5t4 14.5q9 0 55 -2t78 -2h197q83 0 111 4q4 -4 4 -5q-11 -40 -18 -138q-3 -3 -16 -3t-15 2q-3 32 -11 61q-6 19 -16 27.5t-34 10.5q-14 1 -78.5 1
t-74.5 -1q-5 -1 -8.5 -8t-3.5 -11q-1 -57 -1 -212q0 -7 6 -7q98 -2 152 2q26 2 34 30q7 22 11 40q4 2 17 1.5t16 -4.5q-7 -47 -7 -94q0 -41 2 -91q-4 -4 -17 -4.5t-17 3.5q-5 31 -8 42q-8 26 -34 28q-21 2 -72.5 2.5t-77.5 -0.5q-5 0 -5 -8q0 -150 2 -200q0 -30 23 -38
q24 -6 148 -6q31 1 45.5 8t28.5 25q23 26 50 88q4 1 15 -3t14 -8q-3 -23 -16.5 -68t-25.5 -69q-8 -14 -42 -15q-61 -65 -61 -110q0 -40 44 -40q27 0 52 16q2 -4 2 -16t-2 -14q-18 -25 -45 -36t-49 -11q-31 0 -53.5 19.5t-22.5 55.5q0 53 98 135q-24 0 -106 2t-137 2
q-37 0 -89 -1.5t-69 -1.5q-3 2 -3.5 13.5t2.5 15.5z" />
    <glyph glyph-name="uni0119" unicode="&#x119;" horiz-adv-x="420" 
d="M381 96q3 -3 4 -6q2 -16 -5 -27q-36 -41 -90 -61q-64 -54 -64 -102q0 -38 42 -38q27 0 49 15q1 -4 1 -15.5t-1 -12.5q-32 -46 -89 -46q-29 0 -50.5 18.5t-21.5 53.5q0 50 83 114q-6 -1 -18 -1q-76 0 -122 48q-57 57 -57 159q0 124 88 181q50 33 109 33q34 0 60.5 -14.5
t42 -37.5t24.5 -45.5t12 -44.5q2 -7 15 -11q1 -3 -2.5 -12t-5.5 -11q-26 -7 -111.5 -13.5t-150.5 -8.5q-6 -1 -6 -11q4 -62 41 -102q43 -44 109 -44q62 0 114 42zM207 371q-35 0 -59.5 -32t-28.5 -84q0 -7 5 -7q131 0 171 8q5 2 5 8q-5 42 -30 74.5t-63 32.5z" />
    <glyph glyph-name="uni011A" unicode="&#x11a;" horiz-adv-x="558" 
d="M37 591q-4 3 -3 13.5t4 14.5q9 0 55 -2t78 -2h197q83 0 111 4q4 -4 4 -5q-11 -40 -18 -137q-3 -4 -16 -4t-15 2q-3 32 -11 61q-6 19 -16 27.5t-34 10.5q-14 1 -78.5 1t-74.5 -1q-5 -1 -8.5 -8t-3.5 -11q-1 -56 -1 -212q0 -7 5 -7q99 -2 153 2q25 2 34 30q7 18 11 40
q4 2 17 1.5t16 -4.5q-7 -47 -7 -94q0 -41 2 -91q-4 -4 -17 -4.5t-17 3.5q-4 30 -8 41q-8 27 -34 29q-21 2 -72.5 2.5t-77.5 -0.5q-5 0 -5 -8q0 -152 2 -200q0 -30 23 -38q24 -6 148 -6q31 1 45.5 8t28.5 25q23 26 50 88q4 1 15 -3t14 -8q-4 -25 -17.5 -70.5t-24.5 -66.5
q-5 -9 -16 -12.5t-46 -3.5q-39 0 -122 2t-138 2q-37 0 -89 -1.5t-69 -1.5q-3 2 -3.5 13.5t2.5 15.5q61 6 76 10q18 4 25 15.5t9 38.5q1 19 1 242q0 180 -1 198q-2 28 -7 37.5t-23 13.5q-17 5 -53 10zM296 663q-9 -6 -21 -6q-9 9 -58.5 50t-70.5 56q0 4 6.5 13.5t9.5 9.5
q4 0 56.5 -23t63.5 -30q7 -2 10 0q17 9 63 31t50 22q3 0 8.5 -9.5t4.5 -13.5q-114 -92 -122 -100z" />
    <glyph glyph-name="uni011B" unicode="&#x11b;" horiz-adv-x="420" 
d="M381 96q3 -3 4 -6q2 -16 -5 -27q-31 -35 -76.5 -55t-82.5 -20q-76 0 -122 48q-57 57 -57 159q0 122 88 181q51 33 108 33q65 0 98.5 -44t41.5 -98q2 -7 15 -11q1 -3 -2.5 -12t-5.5 -11q-60 -17 -262 -22q-6 -1 -6 -11q4 -62 41 -102q43 -44 109 -44q62 0 114 42zM207 371
q-36 0 -60 -31t-28 -84q0 -7 5 -7q24 -2 89.5 0.5t80.5 5.5q5 5 5 9q-4 41 -29 74t-63 33zM227 521q13 24 33 53.5t26 33.5q19 12 34 8q4 0 4 -5q-66 -103 -89 -157q-1 -2 -13.5 -6t-15.5 -4q-11 27 -42.5 84t-44.5 76q2 4 16.5 9t22.5 5q5 -2 25.5 -32.5t38.5 -64.5
q1 -1 2.5 -1t2.5 1z" />
    <glyph glyph-name="uni011C" unicode="&#x11c;" horiz-adv-x="704" 
d="M633 41q1 -2 -0.5 -10.5t-2.5 -10.5q-125 -38 -218 -38q-175 0 -266 85t-91 244q0 98 46.5 172.5t129.5 111.5q82 38 195 38q48 0 119.5 -10.5t78.5 -11.5q-16 -75 -18 -159q-2 -4 -15.5 -5t-17.5 2q-6 56 -16.5 81.5t-32.5 38.5q-48 28 -136 28q-114 0 -172.5 -74
t-58.5 -201q0 -135 71 -220t202 -85q47 0 67 13q18 9 22 42q4 40 2 102q-2 26 -9 36.5t-28 16.5q-15 3 -67 10q-4 2 -3 14.5t4 14.5q12 0 59 -1.5t81 -1.5q49 0 109 3q2 -2 2 -15t-3 -15q-24 -4 -33 -7q-24 -7 -25 -48q-3 -84 0 -111q1 -12 5 -17.5t20 -11.5zM375 789
q3 3 21 7q9 -10 59.5 -51.5t69.5 -54.5q0 -4 -6 -13.5t-9 -9.5q-5 0 -57 23t-64 30q-7 2 -10 0q-15 -9 -61.5 -31t-50.5 -22t-9.5 9t-4.5 14q89 66 122 99z" />
    <glyph glyph-name="uni011D" unicode="&#x11d;" horiz-adv-x="438" 
d="M222 409q39 0 89 -19q27 -10 57 -10q40 0 60 22q2 1 7 -2t6 -5q0 -9 -8.5 -28.5t-16.5 -27.5q-12 -12 -35 -12q-13 0 -24 1q-1 0 -2 -2t0 -3q8 -24 8 -49q0 -84 -59 -130q-47 -35 -106 -41q-13 0 -19 -2q-8 -1 -17 -8t-9 -18q0 -26 40 -30q8 -1 38.5 -3t49.5 -4
t42.5 -5.5t34.5 -7.5q70 -25 70 -98q0 -50 -32.5 -94.5t-89.5 -72.5q-55 -28 -114 -28q-72 0 -120 36q-48 39 -48 93q0 27 7 38q15 19 97 78q0 3 -1 3q-27 9 -44 27t-19 35q0 5 4 17q53 32 66 42q4 4 -1 6q-92 32 -92 142q0 73 56 116q22 17 60 31t65 13zM190 372
q-34 0 -53.5 -27.5t-19.5 -72.5q0 -53 25.5 -92t73.5 -39q29 0 46 18q27 27 27 87q0 52 -24 89t-75 37zM232 -218q65 0 97 29.5t32 70.5q0 51 -51 71q-41 17 -123 17q-18 0 -36 -10q-55 -36 -55 -78q0 -39 33 -68q39 -32 103 -32zM206 543q-13 -24 -32.5 -53.5t-25.5 -33.5
q-5 -4 -17 -6.5t-17 -1.5q-3 0 -3 5q71 118 88 157q1 2 13.5 6t15.5 4q12 -28 43 -85.5t43 -74.5q-2 -4 -17 -9t-22 -5q-14 5 -64 97q-1 1 -2.5 1t-2.5 -1z" />
    <glyph glyph-name="uni011E" unicode="&#x11e;" horiz-adv-x="704" 
d="M633 41q1 -2 -0.5 -10.5t-2.5 -10.5q-125 -38 -218 -38q-175 0 -266 85t-91 244q0 98 46.5 172.5t129.5 111.5q82 38 195 38q48 0 119.5 -10.5t78.5 -11.5q-16 -75 -18 -159q-2 -4 -15.5 -5t-17.5 2q-6 56 -16.5 81.5t-32.5 38.5q-48 28 -136 28q-114 0 -172.5 -74
t-58.5 -201q0 -135 71 -220t202 -85q47 0 67 13q18 9 22 42q4 40 2 102q-2 26 -9 36.5t-28 16.5q-15 3 -67 10q-4 2 -3 14.5t4 14.5q12 0 59 -1.5t81 -1.5q49 0 109 3q2 -2 2 -15t-3 -15q-24 -4 -33 -7q-24 -7 -25 -48q-3 -84 0 -111q1 -12 5 -17.5t20 -11.5zM402 728
q53 0 90 46q1 2 12.5 7t14.5 5q2 0 4 -2t1 -3q-15 -43 -53.5 -73.5t-91.5 -30.5q-45 0 -76 20t-31 50q0 7 8 21t15 19q2 1 7 0.5t6 -1.5q19 -58 94 -58z" />
    <glyph glyph-name="uni011F" unicode="&#x11f;" horiz-adv-x="438" 
d="M222 409q39 0 89 -19q27 -10 57 -10q40 0 60 22q2 1 7 -2t6 -5q0 -9 -8.5 -28.5t-16.5 -27.5q-12 -12 -35 -12q-13 0 -24 1q-1 0 -2 -2t0 -3q8 -24 8 -49q0 -84 -59 -130q-47 -35 -106 -41q-13 0 -19 -2q-8 -1 -17 -8t-9 -18q0 -26 40 -30q8 -1 38.5 -3t49.5 -4
t42.5 -5.5t34.5 -7.5q70 -25 70 -98q0 -50 -32.5 -94.5t-89.5 -72.5q-55 -28 -114 -28q-72 0 -120 36q-48 39 -48 93q0 27 7 38q15 19 97 78q0 3 -1 3q-27 9 -44 27t-19 35q0 5 4 17q53 32 66 42q4 4 -1 6q-92 32 -92 142q0 73 56 116q22 17 60 31t65 13zM190 372
q-34 0 -53.5 -27.5t-19.5 -72.5q0 -53 25.5 -92t73.5 -39q29 0 46 18q27 27 27 87q0 52 -24 89t-75 37zM232 -218q65 0 97 29.5t32 70.5q0 51 -51 71q-41 17 -123 17q-18 0 -36 -10q-55 -36 -55 -78q0 -39 33 -68q39 -32 103 -32zM223 518q49 0 81 52q1 3 11 9t12 6t4.5 -2
t1.5 -4q-10 -48 -46 -81t-85 -33q-40 0 -68.5 22.5t-28.5 57.5q0 9 9 21t20 19q2 1 6 1t4 -2q15 -66 79 -66z" />
    <glyph glyph-name="uni0120" unicode="&#x120;" horiz-adv-x="704" 
d="M633 41q1 -2 -0.5 -10.5t-2.5 -10.5q-125 -38 -218 -38q-175 0 -266 85t-91 244q0 98 46.5 172.5t129.5 111.5q82 38 195 38q48 0 119.5 -10.5t78.5 -11.5q-16 -75 -18 -159q-2 -4 -15.5 -5t-17.5 2q-6 56 -16.5 81.5t-32.5 38.5q-48 28 -136 28q-114 0 -172.5 -74
t-58.5 -201q0 -135 71 -220t202 -85q47 0 67 13q18 9 22 42q4 40 2 102q-2 26 -9 36.5t-28 16.5q-15 3 -67 10q-4 2 -3 14.5t4 14.5q12 0 59 -1.5t81 -1.5q49 0 109 3q2 -2 2 -15t-3 -15q-24 -4 -33 -7q-24 -7 -25 -48q-3 -84 0 -111q1 -12 5 -17.5t20 -11.5zM435 735
q0 -33 -21 -48q-3 -3 -21 -4.5t-23 1.5q-22 12 -26 41q-3 21 5 29q20 18 48 18q20 0 29 -9q9 -11 9 -28z" />
    <glyph glyph-name="uni0121" unicode="&#x121;" horiz-adv-x="438" 
d="M222 409q39 0 89 -19q27 -10 57 -10q40 0 60 22q2 1 7 -2t6 -5q0 -9 -8.5 -28.5t-16.5 -27.5q-12 -12 -35 -12q-13 0 -24 1q-1 0 -2 -2t0 -3q8 -24 8 -49q0 -84 -59 -130q-47 -35 -106 -41q-13 0 -19 -2q-8 -1 -17 -8t-9 -18q0 -26 40 -30q8 -1 38.5 -3t49.5 -4
t42.5 -5.5t34.5 -7.5q70 -25 70 -98q0 -50 -32.5 -94.5t-89.5 -72.5q-55 -28 -114 -28q-72 0 -120 36q-48 39 -48 93q0 27 7 38q15 19 97 78q0 3 -1 3q-27 9 -44 27t-19 35q0 5 4 17q53 32 66 42q4 4 -1 6q-92 32 -92 142q0 73 56 116q22 17 60 31t65 13zM190 372
q-34 0 -53.5 -27.5t-19.5 -72.5q0 -53 25.5 -92t73.5 -39q29 0 46 18q27 27 27 87q0 52 -24 89t-75 37zM232 -218q65 0 97 29.5t32 70.5q0 51 -51 71q-41 17 -123 17q-18 0 -36 -10q-55 -36 -55 -78q0 -39 33 -68q39 -32 103 -32zM260 552q0 -33 -21 -49q-4 -2 -22 -3.5
t-23 1.5q-20 11 -26 41q0 24 6 30q18 18 48 18q22 0 29 -10q9 -9 9 -28z" />
    <glyph glyph-name="uni0122" unicode="&#x122;" horiz-adv-x="704" 
d="M633 41q1 -2 -0.5 -10.5t-2.5 -10.5q-125 -38 -218 -38q-175 0 -266 85t-91 244q0 98 46.5 172.5t129.5 111.5q82 38 195 38q48 0 119.5 -10.5t78.5 -11.5q-16 -75 -18 -159q-2 -4 -15.5 -5t-17.5 2q-6 56 -16.5 81.5t-32.5 38.5q-48 28 -136 28q-114 0 -172.5 -74
t-58.5 -201q0 -135 71 -220t202 -85q47 0 67 13q18 9 22 42q4 40 2 102q-2 26 -9 36.5t-28 16.5q-15 3 -67 10q-4 2 -3 14.5t4 14.5q12 0 59 -1.5t81 -1.5q49 0 109 3q2 -2 2 -15t-3 -15q-24 -4 -33 -7q-24 -7 -25 -48q-3 -84 0 -111q1 -12 5 -17.5t20 -11.5zM401 -50
q17 0 33.5 -20t16.5 -52q0 -44 -31 -76.5t-83 -45.5q-3 1 -7.5 10t-3.5 13q37 16 52.5 32t15.5 37q0 36 -56 52q-2 2 -2 8.5t2 8.5q7 9 27.5 21t35.5 12z" />
    <glyph glyph-name="uni0123" unicode="&#x123;" horiz-adv-x="438" 
d="M222 409q39 0 89 -19q27 -10 57 -10q40 0 60 22q2 1 7 -2t6 -5q0 -9 -8.5 -28.5t-16.5 -27.5q-12 -12 -35 -12q-13 0 -24 1q-1 0 -2 -2t0 -3q8 -24 8 -49q0 -84 -59 -130q-47 -35 -106 -41q-13 0 -19 -2q-8 -1 -17 -8t-9 -18q0 -26 40 -30q8 -1 38.5 -3t49.5 -4
t42.5 -5.5t34.5 -7.5q70 -25 70 -98q0 -50 -32.5 -94.5t-89.5 -72.5q-55 -28 -114 -28q-72 0 -120 36q-48 39 -48 93q0 27 7 38q15 19 97 78q0 3 -1 3q-27 9 -44 27t-19 35q0 5 4 17q53 32 66 42q4 4 -1 6q-92 32 -92 142q0 73 56 116q22 17 60 31t65 13zM232 -218
q65 0 97 29.5t32 70.5q0 51 -51 71q-41 17 -123 17q-18 0 -36 -10q-55 -36 -55 -78q0 -39 33 -68q39 -32 103 -32zM190 372q-34 0 -53.5 -27.5t-19.5 -72.5q0 -53 25.5 -92t73.5 -39q29 0 46 18q27 27 27 87q0 52 -24 89t-75 37zM204 456q-17 0 -36 22t-19 52
q0 36 28.5 64.5t76.5 38.5q9 -7 9 -24q-63 -23 -63 -58q0 -31 57 -45v-14q-7 -11 -24.5 -23.5t-28.5 -12.5z" />
    <glyph glyph-name="uni0124" unicode="&#x124;" horiz-adv-x="748" 
d="M29 590q-3 3 -2.5 14t3.5 14q8 0 52.5 -1.5t75.5 -1.5q38 0 77 1.5t48 1.5q2 -4 2 -15t-3 -13q-39 -6 -48 -9q-16 -5 -21.5 -14t-6.5 -32q-1 -19 -1 -186q0 -8 5 -10q14 -2 170 -2q151 1 157 2q6 0 6 6q0 165 -2 201q-2 26 -20 33q-19 6 -59 11q-4 3 -3.5 14t4.5 15
q8 0 51.5 -2t73.5 -2q29 0 74.5 1.5t49.5 1.5q2 -3 2.5 -14t-2.5 -14q-35 -5 -52 -10q-16 -5 -21 -15.5t-7 -38.5q-2 -35 -2 -213q0 -197 2 -231q2 -21 8 -31t20 -14q18 -7 64 -11q3 -3 1.5 -15t-5.5 -14q-12 0 -59 1.5t-75 1.5q-49 0 -127 -3q-3 3 -3 14t3 15q40 5 57 10
q14 4 19.5 13.5t6.5 32.5q1 29 1 201q0 7 -6 7q-19 1 -159 1q-160 0 -170 -1q-3 0 -3 -6q0 -170 1 -191q2 -27 7.5 -38.5t23.5 -16.5q30 -8 60 -12q3 -4 1 -15.5t-5 -13.5q-4 0 -48 1.5t-82 1.5q-34 0 -81 -1.5t-52 -1.5q-3 3 -3 14.5t2 14.5q29 4 54 9q20 6 26.5 20.5
t8.5 52.5q0 10 0.5 83t0.5 123q0 185 -2 221q-2 21 -7.5 30.5t-20.5 13.5q-11 4 -60 11zM362 785q3 3 21 7q9 -10 59.5 -51.5t69.5 -54.5q0 -4 -6 -13.5t-9 -9.5q-5 0 -57 23t-64 30q-7 2 -10 0q-15 -9 -61.5 -31t-50.5 -22t-9.5 9t-4.5 14q89 66 122 99z" />
    <glyph glyph-name="uni0125" unicode="&#x125;" horiz-adv-x="495" 
d="M92 783q8 6 20 6q10 -9 57 -44t66 -46q0 -4 -5 -12.5t-8 -8.5q-5 0 -55 21t-61 27q-5 2 -10 0q-14 -8 -59 -28t-49 -20t-8.5 7.5t-3.5 12.5q19 12 62 43t54 42zM8 619q-4 2 -3.5 13t3.5 13q94 8 150 33q7 -2 7 -14q-10 -20 -11 -94q-1 -62 -1 -220q0 -1 1.5 -1.5t3.5 0.5
q78 60 136 60q59 0 91.5 -43t32.5 -117q0 -142 1 -186q0 -17 13 -25q11 -6 49 -12q2 -2 1 -15t-5 -14q-5 0 -40 1.5t-60 1.5q-56 0 -95 -3q-3 3 -3 14.5t2 14.5q29 4 40 7q12 4 15.5 13.5t4.5 38.5q3 149 -4 195q-5 27 -27.5 49.5t-65.5 22.5q-41 0 -78 -27q-12 -9 -12 -24
q0 -194 2 -222q2 -25 6.5 -33.5t19.5 -13.5q32 -5 38 -6q4 -3 3 -14.5t-4 -14.5q-1 0 -35.5 1.5t-69.5 1.5q-30 0 -61 -1.5t-35 -1.5q-3 3 -3 14.5t3 14.5q23 3 36 7t17 13t5 30q2 48 2 166q0 306 -3 343q-3 24 -19 27q-12 3 -48 7z" />
    <glyph glyph-name="Hbar" unicode="&#x126;" horiz-adv-x="748" 
d="M29 26q29 4 54 9q20 6 26.5 20.5t8.5 52.5q0 10 0.5 83t0.5 123v100h-68q0 28 7 37h60v36t-0.5 30.5t-0.5 17.5q-2 21 -7.5 30.5t-20.5 13.5q-13 4 -60 11q-4 3 -3 14.5t4 13.5q11 0 55.5 -1.5t72.5 -1.5q36 0 75 1.5t49 1.5q2 -3 2 -14.5t-3 -13.5q-40 -7 -47 -9
q-16 -5 -21.5 -14t-6.5 -32q-1 -19 -1 -84h338q1 42 -2 96q-1 25 -20 32q-21 7 -59 11q-2 4 -2 14.5t3 14.5q8 0 51.5 -2t73.5 -2q28 0 74 1.5t50 1.5q2 -3 2 -13.5t-2 -14.5q-42 -6 -52 -10q-16 -6 -21.5 -16.5t-7.5 -37.5q0 -7 -0.5 -18t-1 -27t-0.5 -29h69q3 -18 -5 -37
h-63v-102q0 -197 2 -231q2 -21 8 -31t20 -14q18 -7 64 -11q2 -4 0.5 -15t-4.5 -14q-15 0 -61.5 1.5t-72.5 1.5q-43 0 -127 -3q-2 3 -2 14.5t2 14.5q40 5 57 10q14 4 19.5 13.5t6.5 32.5q1 29 1 180q0 7 -7 7q-36 2 -158 2q-159 0 -170 -2q-3 -1 -3 -6q0 -149 1 -170
q2 -27 7.5 -38.5t23.5 -16.5q26 -8 60 -12q3 -3 1 -15t-5 -14q-10 0 -56.5 1.5t-73.5 1.5q-34 0 -81 -1.5t-52 -1.5q-3 3 -3 14.5t2 14.5zM543 415l-338 -1v-85q0 -7 5 -10q14 -2 170 -2q143 0 156 2q7 0 7 7v89z" />
    <glyph glyph-name="hbar" unicode="&#x127;" horiz-adv-x="495" 
d="M18 26q23 3 36 7t17 13t5 30q2 48 2 166v251q-9 0 -31 -0.5t-33 -0.5q3 28 7 35h56q0 36 -1 55q-1 25 -20 31q-11 3 -49 7q-3 5 -2 13.5t3 11.5q86 5 149 33q3 -1 6 -6.5t2 -7.5q-8 -16 -11 -72v-65q18 0 72 0.5t55 0.5q1 -4 -1 -18t-4 -18q-6 0 -59 0.5t-64 0.5v-143
q0 -1 1.5 -1.5t3.5 0.5q78 60 136 60q59 0 91.5 -43t32.5 -117q0 -141 1 -185q0 -20 13 -26q15 -7 50 -12q2 -3 0.5 -15t-4.5 -14q-7 0 -43 1.5t-62 1.5q-52 0 -91 -3q-3 4 -3.5 15t2.5 14q26 3 40 7q12 4 15.5 13.5t4.5 38.5q3 149 -4 195q-5 27 -27.5 49.5t-65.5 22.5
q-44 0 -78 -28q-12 -9 -12 -24q0 -193 2 -221q1 -24 5.5 -33t20.5 -14q14 -3 38 -6q2 -4 2 -14.5t-3 -14.5q-3 0 -42.5 1.5t-62.5 1.5q-25 0 -57.5 -1.5t-38.5 -1.5q-3 3 -3.5 14.5t3.5 14.5z" />
    <glyph glyph-name="uni0128" unicode="&#x128;" horiz-adv-x="322" 
d="M30 590q-3 3 -2 14.5t3 13.5q7 0 53.5 -1.5t76.5 -1.5q29 0 72 1.5t52 1.5q2 -3 2.5 -13.5t-1.5 -14.5q-42 -6 -51 -8q-16 -4 -21.5 -14.5t-7.5 -35.5q-2 -28 -2 -213q0 -195 2 -230q1 -24 7.5 -36t27.5 -17q16 -5 59 -10q3 -3 2 -15t-4 -14q-9 0 -55 1.5t-74 1.5
q-32 0 -79 -1.5t-60 -1.5q-4 2 -4 14.5t3 14.5q34 3 51 8q20 4 26.5 13.5t8.5 29.5q4 28 4 262q0 147 -3 194q-1 15 -2.5 22.5t-7 14t-15.5 9.5q-11 4 -61 11zM223 727q32 0 70 33q1 1 4 -5q5 -15 4 -21q-12 -20 -44.5 -40t-59.5 -20q-18 0 -66 16q-32 8 -39 8
q-24 0 -61 -30q-1 -1 -4.5 4t-5.5 11.5t-1 7.5q10 15 42 37.5t52 22.5t61 -13q31 -11 48 -11z" />
    <glyph glyph-name="uni0129" unicode="&#x129;" horiz-adv-x="238" 
d="M223 26q2 -4 0.5 -15.5t-4.5 -13.5q-5 0 -38 1.5t-63 1.5q-24 0 -58.5 -1.5t-39.5 -1.5q-2 3 -2 14.5t2 14.5q25 3 43 9q9 4 12.5 11t5.5 25q2 25 2 146q0 22 -0.5 54.5t-0.5 40.5q0 13 -7 21q-11 11 -48 24q-2 3 -0.5 12.5t4.5 11.5q65 2 130 29q0 -20 -0.5 -81
t-0.5 -94q0 -122 1 -167q0 -27 21 -34q26 -6 41 -8zM175 540q33 0 66 33q5 0 5 -4q3 -15 -4 -26q-11 -19 -38.5 -37t-51.5 -18q-17 0 -63 15q-22 8 -37 8q-27 0 -60 -31q-3 -3 -6 4q-1 4 0.5 13.5t3.5 11.5q9 14 37 34.5t46 20.5q17 0 56 -12q34 -12 46 -12z" />
    <glyph glyph-name="uni012A" unicode="&#x12a;" horiz-adv-x="322" 
d="M30 590q-3 3 -2 14.5t3 13.5q7 0 53.5 -1.5t76.5 -1.5q29 0 72 1.5t52 1.5q2 -3 2.5 -13.5t-1.5 -14.5q-42 -6 -51 -8q-16 -4 -21.5 -14.5t-7.5 -35.5q-2 -28 -2 -213q0 -195 2 -230q1 -24 7.5 -36t27.5 -17q16 -5 59 -10q3 -3 2 -15t-4 -14q-9 0 -55 1.5t-74 1.5
q-32 0 -79 -1.5t-60 -1.5q-4 2 -4 14.5t3 14.5q34 3 51 8q20 4 26.5 13.5t8.5 29.5q4 28 4 262q0 147 -3 194q-1 15 -2.5 22.5t-7 14t-15.5 9.5q-11 4 -61 11zM55 741q20 -2 53 -2h75h71.5h27.5q0 -9 -6.5 -28.5t-9.5 -20.5q-15 -3 -191 -3l-37 2q0 1 17 52z" />
    <glyph glyph-name="uni012B" unicode="&#x12b;" horiz-adv-x="238" 
d="M223 26q2 -4 0.5 -15.5t-4.5 -13.5q-5 0 -38 1.5t-63 1.5q-24 0 -58.5 -1.5t-39.5 -1.5q-2 3 -2 14.5t2 14.5q25 3 43 9q9 4 12.5 11t5.5 25q2 25 2 146q0 22 -0.5 54.5t-0.5 40.5q0 13 -7 21q-11 11 -48 24q-2 3 -0.5 12.5t4.5 11.5q65 2 130 29q0 -20 -0.5 -81
t-0.5 -94q0 -122 1 -167q0 -27 21 -34q26 -6 41 -8zM21 555q12 -2 45 -2h66.5h65.5h26q0 -10 -6 -29t-9 -20q-9 -2 -173 -2q-28 0 -32 1q1 7 8 28t9 24z" />
    <glyph glyph-name="uni012C" unicode="&#x12c;" horiz-adv-x="322" 
d="M30 590q-3 3 -2 14.5t3 13.5q7 0 53.5 -1.5t76.5 -1.5q29 0 72 1.5t52 1.5q2 -3 2.5 -13.5t-1.5 -14.5q-42 -6 -51 -8q-16 -4 -21.5 -14.5t-7.5 -35.5q-2 -28 -2 -213q0 -195 2 -230q1 -24 7.5 -36t27.5 -17q16 -5 59 -10q3 -3 2 -15t-4 -14q-9 0 -55 1.5t-74 1.5
q-32 0 -79 -1.5t-60 -1.5q-4 2 -4 14.5t3 14.5q34 3 51 8q20 4 26.5 13.5t8.5 29.5q4 28 4 262q0 147 -3 194q-1 15 -2.5 22.5t-7 14t-15.5 9.5q-11 4 -61 11zM173 717q53 0 90 46q1 2 13 7t14 5t4 -2t1 -3q-15 -43 -53.5 -73.5t-91.5 -30.5q-45 0 -76 20t-31 50q0 7 8 21
t15 19q2 1 7 0.5t6 -1.5q19 -58 94 -58z" />
    <glyph glyph-name="uni012D" unicode="&#x12d;" horiz-adv-x="238" 
d="M223 26q2 -4 0.5 -15.5t-4.5 -13.5q-5 0 -38 1.5t-63 1.5q-24 0 -58.5 -1.5t-39.5 -1.5q-2 3 -2 14.5t2 14.5q25 3 43 9q9 4 12.5 11t5.5 25q2 25 2 146q0 22 -0.5 54.5t-0.5 40.5q0 13 -7 21q-11 11 -48 24q-2 3 -0.5 12.5t4.5 11.5q65 2 130 29q0 -20 -0.5 -81
t-0.5 -94q0 -122 1 -167q0 -27 21 -34q26 -6 41 -8zM124 518q49 0 81 52q1 3 11 9t12 6t4.5 -2t1.5 -4q-10 -48 -46 -81t-85 -33q-40 0 -68.5 22.5t-28.5 57.5q0 9 9 21t20 19q1 1 5.5 1t4.5 -2q15 -66 79 -66z" />
    <glyph glyph-name="uni012E" unicode="&#x12e;" horiz-adv-x="322" 
d="M155 -214q-31 0 -53.5 19t-22.5 55q0 58 90 140q-33 0 -79.5 -1.5t-59.5 -1.5q-3 4 -3 15t2 14q34 3 51 8q20 4 26.5 14t8.5 29q4 28 4 262q0 147 -3 194q-1 15 -2.5 22.5t-7 14t-15.5 9.5q-11 4 -61 11q-3 5 -2 15t3 13q7 0 53.5 -1.5t76.5 -1.5q29 0 72 1.5t52 1.5
q2 -3 2.5 -13t-1.5 -15q-42 -6 -51 -8q-16 -4 -21.5 -14.5t-7.5 -35.5q-2 -28 -2 -213q0 -195 2 -230q1 -24 7.5 -36t27.5 -17q16 -5 59 -10q3 -4 2 -15t-4 -14l-94 3q-52 -63 -52 -112q0 -20 13 -30.5t32 -10.5q25 0 52 16q1 -4 1 -15.5t-1 -14.5q-18 -25 -45 -36t-49 -11z
" />
    <glyph glyph-name="uni012F" unicode="&#x12f;" horiz-adv-x="238" 
d="M107 -204q-29 0 -50.5 18.5t-21.5 53.5q0 57 86 132q-26 0 -61 -1.5t-40 -1.5q-2 3 -2 14.5t2 14.5q25 3 43 9q9 4 12.5 11t5.5 25q2 25 2 146q0 24 -0.5 56.5t-0.5 38.5q0 13 -7 21q-11 11 -48 24q-2 3 -0.5 12.5t4.5 11.5q65 2 130 29q0 -9 -0.5 -73.5t-0.5 -101.5
q0 -122 1 -167q0 -27 21 -34q19 -4 47 -8q2 -4 0.5 -15.5t-4.5 -13.5q-8 0 -32 1.5t-39 1.5q-49 -58 -49 -107q0 -19 11.5 -29t29.5 -10q27 0 50 16q2 -3 2 -14.5t-1 -14.5q-33 -45 -90 -45zM164 552q0 -33 -21 -49q-4 -2 -22 -3.5t-23 1.5q-21 10 -26 41q-3 21 5 29
q20 18 48 18q24 0 29 -8q10 -12 10 -29z" />
    <glyph glyph-name="uni0130" unicode="&#x130;" horiz-adv-x="322" 
d="M30 590q-3 3 -2 14.5t3 13.5q7 0 53.5 -1.5t76.5 -1.5q29 0 72 1.5t52 1.5q2 -3 2.5 -13.5t-1.5 -14.5q-42 -6 -51 -8q-16 -4 -21.5 -14.5t-7.5 -35.5q-2 -28 -2 -213q0 -195 2 -230q1 -24 7.5 -36t27.5 -17q16 -5 59 -10q3 -3 2 -15t-4 -14q-9 0 -55 1.5t-74 1.5
q-32 0 -79 -1.5t-60 -1.5q-4 2 -4 14.5t3 14.5q34 3 51 8q20 4 26.5 13.5t8.5 29.5q4 28 4 262q0 147 -3 194q-1 15 -2.5 22.5t-7 14t-15.5 9.5q-11 4 -61 11zM207 725q0 -33 -21 -48q-3 -3 -21 -4.5t-23 1.5q-22 12 -26 41q-3 21 5 29q20 18 48 18q20 0 29 -9q9 -11 9 -28z
" />
    <glyph glyph-name="dotlessi" unicode="&#x131;" horiz-adv-x="238" 
d="M223 26q2 -4 0.5 -15.5t-4.5 -13.5q-5 0 -38 1.5t-63 1.5q-24 0 -58.5 -1.5t-39.5 -1.5q-2 3 -2 14.5t2 14.5q25 3 43 9q9 4 12.5 11t5.5 25q2 25 2 146q0 22 -0.5 54.5t-0.5 40.5q0 13 -7 21q-11 11 -48 24q-2 3 -0.5 12.5t4.5 11.5q65 2 130 29q0 -20 -0.5 -81
t-0.5 -94q0 -122 1 -167q0 -27 21 -34q26 -6 41 -8z" />
    <glyph glyph-name="IJ" unicode="&#x132;" horiz-adv-x="642" 
d="M30 590q-3 3 -2 14.5t3 13.5q7 0 53.5 -1.5t76.5 -1.5q29 0 72 1.5t52 1.5q2 -3 2.5 -13.5t-1.5 -14.5q-42 -6 -51 -8q-16 -4 -21.5 -14.5t-7.5 -35.5q-2 -28 -2 -213q0 -195 2 -230q1 -24 7.5 -36t27.5 -17q16 -5 59 -10q3 -3 2 -15t-4 -14q-9 0 -55 1.5t-74 1.5
q-32 0 -79 -1.5t-60 -1.5q-4 2 -4 14.5t3 14.5q34 3 51 8q20 4 26.5 13.5t8.5 29.5q4 28 4 262q0 147 -3 194q-1 15 -2.5 22.5t-7 14t-15.5 9.5q-11 4 -61 11zM353 590q-3 3 -2.5 14.5t3.5 13.5q9 0 53.5 -1.5t85.5 -1.5q32 0 71.5 1.5t50.5 1.5q3 -2 3 -14t-4 -14
q-40 -6 -54 -12q-18 -7 -20 -39q0 -8 -1.5 -199.5t-3.5 -242.5q-5 -123 -37 -182q-36 -68 -89 -107t-103 -39q-26 0 -46.5 9t-27.5 23v7l-1 7q4 36 20 65q62 -43 107 -43q36 0 58 25q34 41 34 161q1 90 0.5 278t-2.5 221q-1 17 -3 25.5t-9 18t-20 13.5q-16 5 -63 11z" />
    <glyph glyph-name="ij" unicode="&#x133;" horiz-adv-x="477" 
d="M164 552q0 -33 -21 -49q-4 -2 -22 -3.5t-23 1.5q-21 10 -26 41q-3 21 5 29q20 18 48 18q24 0 29 -8q10 -12 10 -29zM224 26q2 -4 0.5 -15.5t-4.5 -13.5q-6 0 -39 1.5t-63 1.5q-24 0 -58.5 -1.5t-39.5 -1.5q-3 2 -3 14t3 15q25 3 43 9q9 4 12.5 11t5.5 25q2 25 2 146
q0 22 -0.5 54.5t-0.5 40.5q0 13 -7 21q-11 11 -48 24q-2 3 -0.5 12.5t4.5 11.5q65 2 130 29q0 -20 -0.5 -81t-0.5 -94q0 -122 1 -167q0 -27 21 -34q25 -6 42 -8zM404 558q0 -32 -18 -49q-3 -3 -24.5 -6.5t-25.5 -0.5q-20 13 -25 41q-3 23 4 30q19 19 53 19q26 0 31 -10
q5 -7 5 -24zM408 409q-3 -231 -3 -326q-2 -77 -9 -119q-10 -69 -54.5 -133t-87.5 -89q-13 1 -27 13q-2 5 0 9q52 35 75 93.5t23 157.5q0 282 -2 298q-2 22 -19 28q-13 5 -51 11q-4 4 -3 15t4 14q102 6 154 28z" />
    <glyph glyph-name="uni0134" unicode="&#x134;" horiz-adv-x="320" 
d="M31 590q-3 3 -2.5 14.5t3.5 13.5q9 0 53.5 -1.5t85.5 -1.5q32 0 71.5 1.5t50.5 1.5q3 -2 3 -14t-4 -14q-40 -6 -54 -12q-18 -7 -20 -39q0 -8 -1.5 -199.5t-3.5 -242.5q-5 -123 -37 -182q-36 -68 -89 -107t-103 -39q-26 0 -46.5 9t-27.5 23v7l-1 7q4 36 20 65
q62 -43 107 -43q36 0 58 25q34 41 34 161q1 90 0.5 278t-2.5 221q-1 17 -3 25.5t-9 18t-20 13.5q-16 5 -63 11zM150 782q4 4 21 7q9 -10 59.5 -51.5t69.5 -54.5q0 -4 -6 -13.5t-9 -9.5q-5 0 -57 23t-64 30q-7 2 -10 0q-15 -9 -61.5 -31t-50.5 -22t-9.5 9t-4.5 14
q89 66 122 99z" />
    <glyph glyph-name="uni0135" unicode="&#x135;" horiz-adv-x="239" 
d="M170 409q-3 -231 -3 -326q-2 -77 -9 -119q-10 -69 -54.5 -133t-87.5 -89q-13 1 -27 13q-2 5 0 9q52 35 75 93.5t23 157.5q0 282 -2 298q-2 22 -19 28q-13 5 -51 11q-4 4 -3 15t4 14q102 6 154 28zM111 542q-13 -24 -32.5 -53.5t-25.5 -33.5q-5 -4 -17 -6.5t-17 -1.5
q-3 0 -3 5q71 118 88 157q1 2 13.5 6t15.5 4q12 -28 43 -85.5t43 -74.5q-2 -4 -17 -9t-22 -5q-14 5 -64 97q-2 2 -5 0z" />
    <glyph glyph-name="uni0136" unicode="&#x136;" horiz-adv-x="643" 
d="M203 324q0 -156 1 -226q2 -34 8.5 -46t25.5 -17q27 -5 56 -9q3 -3 2 -15t-4 -14q-14 0 -63 1.5t-77 1.5q-27 0 -73 -1.5t-50 -1.5q-2 2 -2 14t2 15q47 6 55 8q19 5 25 17t8 42q3 68 1 229q0 184 -1 213q-2 24 -7.5 33t-24.5 14q-18 4 -50 8q-4 3 -4 14t4 14q6 0 47 -1.5
t79 -1.5q29 0 70 1.5t51 1.5q2 -3 2 -13.5t-2 -14.5q-46 -9 -50 -10q-16 -4 -21 -14.5t-7 -37.5q-1 -44 -1 -204zM374 590q-3 3 -2.5 14t3.5 14q14 0 51 -1.5t64 -1.5q36 0 120 3q3 -2 3 -13.5t-4 -14.5q-46 -7 -69 -18.5t-53 -44.5q-43 -48 -180 -191q-1 -2 0 -5
q30 -45 117 -140t135 -133q20 -16 40 -22q28 -9 69 -10q3 -3 1.5 -15t-5.5 -14q-25 -3 -86 -1t-79 8q-19 7 -41 26q-33 30 -107 114t-117 139q-6 8 -19 16q-1 3 0 9t2 7q32 12 94.5 76t113.5 128q20 27 20 42q0 12 -19 18q-20 7 -52 11zM371 -32q17 0 33.5 -20t16.5 -52
q0 -44 -31 -76.5t-83 -45.5q-3 1 -7.5 10t-3.5 13q37 16 52.5 32t15.5 37q0 36 -56 52q-2 2 -2 8.5t2 8.5q7 9 27.5 21t35.5 12z" />
    <glyph glyph-name="uni0137" unicode="&#x137;" horiz-adv-x="448" 
d="M230 367q-2 4 -1 15t4 13q120 0 190 9q3 -3 3 -14.5t-3 -15.5q-58 -10 -85 -37l-99 -101q-1 -1 -1 -3t1 -3q22 -35 74.5 -97t81.5 -86q17 -13 30.5 -16.5t43.5 -4.5q2 -3 0.5 -15t-4.5 -14q-9 -2 -98 -2q-24 0 -45 16q-15 12 -37.5 40t-52.5 67.5t-45 58.5q-12 16 -35 16
q0 -84 2 -123q0 -18 5.5 -25.5t19.5 -11.5q26 -5 41 -7q2 -3 1 -14.5t-5 -14.5q-6 0 -40.5 1.5t-59.5 1.5q-32 0 -64.5 -1.5t-35.5 -1.5q-3 2 -3.5 14.5t3.5 14.5q30 5 37 7q21 6 22 33q2 31 2 193q0 306 -2 331q-2 22 -17 27q-10 3 -50 7q-2 3 -1.5 13.5t2.5 12.5
q98 7 148 28q2 0 5 -4.5t3 -6.5q-9 -16 -11 -89q-2 -80 -2 -363q24 5 47 24q27 22 57 57.5t33 48.5q2 11 -12 15q-30 6 -47 7zM262 -33q17 0 33.5 -20t16.5 -52q0 -44 -31 -76.5t-83 -45.5q-3 1 -7.5 10t-3.5 13q37 16 52.5 32t15.5 37q0 36 -56 52q-2 2 -2 8.5t2 8.5
q7 9 27.5 21t35.5 12z" />
    <glyph glyph-name="uni0138" unicode="&#x138;" horiz-adv-x="453" 
d="M22 26l36 6q14 4 18.5 13t5.5 29q0 2 0.5 42t0.5 83.5v83v40.5q-2 19 -17 26q-16 6 -44 12q-1 4 1 14t3 11q62 5 137 22q-2 -14 -5 -63v-140q36 10 91.5 67t55.5 73q0 10 -12 14q-18 6 -40 8q-3 4 -3 15t4 13q63 -1 175 5q3 -3 3 -14t-3 -14q-49 -9 -75 -35
q-87 -89 -112 -113q-3 -3 0 -6q29 -41 75 -94t71 -74q14 -12 31.5 -17t57.5 -7q2 -3 0 -14.5t-5 -14.5q-25 -5 -96 -5q-42 0 -63 24q-45 47 -127 155q-10 10 -28 10q0 -19 0.5 -56.5t0.5 -51.5q1 -21 5.5 -29t20.5 -12q6 -2 38 -6q3 -3 1.5 -14.5t-4.5 -14.5q-2 0 -36 1.5
t-68 1.5q-31 0 -60.5 -1.5t-32.5 -1.5q-3 2 -3 14t2 15z" />
    <glyph glyph-name="uni0139" unicode="&#x139;" horiz-adv-x="550" 
d="M30 590q-3 3 -2 14.5t5 13.5q10 0 50 -1.5t78 -1.5q39 0 79.5 1.5t44.5 1.5q4 -3 4 -14t-4 -14q-25 -3 -51 -9q-17 -4 -21.5 -13t-5.5 -27q-1 -16 -3 -216q0 -207 3 -250q1 -22 19 -28q32 -11 167 -8q35 2 59 37q31 42 59 110q6 1 16.5 -2.5t13.5 -8.5q-6 -32 -23 -89
t-29 -78q-7 -13 -41 -13t-148.5 2.5t-138.5 2.5q-27 0 -81.5 -1.5t-61.5 -1.5q-3 2 -3.5 14.5t3.5 14.5q44 4 66 9q16 4 22.5 13.5t8.5 27.5q4 54 4 255q0 166 -2 192q-1 32 -6.5 43t-25.5 15q-24 6 -55 9zM246 797q11 -1 32 -13t28 -21q2 -2 2 -7t-2 -6q-10 -11 -84 -53.5
t-81 -42.5q-2 0 -9 10t-6 11q9 13 59.5 64.5t60.5 57.5z" />
    <glyph glyph-name="uni013A" unicode="&#x13a;" horiz-adv-x="231" 
d="M14 -3q-7 18 0 29q32 5 44 10q14 7 16 28q4 43 4 264q0 218 -3 248q-3 28 -15 31q-14 4 -52 9q-3 2 -2.5 12.5t3.5 12.5q78 6 147 37q7 -2 7 -9q-9 -27 -9 -87q-1 -51 -1 -250q0 -212 3 -252q1 -22 5 -31.5t17 -13.5q16 -7 42 -9q2 -4 0.5 -14.5t-4.5 -14.5
q-5 0 -38.5 1.5t-64.5 1.5q-23 0 -59.5 -1.5t-39.5 -1.5zM181 836q11 -1 32 -13t28 -21q1 -2 1 -7t-1 -6q-10 -11 -84 -53.5t-81 -42.5q-2 0 -9 10t-6 11q9 13 59.5 64.5t60.5 57.5z" />
    <glyph glyph-name="uni013B" unicode="&#x13b;" horiz-adv-x="550" 
d="M30 590q-3 3 -2 14.5t5 13.5q10 0 50 -1.5t78 -1.5q39 0 79.5 1.5t44.5 1.5q4 -3 4 -14t-4 -14q-25 -3 -51 -9q-17 -4 -21.5 -13t-5.5 -27q-1 -16 -3 -216q0 -207 3 -250q1 -22 19 -28q32 -11 167 -8q35 2 59 37q31 42 59 110q6 1 16.5 -2.5t13.5 -8.5q-6 -32 -23 -89
t-29 -78q-7 -13 -41 -13t-148.5 2.5t-138.5 2.5q-27 0 -81.5 -1.5t-61.5 -1.5q-3 2 -3.5 14.5t3.5 14.5q44 4 66 9q16 4 22.5 13.5t8.5 27.5q4 54 4 255q0 166 -2 192q-1 32 -6.5 43t-25.5 15q-24 6 -55 9zM288 -37q17 0 33.5 -20t16.5 -52q0 -44 -31 -76.5t-83 -45.5
q-3 1 -7.5 10t-3.5 13q37 16 52.5 32t15.5 37q0 36 -56 52q-2 2 -2 8.5t2 8.5q7 9 27.5 21t35.5 12z" />
    <glyph glyph-name="uni013C" unicode="&#x13c;" horiz-adv-x="231" 
d="M14 -3q-7 18 0 29q32 5 44 10q14 7 16 28q4 43 4 264q0 218 -3 248q-3 28 -15 31q-14 4 -52 9q-3 2 -2.5 12.5t3.5 12.5q78 6 147 37q7 -2 7 -9q-9 -27 -9 -87q-1 -51 -1 -250q0 -212 3 -252q1 -22 5 -31.5t17 -13.5q16 -7 42 -9q2 -4 0.5 -14.5t-4.5 -14.5
q-5 0 -38.5 1.5t-64.5 1.5q-23 0 -59.5 -1.5t-39.5 -1.5zM120 -32q17 0 33.5 -20t16.5 -52q0 -44 -31 -76.5t-83 -45.5q-3 1 -7.5 10t-3.5 13q37 16 52.5 32t15.5 37q0 36 -56 52q-2 2 -2 8.5t2 8.5q7 9 27.5 21t35.5 12z" />
    <glyph glyph-name="uni013D" unicode="&#x13d;" horiz-adv-x="550" 
d="M30 590q-3 3 -2 14.5t5 13.5q10 0 50 -1.5t78 -1.5q39 0 79.5 1.5t44.5 1.5q4 -3 4 -14t-4 -14q-25 -3 -51 -9q-17 -4 -21.5 -13t-5.5 -27q-1 -16 -3 -216q0 -207 3 -250q1 -22 19 -28q32 -11 167 -8q35 2 59 37q31 42 59 110q6 1 16.5 -2.5t13.5 -8.5q-6 -32 -23 -89
t-29 -78q-7 -13 -41 -13t-148.5 2.5t-138.5 2.5q-27 0 -81.5 -1.5t-61.5 -1.5q-3 2 -3.5 14.5t3.5 14.5q44 4 66 9q16 4 22.5 13.5t8.5 27.5q4 54 4 255q0 166 -2 192q-1 32 -6.5 43t-25.5 15q-24 6 -55 9zM432 649q5 0 5 -13q1 -26 -5.5 -86t-13.5 -87q-3 -10 -13 -20.5
t-18 -14.5q-2 -1 -4.5 1.5t-2.5 3.5q0 89 -11 170q0 5 2 8q6 7 29.5 22.5t31.5 15.5z" />
    <glyph glyph-name="uni013E" unicode="&#x13e;" horiz-adv-x="231" 
d="M14 -3q-7 18 0 29q32 5 44 10q14 7 16 28q4 43 4 264q0 218 -3 248q-3 28 -15 31q-14 4 -52 9q-3 2 -2.5 12.5t3.5 12.5q78 6 147 37q7 -2 7 -9q-9 -27 -9 -87q-1 -51 -1 -250q0 -212 3 -252q1 -22 5 -31.5t17 -13.5q16 -7 42 -9q2 -4 0.5 -14.5t-4.5 -14.5
q-5 0 -38.5 1.5t-64.5 1.5q-23 0 -59.5 -1.5t-39.5 -1.5zM268 685q5 0 5 -13q1 -26 -5.5 -86t-13.5 -87q-3 -10 -13 -20.5t-18 -14.5q-2 -1 -4.5 1.5t-2.5 3.5q0 89 -11 170q0 5 2 8q6 7 29.5 22.5t31.5 15.5z" />
    <glyph glyph-name="Ldot" unicode="&#x13f;" horiz-adv-x="550" 
d="M30 590q-3 3 -2 14.5t5 13.5q10 0 50 -1.5t78 -1.5q39 0 79.5 1.5t44.5 1.5q4 -3 4 -14t-4 -14q-25 -3 -51 -9q-17 -4 -21.5 -13t-5.5 -27q-1 -16 -3 -216q0 -207 3 -250q1 -22 19 -28q32 -11 167 -8q35 2 59 37q31 42 59 110q6 1 16.5 -2.5t13.5 -8.5q-6 -32 -23 -89
t-29 -78q-7 -13 -41 -13t-148.5 2.5t-138.5 2.5q-27 0 -81.5 -1.5t-61.5 -1.5q-3 2 -3.5 14.5t3.5 14.5q44 4 66 9q16 4 22.5 13.5t8.5 27.5q4 54 4 255q0 166 -2 192q-1 32 -6.5 43t-25.5 15q-24 6 -55 9zM454 345q0 -33 -21 -48q-3 -3 -21 -4.5t-23 1.5q-22 12 -26 41
q-3 21 5 29q20 18 48 18q20 0 29 -9q9 -11 9 -28z" />
    <glyph glyph-name="ldot" unicode="&#x140;" horiz-adv-x="231" 
d="M276 364q0 -33 -21 -48q-3 -2 -20.5 -3.5t-22.5 1.5q-20 11 -24 41q-1 6 0.5 16.5t4.5 13.5q15 17 46 17q22 0 28 -9q9 -11 9 -29zM14 -3q-7 18 0 29q32 5 44 10q14 7 16 28q4 43 4 264q0 218 -3 248q-3 28 -15 31q-14 4 -52 9q-3 2 -2.5 12.5t3.5 12.5q78 6 147 37
q7 -2 7 -9q-9 -27 -9 -87q-1 -51 -1 -250q0 -212 3 -252q1 -22 5 -31.5t17 -13.5q16 -7 42 -9q2 -4 0.5 -14.5t-4.5 -14.5q-5 0 -38.5 1.5t-64.5 1.5q-23 0 -59.5 -1.5t-39.5 -1.5z" />
    <glyph glyph-name="Lslash" unicode="&#x141;" horiz-adv-x="550" 
d="M18 26q44 4 66 9q16 4 22.5 13.5t8.5 27.5q3 55 4 179q-58 -25 -75 -33q-2 1 -4.5 18.5t-1.5 20.5l81 33v37q0 166 -2 192q-1 32 -6.5 43t-25.5 15q-24 6 -55 9q-3 3 -2 14.5t5 13.5q10 0 50 -1.5t78 -1.5q39 0 79.5 1.5t44.5 1.5q4 -3 4 -14t-4 -14q-25 -3 -51 -9
q-17 -4 -21.5 -13t-5.5 -27q-1 -17 -3 -211q24 10 79 33.5t77 33.5q2 -1 4 -17.5t1 -20.5q-55 -24 -161 -68q0 -176 3 -216q1 -22 19 -28q31 -11 168 -8q34 2 59 36q30 43 58 111q6 1 16.5 -2.5t13.5 -8.5q-6 -33 -23 -89.5t-29 -77.5q-7 -13 -41 -13t-148.5 2.5t-138.5 2.5
q-27 0 -81.5 -1.5t-61.5 -1.5q-3 2 -3.5 14.5t3.5 14.5z" />
    <glyph glyph-name="lslash" unicode="&#x142;" horiz-adv-x="241" 
d="M238 401l-75 -40q0 -241 3 -281q1 -21 5 -30.5t17 -13.5q17 -7 48 -10q2 -4 0 -14.5t-5 -14.5q-8 0 -42.5 1.5t-65.5 1.5q-27 0 -62 -1.5t-39 -1.5q-2 3 -2.5 14t2.5 15q35 6 46 10q14 7 16 31q2 26 2 257l-63 -32q-3 3 -3 17t3 16l64 33q0 198 -2 218q-3 28 -16 31
q-15 5 -51 9q-3 3 -2 12.5t3 12.5q78 6 147 37q7 -4 7 -9q-9 -25 -9 -87l-1 -186q55 29 73 36q1 -2 2 -16t0 -15z" />
    <glyph glyph-name="uni0143" unicode="&#x143;" horiz-adv-x="734" 
d="M15 590q-2 2 -1.5 14t3.5 14q9 0 53 -1.5t72 -1.5q37 0 45 1q7 -17 36 -54q225 -282 355 -434q2 -1 4 1q0 338 -4 396q-2 24 -9.5 35.5t-28.5 17.5q-27 8 -67 12q-3 3 -2.5 14.5t2.5 13.5q9 0 53.5 -1.5t79.5 -1.5q20 0 61 1.5t45 1.5q3 -2 3 -13.5t-3 -14.5
q-25 -4 -44 -10q-31 -11 -34 -54q-2 -28 -8 -394q0 -71 2 -137q-8 1 -34 1t-35 -1q-54 78 -388 495q-1 1 -2.5 0.5t-1.5 -1.5q-2 -75 -1.5 -214t2.5 -179q1 -29 11 -42t30 -18q13 -4 60 -10q3 -3 2 -14.5t-4 -14.5q-8 0 -50.5 1.5t-74.5 1.5q-36 0 -75 -1.5t-45 -1.5
q-2 2 -2 14.5t2 14.5q29 3 53 9q36 11 38 59q6 73 9 425q0 34 -27 49q-24 16 -80 22zM439 791q11 -1 32 -13t28 -21q1 -2 1 -7t-1 -6q-10 -11 -84 -53.5t-81 -42.5q-2 0 -9 10t-6 11q9 13 59.5 64.5t60.5 57.5z" />
    <glyph glyph-name="uni0144" unicode="&#x144;" horiz-adv-x="500" 
d="M24 26q19 3 36 7q19 6 21 35q2 31 2 164q0 50 -2 80q-4 20 -52 38q-2 5 0 13t5 10q69 7 123 37q4 -4 4 -7q-2 -22 -2 -57q0 -4 5 -2q79 65 136 65q61 0 96 -52q26 -41 26 -118q0 -146 2 -181q0 -15 10 -19q16 -8 50 -13q2 -4 1.5 -14.5t-4.5 -14.5q-2 0 -33.5 1.5
t-62.5 1.5q-27 0 -99 -3q-2 3 -2.5 14.5t2.5 14.5q29 3 41 7q17 6 18 41q3 152 -3 194q-5 40 -28 59q-25 23 -62 23q-46 0 -83 -32q-10 -10 -10 -36q0 -168 2 -214q1 -29 19 -34q12 -4 42 -8q2 -3 1 -14t-4 -15q-3 0 -34.5 1.5t-63.5 1.5q-29 0 -62.5 -1.5t-34.5 -1.5
q-3 3 -3 14.5t3 14.5zM284 607q8 4 38.5 7t37.5 1q4 -2 4 -11q-10 -18 -56 -78.5t-66 -83.5q-3 0 -12 6t-10 9q51 125 64 150z" />
    <glyph glyph-name="uni0145" unicode="&#x145;" horiz-adv-x="734" 
d="M15 590q-2 2 -1.5 14t3.5 14q9 0 53 -1.5t72 -1.5q37 0 45 1q7 -17 36 -54q225 -282 355 -434q2 -1 4 1q0 338 -4 396q-2 24 -9.5 35.5t-28.5 17.5q-27 8 -67 12q-3 3 -2.5 14.5t2.5 13.5q9 0 53.5 -1.5t79.5 -1.5q20 0 61 1.5t45 1.5q3 -2 3 -13.5t-3 -14.5
q-25 -4 -44 -10q-31 -11 -34 -54q-2 -28 -8 -394q0 -71 2 -137q-8 1 -34 1t-35 -1q-54 78 -388 495q-1 1 -2.5 0.5t-1.5 -1.5q-2 -75 -1.5 -214t2.5 -179q1 -29 11 -42t30 -18q13 -4 60 -10q3 -3 2 -14.5t-4 -14.5q-8 0 -50.5 1.5t-74.5 1.5q-36 0 -75 -1.5t-45 -1.5
q-2 2 -2 14.5t2 14.5q29 3 53 9q36 11 38 59q6 73 9 425q0 34 -27 49q-24 16 -80 22zM391 -30q17 0 33.5 -20t16.5 -52q0 -44 -31 -76.5t-83 -45.5q-3 1 -7.5 10t-3.5 13q37 16 52.5 32t15.5 37q0 36 -56 52q-2 2 -2 8.5t2 8.5q7 9 27.5 21t35.5 12z" />
    <glyph glyph-name="uni0146" unicode="&#x146;" horiz-adv-x="500" 
d="M24 26q19 3 36 7q19 6 21 35q2 31 2 164q0 50 -2 80q-4 20 -52 38q-2 5 0 13t5 10q69 7 123 37q4 -4 4 -7q-2 -22 -2 -57q0 -4 5 -2q79 65 136 65q61 0 96 -52q26 -41 26 -118q0 -146 2 -181q0 -15 10 -19q16 -8 50 -13q2 -4 1.5 -14.5t-4.5 -14.5q-2 0 -33.5 1.5
t-62.5 1.5q-27 0 -99 -3q-2 3 -2.5 14.5t2.5 14.5q29 3 41 7q17 6 18 41q3 152 -3 194q-5 40 -28 59q-25 23 -62 23q-46 0 -83 -32q-10 -10 -10 -36q0 -168 2 -214q1 -29 19 -34q12 -4 42 -8q2 -3 1 -14t-4 -15q-3 0 -34.5 1.5t-63.5 1.5q-29 0 -62.5 -1.5t-34.5 -1.5
q-3 3 -3 14.5t3 14.5zM260 -35q17 0 33.5 -20t16.5 -52q0 -44 -31 -76.5t-83 -45.5q-3 1 -7.5 10t-3.5 13q37 16 52.5 32t15.5 37q0 36 -56 52q-2 2 -2 8.5t2 8.5q7 9 27.5 21t35.5 12z" />
    <glyph glyph-name="uni0147" unicode="&#x147;" horiz-adv-x="734" 
d="M15 590q-2 2 -1.5 14t3.5 14q9 0 53 -1.5t72 -1.5q37 0 45 1q7 -17 36 -54q225 -282 355 -434q2 -1 4 1q0 338 -4 396q-2 24 -9.5 35.5t-28.5 17.5q-27 8 -67 12q-3 3 -2.5 14.5t2.5 13.5q9 0 53.5 -1.5t79.5 -1.5q20 0 61 1.5t45 1.5q3 -2 3 -13.5t-3 -14.5
q-25 -4 -44 -10q-31 -11 -34 -54q-2 -28 -8 -394q0 -71 2 -137q-8 1 -34 1t-35 -1q-54 78 -388 495q-1 1 -2.5 0.5t-1.5 -1.5q-2 -75 -1.5 -214t2.5 -179q1 -29 11 -42t30 -18q13 -4 60 -10q3 -3 2 -14.5t-4 -14.5q-8 0 -50.5 1.5t-74.5 1.5q-36 0 -75 -1.5t-45 -1.5
q-2 2 -2 14.5t2 14.5q29 3 53 9q36 11 38 59q6 73 9 425q0 34 -27 49q-24 16 -80 22zM381 660q-9 -6 -21 -6q-9 9 -58.5 50t-70.5 56q0 4 6.5 13.5t9.5 9.5q4 0 56.5 -23t63.5 -30q7 -2 10 0q17 9 63 31t50 22q3 0 8.5 -9.5t4.5 -13.5q-114 -92 -122 -100z" />
    <glyph glyph-name="uni0148" unicode="&#x148;" horiz-adv-x="500" 
d="M24 26q19 3 36 7q19 6 21 35q2 31 2 164q0 50 -2 80q-4 20 -52 38q-2 5 0 13t5 10q69 7 123 37q4 -4 4 -7q-2 -22 -2 -57q0 -4 5 -2q79 65 136 65q61 0 96 -52q26 -41 26 -118q0 -146 2 -181q0 -15 10 -19q16 -8 50 -13q2 -4 1.5 -14.5t-4.5 -14.5q-2 0 -33.5 1.5
t-62.5 1.5q-27 0 -99 -3q-2 3 -2.5 14.5t2.5 14.5q29 3 41 7q17 6 18 41q3 152 -3 194q-5 40 -28 59q-25 23 -62 23q-46 0 -83 -32q-10 -10 -10 -36q0 -168 2 -214q1 -29 19 -34q12 -4 42 -8q2 -3 1 -14t-4 -15q-3 0 -34.5 1.5t-63.5 1.5q-29 0 -62.5 -1.5t-34.5 -1.5
q-3 3 -3 14.5t3 14.5zM258 521q13 24 33 53.5t26 33.5q19 12 34 8q4 0 4 -5q-66 -103 -89 -157q-1 -2 -13.5 -6t-15.5 -4q-11 27 -42.5 84t-44.5 76q2 4 17 9t22 5q5 -2 25.5 -32.5t38.5 -64.5q1 -1 2.5 -1t2.5 1z" />
    <glyph glyph-name="uni0149" unicode="&#x149;" horiz-adv-x="500" 
d="M24 26q19 3 36 7q19 6 21 35q2 31 2 164q0 50 -2 80q-4 20 -52 38q-2 5 0 13t5 10q69 7 123 37q4 -4 4 -7q-2 -22 -2 -57q0 -4 5 -2q79 65 136 65q61 0 96 -52q26 -41 26 -118q0 -146 2 -181q0 -15 10 -19q16 -8 50 -13q2 -4 1.5 -14.5t-4.5 -14.5q-2 0 -33.5 1.5
t-62.5 1.5q-27 0 -99 -3q-2 3 -2.5 14.5t2.5 14.5q29 3 41 7q17 6 18 41q3 152 -3 194q-5 40 -28 59q-25 23 -62 23q-46 0 -83 -32q-10 -10 -10 -36q0 -168 2 -214q1 -29 19 -34q12 -4 42 -8q2 -3 1 -14t-4 -15q-3 0 -34.5 1.5t-63.5 1.5q-29 0 -62.5 -1.5t-34.5 -1.5
q-3 3 -3 14.5t3 14.5zM112 618q21 0 40 -19.5t19 -53.5q0 -38 -28.5 -64.5t-75.5 -36.5q-4 1 -7 9.5t-2 12.5q34 14 47.5 27.5t13.5 30.5q0 33 -60 45q-1 1 -1 6.5t1 7.5q7 11 24.5 23t28.5 12z" />
    <glyph glyph-name="Eng" unicode="&#x14a;" horiz-adv-x="734" 
d="M22 26q34 4 53 10t28 18t10 40q6 73 9 426q0 33 -27 48q-24 16 -80 22q-3 1 -2.5 13.5t4.5 14.5q10 0 55.5 -1.5t70.5 -1.5q36 0 44 1q6 -15 36 -54q213 -268 355 -433q2 0 4 2q0 347 -4 394q-2 25 -9.5 36t-28.5 17q-28 8 -66 12q-3 2 -3 13.5t3 14.5q10 0 56 -1.5
t79 -1.5q17 0 57.5 1.5t45.5 1.5q3 -2 3 -14t-3 -14q-25 -4 -44 -10q-31 -11 -34 -54q-6 -73 -8 -393q-1 -99 -1 -102q0 -122 -32.5 -195.5t-102.5 -73.5q-34 0 -43 18q-6 10 -8.5 32.5t1.5 35.5q0 2 3 4.5t5 1.5q23 -14 65 -14q32 0 46 24t14 82q0 30 -19 57
q-39 57 -383 487q-1 1 -3 1t-2 -2q-3 -323 2 -396q2 -47 39 -56q17 -6 61 -11q3 -3 2.5 -15t-3.5 -14q-15 0 -56 1.5t-69 1.5q-35 0 -73 -1.5t-47 -1.5q-3 2 -3 14.5t3 14.5z" />
    <glyph glyph-name="eng" unicode="&#x14b;" horiz-adv-x="494" 
d="M23 26q21 3 37 7q19 6 21 35q2 31 2 162q0 53 -2 83q-3 19 -53 38q0 16 6 22q73 9 123 37l4 -7q-2 -22 -2 -57q0 -4 5 -2q77 65 136 65q60 0 96 -51q27 -41 27 -125q0 -96 -2 -182q-5 -170 -65 -252q-50 -67 -104 -67q-29 0 -44 17q-2 7 2 33.5t7 33.5q40 -23 71 -23
q24 0 37.5 20.5t16.5 76.5q4 100 4 165q2 133 -6 205q-3 45 -27 67q-27 23 -61 23q-46 0 -83 -32q-10 -10 -10 -36q0 -177 2 -214q1 -29 19 -34q19 -6 43 -8q2 -3 1.5 -15t-4.5 -14q-4 0 -38 1.5t-61 1.5q-25 0 -59.5 -1.5t-37.5 -1.5q-3 3 -3 14.5t2 14.5z" />
    <glyph glyph-name="uni014C" unicode="&#x14c;" horiz-adv-x="746" 
d="M367 -18q-141 0 -226 91q-86 95 -86 240q0 108 62 193q41 57 115 92t152 35q74 0 133.5 -25.5t97 -69.5t57 -99.5t19.5 -117.5q0 -123 -61 -208q-45 -63 -115.5 -97t-147.5 -34zM405 26q66 0 107 35q84 68 84 225q0 85 -29 156t-86 111q-58 40 -131 40q-51 0 -90 -22
q-53 -31 -80 -93.5t-27 -141.5q0 -84 32 -159.5t95 -116.5q54 -34 125 -34zM268 745q20 -2 53 -2h174q0 -9 -6.5 -28.5t-9.5 -20.5q-15 -3 -191 -3l-37 2q0 1 17 52z" />
    <glyph glyph-name="uni014D" unicode="&#x14d;" horiz-adv-x="492" 
d="M260 409q88 0 139 -57t51 -144q0 -124 -93 -183q-55 -37 -116 -37q-101 0 -150 63t-49 151q0 107 87 167q63 40 131 40zM226 370q-28 0 -48 -14q-51 -33 -51 -129q0 -88 39 -143t100 -55q39 0 61 21q38 35 38 126q0 87 -38 140.5t-101 53.5zM152 555q12 -2 45 -2h66.5
h65.5h26q0 -10 -6 -29t-9 -20q-9 -2 -173 -2q-28 0 -32 1q1 7 8 28t9 24z" />
    <glyph glyph-name="uni014E" unicode="&#x14e;" horiz-adv-x="746" 
d="M367 -18q-141 0 -226 91q-86 95 -86 240q0 108 62 193q41 57 115 92t152 35q74 0 133.5 -25.5t97 -69.5t57 -99.5t19.5 -117.5q0 -123 -61 -208q-45 -63 -115.5 -97t-147.5 -34zM405 26q66 0 107 35q84 68 84 225q0 85 -29 156t-86 111q-58 40 -131 40q-51 0 -90 -22
q-53 -31 -80 -93.5t-27 -141.5q0 -84 32 -159.5t95 -116.5q54 -34 125 -34zM381 727q53 0 90 46q1 2 12.5 7t14.5 5q2 0 4 -2t1 -3q-15 -43 -53.5 -73.5t-91.5 -30.5q-45 0 -76 20t-31 50q0 7 8 21t15 19q2 1 7 0.5t6 -1.5q19 -58 94 -58z" />
    <glyph glyph-name="uni014F" unicode="&#x14f;" horiz-adv-x="492" 
d="M260 409q88 0 139 -57t51 -144q0 -124 -93 -183q-55 -37 -116 -37q-101 0 -150 63t-49 151q0 107 87 167q63 40 131 40zM226 370q-28 0 -48 -14q-51 -33 -51 -129q0 -88 39 -143t100 -55q39 0 61 21q38 35 38 126q0 87 -38 140.5t-101 53.5zM255 518q49 0 81 52q1 3 11 9
t12 6t4.5 -2t1.5 -4q-10 -48 -46 -81t-85 -33q-40 0 -68.5 22.5t-28.5 57.5q0 9 9 21t20 19q2 1 6 1t4 -2q15 -66 79 -66z" />
    <glyph glyph-name="uni0150" unicode="&#x150;" horiz-adv-x="746" 
d="M367 -18q-141 0 -226 91q-86 95 -86 240q0 108 62 193q41 57 115 92t152 35q74 0 133.5 -25.5t97 -69.5t57 -99.5t19.5 -117.5q0 -123 -61 -208q-45 -63 -115.5 -97t-147.5 -34zM405 26q66 0 107 35q84 68 84 225q0 85 -29 156t-86 111q-58 40 -131 40q-51 0 -90 -22
q-53 -31 -80 -93.5t-27 -141.5q0 -84 32 -159.5t95 -116.5q54 -34 125 -34zM451 795q8 4 36 7t38 1q2 -1 4 -5t1 -6q-5 -12 -40 -61.5t-47 -63.5q-3 -1 -14 3t-13 6zM323 782q6 4 34.5 7.5t36.5 2.5q2 -1 4 -5t1 -6q-6 -12 -38 -58.5t-43 -58.5q-3 -1 -14.5 2t-12.5 6
q3 9 10 34t13 46t9 30z" />
    <glyph glyph-name="uni0151" unicode="&#x151;" horiz-adv-x="492" 
d="M260 409q88 0 139 -57t51 -144q0 -124 -93 -183q-55 -37 -116 -37q-101 0 -150 63t-49 151q0 107 87 167q63 40 131 40zM226 370q-28 0 -48 -14q-51 -33 -51 -129q0 -88 39 -143t100 -55q39 0 61 21q38 35 38 126q0 87 -38 140.5t-101 53.5zM205 603q7 3 29.5 5t31.5 0
q1 -1 2 -4.5t0 -4.5q-8 -18 -38 -71.5t-46 -78.5q-4 -1 -13.5 1.5t-10.5 5.5q42 138 45 147zM329 613q8 3 29.5 4.5t29.5 -1.5q2 -2 2 -9q-8 -17 -40 -74.5t-46 -77.5q-4 -1 -13 1t-10 6q47 149 48 151z" />
    <glyph glyph-name="OE" unicode="&#x152;" horiz-adv-x="1013" 
d="M894 -4q-260 4 -391 4q-19 0 -32 -5q-52 -13 -104 -13q-139 0 -225 91q-87 93 -87 240q0 110 62 193q41 58 114 92.5t153 34.5q40 0 90 -10q28 -7 55 -7h292q91 0 111 3l4 -3q-13 -47 -17 -142q-3 -3 -15 -4t-17 2q-4 38 -13 64q-6 19 -17 27t-35 10q-14 1 -121 1.5
t-119 -0.5q-5 0 -1 -6q101 -79 109 -227q0 -5 4 -5q91 0 125 2q27 1 36 31q7 20 11 42q5 2 18.5 1t15.5 -4q-7 -49 -7 -99q0 -23 3 -92q-5 -3 -17 -3t-18 2q-5 27 -8 41q-9 31 -36 32q-30 2 -123 2q-5 0 -5 -7q-3 -62 -32.5 -124.5t-80.5 -104.5q-8 -6 2 -9q71 -6 255 -6
q51 0 75 34q27 36 50 91q5 1 16 -3t15 -8q-14 -71 -39 -132q-6 -17 -16 -21.5t-40 -4.5zM405 26q66 0 106 34q86 68 86 227q0 85 -28.5 155.5t-85.5 110.5q-59 40 -132 40q-49 0 -90 -22q-53 -31 -80.5 -93.5t-27.5 -141.5q0 -85 32.5 -160t95.5 -116q52 -34 124 -34z" />
    <glyph glyph-name="oe" unicode="&#x153;" horiz-adv-x="743" 
d="M226 371q-30 0 -50 -15q-50 -31 -50 -129q0 -87 40.5 -143t99.5 -56q40 0 62 20q41 39 41 136q0 82 -40 134.5t-103 52.5zM408 55q-4 4 -9 0q-72 -67 -157 -67q-101 0 -150.5 63t-49.5 151q0 107 87 166q62 41 132 41q87 -2 144 -65q4 -3 8 1q65 65 142 64q27 0 49.5 -9
t37 -22.5t25 -30.5t16 -31t7.5 -26q0 -7 17 -12q-3 -18 -8 -22q-9 -4 -105 -17.5t-142 -17.5q-8 -2 -8 -11q5 -78 41 -114q40 -43 108 -43q58 0 114 43q2 -4 2 -14.5t-1 -13.5q-32 -35 -79 -57.5t-87 -22.5q-78 0 -134 67zM527 374q-35 0 -58 -30t-25 -84q0 -6 5 -6
q118 9 159 20q5 5 5 11q-5 33 -27.5 61t-58.5 28z" />
    <glyph glyph-name="uni0154" unicode="&#x154;" horiz-adv-x="612" 
d="M30 590q-3 3 -2 14.5t4 13.5q11 0 55 -1.5t60 -1.5q41 0 95.5 1t70.5 1q84 0 131.5 -44t47.5 -110q0 -110 -114 -161q-4 -4 -2 -7q30 -48 79.5 -114.5t83.5 -101.5q30 -31 49.5 -40t65.5 -15q2 -3 0 -15t-6 -13q-110 -5 -160 19q-25 12 -48 40q-22 27 -76.5 108.5
t-60.5 90.5q-11 15 -25 15q-7 1 -71 1q-4 0 -4 -6q0 -148 2 -181q1 -25 8 -34.5t24 -13.5q24 -5 56 -9q4 -3 3 -14.5t-5 -14.5q-4 0 -49 1.5t-84 1.5q-38 0 -80.5 -1.5t-46.5 -1.5q-4 3 -4 14.5t4 14.5q40 5 51 8q18 4 25.5 15.5t8.5 39.5q2 46 2 214q0 202 -1 233
q-1 21 -8 31.5t-25 14.5q-26 5 -54 8zM247 583q-22 0 -35 -5q-7 -5 -7 -15q-2 -34 -2 -248q0 -5 5 -5q103 -3 129 8q65 30 65 116q0 149 -155 149zM346 798q11 -1 32 -13t28 -21q2 -2 2 -7t-2 -6q-10 -11 -84 -53.5t-81 -42.5q-2 0 -9 10t-6 11q9 13 59.5 64.5t60.5 57.5z
" />
    <glyph glyph-name="uni0155" unicode="&#x155;" horiz-adv-x="324" 
d="M276 409q34 0 47 -22q2 -7 0 -16t-13 -31.5t-18 -31.5q-4 -4 -8 -4q-37 31 -65 31q-27 0 -53 -42q-8 -16 -8 -34q0 -151 2 -191q1 -26 21 -32q23 -6 63 -10q2 -4 0.5 -15t-4.5 -14q-2 0 -47.5 1.5t-69.5 1.5q-46 0 -100 -3q-2 3 -2.5 14.5t2.5 14.5q22 2 39 8q16 6 18 28
q3 24 3 168q0 67 -1 79q-3 24 -55 42q0 19 5 22q28 3 65 14t57 23q5 0 5 -4q-2 -28 -2 -77q0 -2 1.5 -2.5t3.5 0.5q34 43 63 63q25 19 51 19zM207 607q8 4 38.5 7t37.5 1q4 -2 4 -11q-10 -18 -56 -78.5t-66 -83.5q-3 0 -12 6t-10 9q51 125 64 150z" />
    <glyph glyph-name="uni0156" unicode="&#x156;" horiz-adv-x="612" 
d="M30 590q-3 3 -2 14.5t4 13.5q11 0 55 -1.5t60 -1.5q41 0 95.5 1t70.5 1q84 0 131.5 -44t47.5 -110q0 -110 -114 -161q-4 -4 -2 -7q30 -48 79.5 -114.5t83.5 -101.5q30 -31 49.5 -40t65.5 -15q2 -3 0 -15t-6 -13q-110 -5 -160 19q-25 12 -48 40q-22 27 -76.5 108.5
t-60.5 90.5q-11 15 -25 15q-7 1 -71 1q-4 0 -4 -6q0 -148 2 -181q1 -25 8 -34.5t24 -13.5q24 -5 56 -9q4 -3 3 -14.5t-5 -14.5q-4 0 -49 1.5t-84 1.5q-38 0 -80.5 -1.5t-46.5 -1.5q-4 3 -4 14.5t4 14.5q40 5 51 8q18 4 25.5 15.5t8.5 39.5q2 46 2 214q0 202 -1 233
q-1 21 -8 31.5t-25 14.5q-26 5 -54 8zM247 583q-22 0 -35 -5q-7 -5 -7 -15q-2 -34 -2 -248q0 -5 5 -5q103 -3 129 8q65 30 65 116q0 149 -155 149zM352 -30q17 0 33.5 -20t16.5 -52q0 -44 -31 -76.5t-83 -45.5q-3 1 -7.5 10t-3.5 13q37 16 52.5 32t15.5 37q0 36 -56 52
q-2 2 -2 8.5t2 8.5q7 9 27.5 21t35.5 12z" />
    <glyph glyph-name="uni0157" unicode="&#x157;" horiz-adv-x="324" 
d="M276 409q34 0 47 -22q2 -7 0 -16t-13 -31.5t-18 -31.5q-4 -4 -8 -4q-37 31 -65 31q-27 0 -53 -42q-8 -16 -8 -34q0 -151 2 -191q1 -26 21 -32q23 -6 63 -10q2 -4 0.5 -15t-4.5 -14q-2 0 -47.5 1.5t-69.5 1.5q-46 0 -100 -3q-2 3 -2.5 14.5t2.5 14.5q22 2 39 8q16 6 18 28
q3 24 3 168q0 67 -1 79q-3 24 -55 42q0 19 5 22q28 3 65 14t57 23q5 0 5 -4q-2 -28 -2 -77q0 -2 1.5 -2.5t3.5 0.5q34 43 63 63q25 19 51 19zM127 -32q17 0 33.5 -20t16.5 -52q0 -44 -31 -76.5t-83 -45.5q-3 1 -7.5 10t-3.5 13q37 16 52.5 32t15.5 37q0 36 -56 52
q-2 2 -2 8.5t2 8.5q7 9 27.5 21t35.5 12z" />
    <glyph glyph-name="uni0158" unicode="&#x158;" horiz-adv-x="612" 
d="M30 590q-3 3 -2 14.5t4 13.5q11 0 55 -1.5t60 -1.5q41 0 95.5 1t70.5 1q84 0 131.5 -44t47.5 -110q0 -110 -114 -161q-4 -4 -2 -7q30 -48 79.5 -114.5t83.5 -101.5q30 -31 49.5 -40t65.5 -15q2 -3 0 -15t-6 -13q-110 -5 -160 19q-25 12 -48 40q-22 27 -76.5 108.5
t-60.5 90.5q-11 15 -25 15q-7 1 -71 1q-4 0 -4 -6q0 -148 2 -181q1 -25 8 -34.5t24 -13.5q24 -5 56 -9q4 -3 3 -14.5t-5 -14.5q-4 0 -49 1.5t-84 1.5q-38 0 -80.5 -1.5t-46.5 -1.5q-4 3 -4 14.5t4 14.5q40 5 51 8q18 4 25.5 15.5t8.5 39.5q2 46 2 214q0 202 -1 233
q-1 21 -8 31.5t-25 14.5q-26 5 -54 8zM247 583q-22 0 -35 -5q-7 -5 -7 -15q-2 -34 -2 -248q0 -5 5 -5q103 -3 129 8q65 30 65 116q0 149 -155 149zM279 662q-9 -6 -21 -6q-9 9 -58.5 50t-70.5 56q0 4 6.5 13.5t9.5 9.5q4 0 56.5 -23t63.5 -30q7 -2 10 0q17 9 63 31t50 22
q3 0 8.5 -9.5t4.5 -13.5q-114 -92 -122 -100z" />
    <glyph glyph-name="uni0159" unicode="&#x159;" horiz-adv-x="324" 
d="M276 409q34 0 47 -22q2 -7 0 -16t-13 -31.5t-18 -31.5q-4 -4 -8 -4q-37 31 -65 31q-27 0 -53 -42q-8 -16 -8 -34q0 -151 2 -191q1 -26 21 -32q23 -6 63 -10q2 -4 0.5 -15t-4.5 -14q-2 0 -47.5 1.5t-69.5 1.5q-46 0 -100 -3q-2 3 -2.5 14.5t2.5 14.5q22 2 39 8q16 6 18 28
q3 24 3 168q0 67 -1 79q-3 24 -55 42q0 19 5 22q28 3 65 14t57 23q5 0 5 -4q-2 -28 -2 -77q0 -2 1.5 -2.5t3.5 0.5q34 43 63 63q25 19 51 19zM173 521q13 24 33 53.5t26 33.5q19 12 34 8q4 0 4 -5q-66 -103 -89 -157q-1 -2 -13.5 -6t-15.5 -4q-11 27 -42.5 84t-44.5 76
q2 4 16.5 9t22.5 5q5 -2 25.5 -32.5t38.5 -64.5q1 -1 2.5 -1t2.5 1z" />
    <glyph glyph-name="uni015A" unicode="&#x15a;" horiz-adv-x="483" 
d="M73 172q27 -95 72 -126q36 -27 98 -27q43 0 75 26.5t32 78.5q0 46 -28.5 76t-102.5 74q-75 43 -112 85t-37 105q0 78 56 123.5t141 45.5q41 0 94.5 -8.5t57.5 -8.5q-9 -44 -17 -138q-2 -4 -14.5 -4.5t-14.5 3.5q-8 83 -39 103q-29 21 -81 21q-49 0 -76.5 -31t-28.5 -71
q0 -39 16.5 -64.5t51.5 -49.5q23 -15 68.5 -39.5t55.5 -30.5q96 -61 96 -148q0 -77 -60 -131t-162 -54q-82 0 -144 31q-6 9 -15.5 64t-12.5 86q1 4 14 7.5t17 1.5zM331 808q11 -1 32 -13t28 -21q1 -2 1 -7t-1 -6q-10 -11 -84 -53.5t-81 -42.5q-2 0 -9 10t-6 11
q9 13 59.5 64.5t60.5 57.5z" />
    <glyph glyph-name="uni015B" unicode="&#x15b;" horiz-adv-x="345" 
d="M298 397q-6 -27 -12 -104q-2 -3 -13 -3.5t-14 1.5q-8 61 -34 76q-20 12 -49 12q-26 0 -44 -16t-18 -42t18.5 -45t74.5 -45q60 -27 82 -54.5t22 -65.5q0 -54 -44.5 -88.5t-112.5 -34.5q-61 0 -105 19q-14 47 -17 110q2 3 13.5 6.5t15.5 2.5q19 -70 59 -93q22 -12 50 -12
q31 0 49 15t18 41q0 27 -17 44.5t-64 40.5q-60 30 -85 59.5t-25 69.5q0 50 38.5 84t108.5 34q31 0 65 -6q16 -3 40 -6zM208 607q8 4 38.5 7t37.5 1q4 -2 4 -11q-10 -18 -56 -78.5t-66 -83.5q-3 0 -12 6t-10 9q51 125 64 150z" />
    <glyph glyph-name="uni015C" unicode="&#x15c;" horiz-adv-x="483" 
d="M73 172q27 -95 72 -126q36 -27 98 -27q43 0 75 26.5t32 78.5q0 46 -28.5 76t-102.5 74q-75 43 -112 85t-37 105q0 78 56 123.5t141 45.5q41 0 94.5 -8.5t57.5 -8.5q-9 -44 -17 -138q-2 -4 -14.5 -4.5t-14.5 3.5q-8 83 -39 103q-29 21 -81 21q-49 0 -76.5 -31t-28.5 -71
q0 -39 16.5 -64.5t51.5 -49.5q23 -15 68.5 -39.5t55.5 -30.5q96 -61 96 -148q0 -77 -60 -131t-162 -54q-82 0 -144 31q-6 9 -15.5 64t-12.5 86q1 4 14 7.5t17 1.5zM244 787q4 3 21 7q9 -10 59.5 -51.5t69.5 -54.5q0 -4 -6 -13.5t-9 -9.5q-5 0 -57 23t-64 30q-7 2 -10 0
q-15 -9 -61.5 -31t-50.5 -22t-9.5 9t-4.5 14q89 66 122 99z" />
    <glyph glyph-name="uni015D" unicode="&#x15d;" horiz-adv-x="345" 
d="M298 397q-6 -27 -12 -104q-2 -3 -13 -3.5t-14 1.5q-8 61 -34 76q-20 12 -49 12q-26 0 -44 -16t-18 -42t18.5 -45t74.5 -45q60 -27 82 -54.5t22 -65.5q0 -54 -44.5 -88.5t-112.5 -34.5q-61 0 -105 19q-14 47 -17 110q2 3 13.5 6.5t15.5 2.5q19 -70 59 -93q22 -12 50 -12
q31 0 49 15t18 41q0 27 -17 44.5t-64 40.5q-60 30 -85 59.5t-25 69.5q0 50 38.5 84t108.5 34q31 0 65 -6q16 -3 40 -6zM175 543q-13 -24 -32.5 -53.5t-25.5 -33.5q-5 -4 -17 -6.5t-17 -1.5q-3 0 -3 5q71 118 88 157q1 2 13.5 6t15.5 4q12 -28 43 -85.5t43 -74.5
q-2 -4 -17 -9t-22 -5q-14 5 -64 97q-1 1 -2.5 1t-2.5 -1z" />
    <glyph glyph-name="uni015E" unicode="&#x15e;" horiz-adv-x="483" 
d="M73 172q28 -96 72 -127q36 -26 97 -26q43 0 75.5 26.5t32.5 78.5q0 46 -28.5 76t-102.5 74q-75 43 -112 85t-37 105q0 78 56 123.5t141 45.5q45 0 93 -8q39 -6 59 -8q-9 -44 -17 -138q-3 -4 -14.5 -4.5t-14.5 3.5q-8 82 -40 103q-29 20 -80 20q-48 0 -76 -31t-29 -71
q0 -39 16.5 -64.5t51.5 -49.5q22 -15 67 -39t57 -31q96 -61 96 -148q0 -68 -47 -119t-131 -63l-20 -29q29 -15 45 -29q22 -17 22 -50q0 -41 -41 -70.5t-71 -29.5q-39 0 -54 29q-4 10 3 24q28 -15 63 -15q18 0 29 9t11 24q0 40 -74 62q1 6 2 9q28 38 47 63q-81 -1 -150 31
q-6 9 -15.5 63.5t-12.5 86.5q1 3 14 6.5t17 2.5z" />
    <glyph glyph-name="uni015F" unicode="&#x15f;" horiz-adv-x="345" 
d="M298 397q-6 -27 -12 -104q-2 -3 -13 -3.5t-14 1.5q-8 59 -33 75q-21 13 -50 13q-26 0 -44 -16t-18 -42t18.5 -45t74.5 -45q60 -27 82 -54.5t22 -65.5q0 -48 -34.5 -79.5t-87.5 -40.5l-21 -29q25 -14 43 -29q23 -21 23 -48q0 -40 -39.5 -67.5t-68.5 -27.5q-34 0 -52 27
q-2 17 4 24q27 -14 60 -14q17 0 28.5 9t11.5 23q0 34 -70 59q-1 6 1 8q27 39 46 62q-57 0 -106 19q-14 47 -17 110q2 3 13.5 6.5t15.5 1.5q19 -69 59 -92q22 -12 50 -12q31 0 49 15t18 41q0 27 -17 44.5t-64 40.5q-60 30 -85 59.5t-25 69.5q0 50 38.5 84t108.5 34
q32 0 66 -6q19 -4 39 -6z" />
    <glyph glyph-name="Scaron" unicode="&#x160;" horiz-adv-x="483" 
d="M73 172q27 -95 72 -126q36 -27 98 -27q43 0 75 26.5t32 78.5q0 46 -28.5 76t-102.5 74q-75 43 -112 85t-37 105q0 78 56 123.5t141 45.5q41 0 94.5 -8.5t57.5 -8.5q-9 -44 -17 -138q-2 -4 -14.5 -4.5t-14.5 3.5q-8 83 -39 103q-29 21 -81 21q-49 0 -76.5 -31t-28.5 -71
q0 -39 16.5 -64.5t51.5 -49.5q23 -15 68.5 -39.5t55.5 -30.5q96 -61 96 -148q0 -77 -60 -131t-162 -54q-82 0 -144 31q-6 9 -15.5 64t-12.5 86q1 4 14 7.5t17 1.5zM270 673q-9 -6 -21 -6q-9 9 -58.5 50t-70.5 56q0 4 6.5 13.5t9.5 9.5q4 0 56.5 -23t63.5 -30q7 -2 10 0
q17 9 63 31t50 22q3 0 8.5 -9.5t4.5 -13.5q-114 -92 -122 -100z" />
    <glyph glyph-name="scaron" unicode="&#x161;" horiz-adv-x="345" 
d="M298 397q-6 -27 -12 -104q-2 -3 -13 -3.5t-14 1.5q-8 61 -34 76q-20 12 -49 12q-26 0 -44 -16t-18 -42t18.5 -45t74.5 -45q60 -27 82 -54.5t22 -65.5q0 -54 -44.5 -88.5t-112.5 -34.5q-61 0 -105 19q-14 47 -17 110q2 3 13.5 6.5t15.5 2.5q19 -70 59 -93q22 -12 50 -12
q31 0 49 15t18 41q0 27 -17 44.5t-64 40.5q-60 30 -85 59.5t-25 69.5q0 50 38.5 84t108.5 34q31 0 65 -6q16 -3 40 -6zM187 522q13 24 33 53.5t26 33.5q19 12 34 8q4 0 4 -5q-66 -103 -89 -157q-1 -2 -13.5 -6t-15.5 -4q-11 27 -42.5 84t-44.5 76q2 4 16.5 9t22.5 5
q5 -2 25.5 -32.5t38.5 -64.5q2 -2 5 0z" />
    <glyph glyph-name="uni0162" unicode="&#x162;" horiz-adv-x="641" 
d="M462 26q2 -4 1 -16t-5 -13q-10 0 -62 1.5t-87 1.5q-43 0 -93.5 -1.5t-57.5 -1.5q-3 4 -2.5 15t2.5 14q53 5 71 10q23 4 30 19.5t8 52.5q4 104 4 458q0 8 -7 8q-40 2 -129 0q-26 -2 -42 -28q-11 -18 -39 -93q-3 -2 -16.5 1t-14.5 7q16 86 20 165q0 1 4.5 3t6.5 1
q30 -15 81 -15h370q64 0 97 15q8 0 10 -5q-11 -38 -23 -169q-2 -4 -16 -4t-16 3q-5 64 -16 89q-11 28 -39 29q-94 2 -140 0q-5 -2 -5 -8q0 -424 3 -475q2 -26 9.5 -37t24.5 -16q16 -5 68 -11zM321 -37q17 0 33.5 -20t16.5 -52q0 -44 -31 -76.5t-83 -45.5q-3 1 -7.5 10
t-3.5 13q37 16 52.5 32t15.5 37q0 36 -56 52q-2 2 -2 8.5t2 8.5q7 9 27.5 21t35.5 12z" />
    <glyph glyph-name="uni0163" unicode="&#x163;" horiz-adv-x="294" 
d="M271 345q-11 0 -52 0.5t-62 0.5q-4 0 -4 -5q-2 -90 0 -184q0 -52 6 -72q13 -39 59 -39q34 0 62 17q1 -2 0 -15t-3 -16q-35 -44 -99 -44q-62 0 -88 48q-14 26 -14 114q0 31 0.5 100t0.5 87q0 7 -6 9l-54 4q-1 4 2.5 16.5t6.5 16.5q35 5 47 11q4 0 4 7v85q43 22 64 46
q4 1 10 1.5t8 -0.5q-5 -43 -5 -132q0 -6 4 -6q85 0 122 5q-8 -36 -9 -55zM176 -39q17 0 33.5 -20t16.5 -52q0 -44 -31 -76.5t-83 -45.5q-3 1 -7.5 10t-3.5 13q37 16 52.5 32t15.5 37q0 36 -56 52q-2 2 -2 8.5t2 8.5q7 9 27.5 21t35.5 12z" />
    <glyph glyph-name="uni0164" unicode="&#x164;" horiz-adv-x="641" 
d="M462 26q2 -4 1 -16t-5 -13q-10 0 -62 1.5t-87 1.5q-43 0 -93.5 -1.5t-57.5 -1.5q-3 4 -2.5 15t2.5 14q53 5 71 10q23 4 30 19.5t8 52.5q4 104 4 458q0 8 -7 8q-40 2 -129 0q-26 -2 -42 -28q-11 -18 -39 -93q-3 -2 -16.5 1t-14.5 7q16 86 20 165q0 1 4.5 3t6.5 1
q30 -15 81 -15h370q64 0 97 15q8 0 10 -5q-11 -38 -23 -169q-2 -4 -16 -4t-16 3q-5 64 -16 89q-11 28 -39 29q-94 2 -140 0q-5 -2 -5 -8q0 -424 3 -475q2 -26 9.5 -37t24.5 -16q16 -5 68 -11zM326 659q-9 -6 -21 -6q-9 9 -58.5 50t-70.5 56q0 4 6.5 13.5t9.5 9.5
q4 0 56.5 -23t63.5 -30q7 -2 10 0q17 9 63 31t50 22q3 0 8.5 -9.5t4.5 -13.5q-114 -92 -122 -100z" />
    <glyph glyph-name="uni0165" unicode="&#x165;" horiz-adv-x="294" 
d="M271 345q-11 0 -52 0.5t-62 0.5q-4 0 -4 -5q-2 -90 0 -184q0 -52 6 -72q13 -39 59 -39q34 0 62 17q1 -2 0 -15t-3 -16q-35 -44 -99 -44q-62 0 -88 48q-14 26 -14 114q0 31 0.5 100t0.5 87q0 7 -6 9l-54 4q-1 4 2.5 16.5t6.5 16.5q35 5 47 11q4 0 4 7v85q43 22 64 46
q4 1 10 1.5t8 -0.5q-5 -43 -5 -132q0 -6 4 -6q85 0 122 5q-8 -36 -9 -55zM284 696q5 0 5 -13q1 -26 -5.5 -86t-13.5 -87q-3 -10 -13 -20.5t-18 -14.5q-2 -1 -4.5 1.5t-2.5 3.5q0 89 -11 170q0 5 2 8q6 7 29.5 22.5t31.5 15.5z" />
    <glyph glyph-name="Tbar" unicode="&#x166;" horiz-adv-x="641" 
d="M159 26q50 5 71 9q23 4 29.5 19.5t7.5 53.5q1 13 3 193q-22 0 -63 -0.5t-47 -0.5q3 30 7 36h103q0 39 0.5 114.5t0.5 113.5q0 10 -8 10q-41 2 -129 0q-26 -1 -40 -28q-15 -21 -40 -94q-3 -2 -16.5 1.5t-14.5 6.5q14 74 20 166q0 1 4.5 3t6.5 1q28 -15 81 -15h370
q62 0 97 15q8 0 10 -5q-11 -40 -23 -169q-2 -4 -16 -4t-16 3q-8 72 -16 90q-10 27 -38 28q-93 2 -141 0q-5 -2 -5 -9q0 -153 1 -228h51t45 0.5t21 0.5q2 -12 -5 -36h-112q0 -164 2 -212q2 -27 9 -37t24 -15q15 -5 69 -11q2 -3 1 -15.5t-5 -13.5q-135 3 -149 3
q-26 0 -82.5 -1.5t-68.5 -1.5q-4 3 -3.5 14.5t4.5 14.5z" />
    <glyph glyph-name="tbar" unicode="&#x167;" horiz-adv-x="294" 
d="M271 345q-11 0 -52 0.5t-62 0.5q-4 0 -4 -5q-1 -27 -1 -105h62l34 1q3 -15 -5 -37l-91 1q0 -35 1 -44q0 -52 6 -72q13 -39 59 -39q34 0 62 17q1 -2 0 -15t-3 -16q-35 -44 -99 -44q-62 0 -88 48q-14 26 -14 114v51h-55q3 28 7 35h48q1 39 1 101q0 7 -6 9l-54 4
q-1 4 2.5 16.5t6.5 16.5q35 5 47 11q4 0 4 7v85q43 22 64 46q4 1 10 1.5t8 -0.5q-5 -43 -5 -132q0 -6 4 -6q85 0 122 5q-8 -36 -9 -55z" />
    </font>
</defs>
</svg>
